%TF.GenerationSoftware,Altium Limited,Altium Designer,20.0.10 (225)*%
G04 Layer_Color=16711935*
%FSLAX26Y26*%
%MOIN*%
%TF.FileFunction,Other,Top_3D_Body*%
%TF.Part,Single*%
G01*
G75*
%TA.AperFunction,NonConductor*%
%ADD53C,0.018000*%
%ADD56C,0.003937*%
D53*
X3572756Y1240984D02*
X3667244D01*
X3572756D02*
Y1489016D01*
X3667244Y1240984D02*
Y1489016D01*
X3572756D02*
X3667244D01*
X3517992Y1728445D02*
Y1921555D01*
Y1728445D02*
X3671339D01*
Y1921555D01*
X3517992D02*
X3671339D01*
X3734921Y2707402D02*
Y2982599D01*
X3475079Y2707402D02*
Y2982599D01*
Y2707402D02*
X3734921D01*
X3475079Y2982599D02*
X3734921D01*
Y2301024D02*
Y2576220D01*
X3475079Y2301024D02*
Y2576220D01*
Y2301024D02*
X3734921D01*
X3475079Y2576220D02*
X3734921D01*
X4186457Y1293307D02*
X4243543D01*
X4186457Y1206693D02*
Y1293307D01*
Y1206693D02*
X4243543D01*
Y1293307D01*
X4061377D02*
X4118464D01*
X4061377Y1206693D02*
Y1293307D01*
Y1206693D02*
X4118464D01*
Y1293307D01*
X3936297D02*
X3993384D01*
X3936297Y1206693D02*
Y1293307D01*
Y1206693D02*
X3993384D01*
Y1293307D01*
X3815394Y1289370D02*
X3864606D01*
X3815394Y1210630D02*
Y1289370D01*
Y1210630D02*
X3864606D01*
Y1289370D01*
X4184488Y1578307D02*
X4237638D01*
X4184488Y1491693D02*
Y1578307D01*
Y1491693D02*
X4237638D01*
Y1578307D01*
X4059409D02*
X4112558D01*
X4059409Y1491693D02*
Y1578307D01*
Y1491693D02*
X4112558D01*
Y1578307D01*
X3934329D02*
X3987479D01*
X3934329Y1491693D02*
Y1578307D01*
Y1491693D02*
X3987479D01*
Y1578307D01*
D56*
X3689153Y2110000D02*
G03*
X3689153Y2110000I-98425J0D01*
G01*
%TF.MD5,7d4c6808a318a7eee6d445a69a7b3989*%
M02*
