%TF.GenerationSoftware,Altium Limited,Altium Designer,20.0.10 (225)*%
G04 Layer_Color=2752767*
%FSLAX26Y26*%
%MOIN*%
%TF.FileFunction,Drawing*%
%TF.Part,Single*%
G01*
G75*
%TA.AperFunction,NonConductor*%
%ADD74C,0.005000*%
%ADD75C,0.006667*%
D74*
X4930000Y1090000D02*
Y1130000D01*
X4970000D01*
Y1090000D01*
X4930000D01*
X3370000D02*
Y1130000D01*
X3410000D01*
Y1090000D01*
X3370000D01*
X4930000Y3030000D02*
Y3070000D01*
X4970000D01*
Y3030000D01*
X4930000D01*
X3370000D02*
Y3070000D01*
X3410000D01*
Y3030000D01*
X3370000D01*
X3480000Y1595000D02*
X3460000Y1635000D01*
X3500000D01*
X3480000Y1595000D01*
X4530000Y1160000D02*
X4510000Y1200000D01*
X4550000D01*
X4530000Y1160000D01*
X4410000Y2465000D02*
X4390000Y2505000D01*
X4430000D01*
X4410000Y2465000D01*
X3415000Y1270000D02*
X3395000Y1310000D01*
X3435000D01*
X3415000Y1270000D01*
Y1470000D02*
X3395000Y1510000D01*
X3435000D01*
X3415000Y1470000D01*
X3620000Y1167835D02*
X3630000Y1177835D01*
X3640000D01*
X3630000Y1187835D01*
X3640000Y1197835D01*
X3630000D01*
X3620000Y1207835D01*
X3610000Y1197835D01*
X3600000D01*
X3610000Y1187835D01*
X3600000Y1177835D01*
X3610000D01*
X3620000Y1167835D01*
Y1522165D02*
X3630000Y1532165D01*
X3640000D01*
X3630000Y1542165D01*
X3640000Y1552165D01*
X3630000D01*
X3620000Y1562165D01*
X3610000Y1552165D01*
X3600000D01*
X3610000Y1542165D01*
X3600000Y1532165D01*
X3610000D01*
X3620000Y1522165D01*
X3570728Y2129370D02*
X3580728Y2149370D01*
X3570728Y2169370D01*
X3590728Y2159370D01*
X3610728Y2169370D01*
X3600728Y2149370D01*
X3610728Y2129370D01*
X3590728Y2139370D01*
X3570728Y2129370D01*
Y2050630D02*
X3580728Y2070630D01*
X3570728Y2090630D01*
X3590728Y2080630D01*
X3610728Y2090630D01*
X3600728Y2070630D01*
X3610728Y2050630D01*
X3590728Y2060630D01*
X3570728Y2050630D01*
X3495000Y2836378D02*
Y2826378D01*
X3515000D01*
Y2836378D01*
X3525000D01*
Y2856378D01*
X3515000D01*
Y2866378D01*
X3495000D01*
Y2856378D01*
X3485000D01*
Y2836378D01*
X3495000D01*
X3595000Y2936378D02*
Y2926378D01*
X3615000D01*
Y2936378D01*
X3625000D01*
Y2956378D01*
X3615000D01*
Y2966378D01*
X3595000D01*
Y2956378D01*
X3585000D01*
Y2936378D01*
X3595000D01*
X3695000Y2836378D02*
Y2826378D01*
X3715000D01*
Y2836378D01*
X3725000D01*
Y2856378D01*
X3715000D01*
Y2866378D01*
X3695000D01*
Y2856378D01*
X3685000D01*
Y2836378D01*
X3695000D01*
X3495000Y2430000D02*
Y2420000D01*
X3515000D01*
Y2430000D01*
X3525000D01*
Y2450000D01*
X3515000D01*
Y2460000D01*
X3495000D01*
Y2450000D01*
X3485000D01*
Y2430000D01*
X3495000D01*
X3595000Y2530000D02*
Y2520000D01*
X3615000D01*
Y2530000D01*
X3625000D01*
Y2550000D01*
X3615000D01*
Y2560000D01*
X3595000D01*
Y2550000D01*
X3585000D01*
Y2530000D01*
X3595000D01*
X3695000Y2430000D02*
Y2420000D01*
X3715000D01*
Y2430000D01*
X3725000D01*
Y2450000D01*
X3715000D01*
Y2460000D01*
X3695000D01*
Y2450000D01*
X3685000D01*
Y2430000D01*
X3695000D01*
X4950000Y1320000D02*
X4960000D01*
X4970000Y1330000D01*
X4980000Y1320000D01*
X4990000D01*
Y1330000D01*
X4980000Y1340000D01*
X4990000Y1350000D01*
Y1360000D01*
X4980000D01*
X4970000Y1350000D01*
X4960000Y1360000D01*
X4950000D01*
Y1350000D01*
X4960000Y1340000D01*
X4950000Y1330000D01*
Y1320000D01*
Y1220000D02*
X4960000D01*
X4970000Y1230000D01*
X4980000Y1220000D01*
X4990000D01*
Y1230000D01*
X4980000Y1240000D01*
X4990000Y1250000D01*
Y1260000D01*
X4980000D01*
X4970000Y1250000D01*
X4960000Y1260000D01*
X4950000D01*
Y1250000D01*
X4960000Y1240000D01*
X4950000Y1230000D01*
Y1220000D01*
X4940000Y1655000D02*
X4950000D01*
X4960000Y1665000D01*
X4970000Y1655000D01*
X4980000D01*
Y1665000D01*
X4970000Y1675000D01*
X4980000Y1685000D01*
Y1695000D01*
X4970000D01*
X4960000Y1685000D01*
X4950000Y1695000D01*
X4940000D01*
Y1685000D01*
X4950000Y1675000D01*
X4940000Y1665000D01*
Y1655000D01*
Y1755000D02*
X4950000D01*
X4960000Y1765000D01*
X4970000Y1755000D01*
X4980000D01*
Y1765000D01*
X4970000Y1775000D01*
X4980000Y1785000D01*
Y1795000D01*
X4970000D01*
X4960000Y1785000D01*
X4950000Y1795000D01*
X4940000D01*
Y1785000D01*
X4950000Y1775000D01*
X4940000Y1765000D01*
Y1755000D01*
X3400000Y1965000D02*
X3420000Y1985000D01*
X3440000Y1965000D01*
X3420000Y1945000D01*
X3400000Y1965000D01*
X3875000Y1665000D02*
X3895000Y1685000D01*
X3915000Y1665000D01*
X3895000Y1645000D01*
X3875000Y1665000D01*
X3745000Y1970000D02*
X3765000Y1990000D01*
X3785000Y1970000D01*
X3765000Y1950000D01*
X3745000Y1970000D01*
X3375000Y1750000D02*
X3395000Y1770000D01*
X3415000Y1750000D01*
X3395000Y1730000D01*
X3375000Y1750000D01*
X3755000Y1535000D02*
X3775000Y1555000D01*
X3795000Y1535000D01*
X3775000Y1515000D01*
X3755000Y1535000D01*
Y1300000D02*
X3775000Y1320000D01*
X3795000Y1300000D01*
X3775000Y1280000D01*
X3755000Y1300000D01*
D75*
X4710000Y1240000D02*
G03*
X4710000Y1240000I-20000J0D01*
G01*
X4810000D02*
G03*
X4810000Y1240000I-20000J0D01*
G01*
%TF.MD5,17aa4a3220495c3c3e52bb0d9a305302*%
M02*
