%TF.GenerationSoftware,Altium Limited,Altium Designer,20.0.10 (225)*%
G04 Layer_Physical_Order=2*
G04 Layer_Color=16711680*
%FSLAX26Y26*%
%MOIN*%
%TF.FileFunction,Copper,L2,Bot,Signal*%
%TF.Part,Single*%
G01*
G75*
%TA.AperFunction,Conductor*%
%ADD15C,0.018000*%
%TA.AperFunction,ViaPad*%
%ADD16C,0.150000*%
%TA.AperFunction,ComponentPad*%
%ADD17R,0.059055X0.059055*%
%ADD18C,0.059055*%
%TA.AperFunction,ViaPad*%
%ADD19C,0.070000*%
%TA.AperFunction,ComponentPad*%
%ADD20R,0.072835X0.072835*%
%ADD21C,0.072835*%
%ADD22R,0.053150X0.053150*%
%ADD23C,0.053150*%
%ADD24C,0.051181*%
%ADD25R,0.051181X0.051181*%
%ADD26R,0.049213X0.049213*%
%ADD27C,0.049213*%
%ADD28R,0.065000X0.065000*%
%ADD29C,0.065000*%
%ADD30R,0.059055X0.065000*%
%TA.AperFunction,ViaPad*%
%ADD31C,0.050000*%
G36*
X4999160Y3162559D02*
X5014363Y3156795D01*
X5028149Y3148176D01*
X5039988Y3137033D01*
X5049426Y3123794D01*
X5056100Y3108968D01*
X5059754Y3093126D01*
X5060000Y3085000D01*
X5060000Y3085000D01*
Y1085000D01*
X5060246Y1076874D01*
X5057559Y1060840D01*
X5051795Y1045637D01*
X5043176Y1031851D01*
X5032033Y1020012D01*
X5018794Y1010574D01*
X5003968Y1003900D01*
X4988126Y1000246D01*
X4980000Y1000000D01*
X4980000Y1000000D01*
Y1000000D01*
X3345000Y1000000D01*
X3336874Y999754D01*
X3320840Y1002441D01*
X3305637Y1008205D01*
X3291851Y1016824D01*
X3280012Y1027967D01*
X3270574Y1041206D01*
X3263900Y1056032D01*
X3260246Y1071874D01*
X3260000Y1080000D01*
Y3080000D01*
X3260000D01*
X3259754Y3088126D01*
X3262441Y3104160D01*
X3268205Y3119363D01*
X3276824Y3133149D01*
X3287967Y3144988D01*
X3301206Y3154426D01*
X3316032Y3161100D01*
X3331874Y3164754D01*
X3340000Y3165000D01*
X4975000D01*
X4983126Y3165246D01*
X4999160Y3162559D01*
D02*
G37*
%LPC*%
G36*
X4955000Y3134919D02*
Y3055000D01*
X5034919D01*
X5033770Y3066663D01*
X5028910Y3082686D01*
X5021017Y3097452D01*
X5010395Y3110395D01*
X4997452Y3121017D01*
X4982685Y3128910D01*
X4966663Y3133770D01*
X4955000Y3134919D01*
D02*
G37*
G36*
X4945000D02*
X4933337Y3133770D01*
X4917315Y3128910D01*
X4902548Y3121017D01*
X4889605Y3110395D01*
X4878983Y3097452D01*
X4871090Y3082686D01*
X4866230Y3066663D01*
X4865081Y3055000D01*
X4945000D01*
Y3134919D01*
D02*
G37*
G36*
X3395000D02*
Y3055000D01*
X3474919D01*
X3473770Y3066663D01*
X3468910Y3082686D01*
X3461017Y3097452D01*
X3450395Y3110395D01*
X3437452Y3121017D01*
X3422686Y3128910D01*
X3406663Y3133770D01*
X3395000Y3134919D01*
D02*
G37*
G36*
X3385000D02*
X3373337Y3133770D01*
X3357314Y3128910D01*
X3342548Y3121017D01*
X3329605Y3110395D01*
X3318983Y3097452D01*
X3311090Y3082686D01*
X3306230Y3066663D01*
X3305081Y3055000D01*
X3385000D01*
Y3134919D01*
D02*
G37*
G36*
X5034919Y3045000D02*
X4955000D01*
Y2965081D01*
X4966663Y2966230D01*
X4982685Y2971090D01*
X4997452Y2978983D01*
X5010395Y2989605D01*
X5021017Y3002548D01*
X5028910Y3017314D01*
X5033770Y3033337D01*
X5034919Y3045000D01*
D02*
G37*
G36*
X4945000D02*
X4865081D01*
X4866230Y3033337D01*
X4871090Y3017314D01*
X4878983Y3002548D01*
X4889605Y2989605D01*
X4902548Y2978983D01*
X4917315Y2971090D01*
X4933337Y2966230D01*
X4945000Y2965081D01*
Y3045000D01*
D02*
G37*
G36*
X3474919D02*
X3395000D01*
Y2965081D01*
X3406663Y2966230D01*
X3422686Y2971090D01*
X3437452Y2978983D01*
X3450395Y2989605D01*
X3461017Y3002548D01*
X3468910Y3017314D01*
X3473770Y3033337D01*
X3474919Y3045000D01*
D02*
G37*
G36*
X3385000D02*
X3305081D01*
X3306230Y3033337D01*
X3311090Y3017314D01*
X3318983Y3002548D01*
X3329605Y2989605D01*
X3342548Y2978983D01*
X3357314Y2971090D01*
X3373337Y2966230D01*
X3385000Y2965081D01*
Y3045000D01*
D02*
G37*
G36*
X3605000Y2981283D02*
X3595966Y2980093D01*
X3587548Y2976606D01*
X3580318Y2971059D01*
X3574771Y2963830D01*
X3571285Y2955412D01*
X3570095Y2946378D01*
X3571285Y2937344D01*
X3574771Y2928926D01*
X3580318Y2921697D01*
X3587548Y2916149D01*
X3595966Y2912662D01*
X3605000Y2911473D01*
X3614034Y2912662D01*
X3622452Y2916149D01*
X3629682Y2921697D01*
X3635229Y2928926D01*
X3638715Y2937344D01*
X3639905Y2946378D01*
X3638715Y2955412D01*
X3635229Y2963830D01*
X3629682Y2971059D01*
X3622452Y2976606D01*
X3614034Y2980093D01*
X3605000Y2981283D01*
D02*
G37*
G36*
X3539606Y2880984D02*
X3470394D01*
Y2811772D01*
X3539606D01*
Y2880984D01*
D02*
G37*
G36*
X3705000Y2881283D02*
X3695966Y2880093D01*
X3687548Y2876606D01*
X3680318Y2871059D01*
X3674771Y2863830D01*
X3671285Y2855412D01*
X3670095Y2846378D01*
X3671285Y2837344D01*
X3674771Y2828926D01*
X3680318Y2821697D01*
X3687548Y2816149D01*
X3695966Y2812662D01*
X3705000Y2811473D01*
X3714034Y2812662D01*
X3722452Y2816149D01*
X3729682Y2821697D01*
X3735229Y2828926D01*
X3738715Y2837344D01*
X3739905Y2846378D01*
X3738715Y2855412D01*
X3735229Y2863830D01*
X3729682Y2871059D01*
X3722452Y2876606D01*
X3714034Y2880093D01*
X3705000Y2881283D01*
D02*
G37*
G36*
X3605000Y2574905D02*
X3595966Y2573715D01*
X3587548Y2570229D01*
X3580318Y2564682D01*
X3574771Y2557452D01*
X3571285Y2549034D01*
X3570095Y2540000D01*
X3571285Y2530966D01*
X3574771Y2522548D01*
X3580318Y2515318D01*
X3587548Y2509771D01*
X3595966Y2506285D01*
X3605000Y2505095D01*
X3614034Y2506285D01*
X3622452Y2509771D01*
X3629682Y2515318D01*
X3635229Y2522548D01*
X3638715Y2530966D01*
X3639905Y2540000D01*
X3638715Y2549034D01*
X3635229Y2557452D01*
X3629682Y2564682D01*
X3622452Y2570229D01*
X3614034Y2573715D01*
X3605000Y2574905D01*
D02*
G37*
G36*
X4410000Y2530388D02*
X4398253Y2528842D01*
X4387306Y2524307D01*
X4381907Y2520164D01*
X4410000Y2492071D01*
X4438093Y2520164D01*
X4432694Y2524307D01*
X4421747Y2528842D01*
X4410000Y2530388D01*
D02*
G37*
G36*
X4374836Y2513093D02*
X4370693Y2507694D01*
X4366158Y2496747D01*
X4364612Y2485000D01*
X4366158Y2473253D01*
X4370693Y2462306D01*
X4374836Y2456907D01*
X4402929Y2485000D01*
X4374836Y2513093D01*
D02*
G37*
G36*
X4445164D02*
X4417071Y2485000D01*
X4445164Y2456907D01*
X4449307Y2462306D01*
X4453842Y2473253D01*
X4455388Y2485000D01*
X4453842Y2496747D01*
X4449307Y2507694D01*
X4445164Y2513093D01*
D02*
G37*
G36*
X4410000Y2477929D02*
X4381907Y2449836D01*
X4387306Y2445693D01*
X4398253Y2441158D01*
X4410000Y2439612D01*
X4421747Y2441158D01*
X4432694Y2445693D01*
X4438093Y2449836D01*
X4410000Y2477929D01*
D02*
G37*
G36*
X3539606Y2474606D02*
X3470394D01*
Y2405394D01*
X3539606D01*
Y2474606D01*
D02*
G37*
G36*
X3705000Y2474905D02*
X3695966Y2473715D01*
X3687548Y2470229D01*
X3680318Y2464682D01*
X3674771Y2457452D01*
X3671285Y2449034D01*
X3670095Y2440000D01*
X3671285Y2430966D01*
X3674771Y2422548D01*
X3680318Y2415318D01*
X3687548Y2409771D01*
X3695966Y2406285D01*
X3705000Y2405095D01*
X3714034Y2406285D01*
X3722452Y2409771D01*
X3729682Y2415318D01*
X3735229Y2422548D01*
X3738715Y2430966D01*
X3739905Y2440000D01*
X3738715Y2449034D01*
X3735229Y2457452D01*
X3729682Y2464682D01*
X3722452Y2470229D01*
X3714034Y2473715D01*
X3705000Y2474905D01*
D02*
G37*
G36*
X3590728Y2185268D02*
X3581437Y2184044D01*
X3572780Y2180458D01*
X3565345Y2174753D01*
X3559640Y2167319D01*
X3556054Y2158661D01*
X3554831Y2149370D01*
X3556054Y2140079D01*
X3559640Y2131421D01*
X3565345Y2123987D01*
X3572780Y2118282D01*
X3581437Y2114696D01*
X3590728Y2113472D01*
X3600019Y2114696D01*
X3608677Y2118282D01*
X3616112Y2123987D01*
X3621816Y2131421D01*
X3625403Y2140079D01*
X3626626Y2149370D01*
X3625403Y2158661D01*
X3621816Y2167319D01*
X3616112Y2174753D01*
X3608677Y2180458D01*
X3600019Y2184044D01*
X3590728Y2185268D01*
D02*
G37*
G36*
X3626319Y2106220D02*
X3555138D01*
Y2035040D01*
X3626319D01*
Y2106220D01*
D02*
G37*
G36*
X3425000Y1999644D02*
Y1970000D01*
X3454644D01*
X3454099Y1974137D01*
X3450572Y1982651D01*
X3444962Y1989962D01*
X3437651Y1995572D01*
X3429137Y1999099D01*
X3425000Y1999644D01*
D02*
G37*
G36*
X3415000D02*
X3410863Y1999099D01*
X3402349Y1995572D01*
X3395038Y1989962D01*
X3389428Y1982651D01*
X3385901Y1974137D01*
X3385356Y1970000D01*
X3415000D01*
Y1999644D01*
D02*
G37*
G36*
X3765000Y2005302D02*
X3755863Y2004099D01*
X3747349Y2000572D01*
X3740038Y1994962D01*
X3734428Y1987651D01*
X3730901Y1979137D01*
X3729698Y1970000D01*
X3730618Y1963014D01*
X3696976Y1929372D01*
X3555000D01*
X3547587Y1927898D01*
X3541302Y1923698D01*
X3401986Y1784382D01*
X3395000Y1785302D01*
X3385863Y1784099D01*
X3377349Y1780572D01*
X3370038Y1774962D01*
X3364428Y1767651D01*
X3360901Y1759137D01*
X3359698Y1750000D01*
X3360901Y1740863D01*
X3364428Y1732349D01*
X3370038Y1725038D01*
X3377349Y1719428D01*
X3385863Y1715901D01*
X3395000Y1714698D01*
X3404137Y1715901D01*
X3412651Y1719428D01*
X3419962Y1725038D01*
X3425572Y1732349D01*
X3429099Y1740863D01*
X3430302Y1750000D01*
X3429382Y1756986D01*
X3563024Y1890628D01*
X3705000D01*
X3712413Y1892102D01*
X3718698Y1896302D01*
X3758014Y1935618D01*
X3765000Y1934698D01*
X3774137Y1935901D01*
X3782651Y1939428D01*
X3789962Y1945038D01*
X3795572Y1952349D01*
X3799099Y1960863D01*
X3800302Y1970000D01*
X3799099Y1979137D01*
X3795572Y1987651D01*
X3789962Y1994962D01*
X3782651Y2000572D01*
X3774137Y2004099D01*
X3765000Y2005302D01*
D02*
G37*
G36*
X3454644Y1960000D02*
X3425000D01*
Y1930356D01*
X3429137Y1930901D01*
X3437651Y1934428D01*
X3444962Y1940038D01*
X3450572Y1947349D01*
X3454099Y1955863D01*
X3454644Y1960000D01*
D02*
G37*
G36*
X3415000D02*
X3385356D01*
X3385901Y1955863D01*
X3389428Y1947349D01*
X3395038Y1940038D01*
X3402349Y1934428D01*
X3410863Y1930901D01*
X3415000Y1930356D01*
Y1960000D01*
D02*
G37*
G36*
X4965000Y1817208D02*
Y1780000D01*
X5002208D01*
X5001406Y1786095D01*
X4997124Y1796433D01*
X4990311Y1805311D01*
X4981433Y1812124D01*
X4971095Y1816406D01*
X4965000Y1817208D01*
D02*
G37*
G36*
X4955000D02*
X4948905Y1816406D01*
X4938567Y1812124D01*
X4929689Y1805311D01*
X4922876Y1796433D01*
X4918594Y1786095D01*
X4917792Y1780000D01*
X4955000D01*
Y1817208D01*
D02*
G37*
G36*
X5002208Y1770000D02*
X4965000D01*
Y1732792D01*
X4971095Y1733594D01*
X4981433Y1737876D01*
X4990311Y1744689D01*
X4997124Y1753567D01*
X5001406Y1763905D01*
X5002208Y1770000D01*
D02*
G37*
G36*
X4955000D02*
X4917792D01*
X4918594Y1763905D01*
X4922876Y1753567D01*
X4929689Y1744689D01*
X4938567Y1737876D01*
X4948905Y1733594D01*
X4955000Y1732792D01*
Y1770000D01*
D02*
G37*
G36*
X4999528Y1717500D02*
X4920472D01*
Y1632500D01*
X4999528D01*
Y1717500D01*
D02*
G37*
G36*
X3895000Y1700302D02*
X3885863Y1699099D01*
X3877349Y1695572D01*
X3870038Y1689962D01*
X3865748Y1684372D01*
X3785544D01*
X3778131Y1682898D01*
X3771846Y1678698D01*
X3761302Y1668154D01*
X3757102Y1661869D01*
X3755628Y1654456D01*
Y1564252D01*
X3750038Y1559962D01*
X3744428Y1552651D01*
X3740901Y1544137D01*
X3739698Y1535000D01*
X3740901Y1525863D01*
X3744428Y1517349D01*
X3750038Y1510038D01*
X3755628Y1505748D01*
Y1329252D01*
X3750038Y1324962D01*
X3744428Y1317651D01*
X3740901Y1309137D01*
X3739698Y1300000D01*
X3740901Y1290863D01*
X3744428Y1282349D01*
X3750038Y1275038D01*
X3757349Y1269428D01*
X3765863Y1265901D01*
X3775000Y1264698D01*
X3784137Y1265901D01*
X3792651Y1269428D01*
X3799962Y1275038D01*
X3805572Y1282349D01*
X3809099Y1290863D01*
X3810302Y1300000D01*
X3809099Y1309137D01*
X3805572Y1317651D01*
X3799962Y1324962D01*
X3794372Y1329252D01*
Y1505748D01*
X3799962Y1510038D01*
X3805572Y1517349D01*
X3809099Y1525863D01*
X3810302Y1535000D01*
X3809099Y1544137D01*
X3805572Y1552651D01*
X3799962Y1559962D01*
X3794372Y1564252D01*
Y1645628D01*
X3865748D01*
X3870038Y1640038D01*
X3877349Y1634428D01*
X3885863Y1630901D01*
X3895000Y1629698D01*
X3904137Y1630901D01*
X3912651Y1634428D01*
X3919962Y1640038D01*
X3925572Y1647349D01*
X3929099Y1655863D01*
X3930302Y1665000D01*
X3929099Y1674137D01*
X3925572Y1682651D01*
X3919962Y1689962D01*
X3912651Y1695572D01*
X3904137Y1699099D01*
X3895000Y1700302D01*
D02*
G37*
G36*
X3480000Y1660388D02*
X3468253Y1658842D01*
X3457306Y1654307D01*
X3451907Y1650164D01*
X3480000Y1622071D01*
X3508093Y1650164D01*
X3502694Y1654307D01*
X3491747Y1658842D01*
X3480000Y1660388D01*
D02*
G37*
G36*
X3444836Y1643093D02*
X3440693Y1637694D01*
X3436158Y1626747D01*
X3434612Y1615000D01*
X3436158Y1603253D01*
X3440693Y1592306D01*
X3444836Y1586907D01*
X3472929Y1615000D01*
X3444836Y1643093D01*
D02*
G37*
G36*
X3515164D02*
X3487071Y1615000D01*
X3515164Y1586907D01*
X3519307Y1592306D01*
X3523842Y1603253D01*
X3525388Y1615000D01*
X3523842Y1626747D01*
X3519307Y1637694D01*
X3515164Y1643093D01*
D02*
G37*
G36*
X3480000Y1607929D02*
X3451907Y1579836D01*
X3457306Y1575693D01*
X3468253Y1571158D01*
X3480000Y1569612D01*
X3491747Y1571158D01*
X3502694Y1575693D01*
X3508093Y1579836D01*
X3480000Y1607929D01*
D02*
G37*
G36*
X3620000Y1579056D02*
X3610452Y1577799D01*
X3601555Y1574113D01*
X3593914Y1568251D01*
X3588052Y1560611D01*
X3584367Y1551713D01*
X3583110Y1542165D01*
X3584367Y1532618D01*
X3588052Y1523720D01*
X3593914Y1516080D01*
X3601555Y1510217D01*
X3610452Y1506532D01*
X3620000Y1505275D01*
X3629548Y1506532D01*
X3638445Y1510217D01*
X3646086Y1516080D01*
X3651948Y1523720D01*
X3655633Y1532618D01*
X3656890Y1542165D01*
X3655633Y1551713D01*
X3651948Y1560611D01*
X3646086Y1568251D01*
X3638445Y1574113D01*
X3629548Y1577799D01*
X3620000Y1579056D01*
D02*
G37*
G36*
X3415000Y1536818D02*
X3402883Y1535223D01*
X3391591Y1530545D01*
X3381895Y1523105D01*
X3374455Y1513409D01*
X3369778Y1502117D01*
X3368182Y1490000D01*
X3369778Y1477883D01*
X3374455Y1466591D01*
X3381895Y1456895D01*
X3391591Y1449455D01*
X3402883Y1444777D01*
X3415000Y1443182D01*
X3427117Y1444777D01*
X3438409Y1449455D01*
X3448105Y1456895D01*
X3455545Y1466591D01*
X3460222Y1477883D01*
X3461818Y1490000D01*
X3460222Y1502117D01*
X3455545Y1513409D01*
X3448105Y1523105D01*
X3438409Y1530545D01*
X3427117Y1535223D01*
X3415000Y1536818D01*
D02*
G37*
G36*
X5012500Y1382500D02*
X4927500D01*
Y1297500D01*
X5012500D01*
Y1382500D01*
D02*
G37*
G36*
X4975000Y1282208D02*
Y1245000D01*
X5012208D01*
X5011406Y1251095D01*
X5007124Y1261433D01*
X5000311Y1270311D01*
X4991433Y1277124D01*
X4981095Y1281406D01*
X4975000Y1282208D01*
D02*
G37*
G36*
X4965000D02*
X4958905Y1281406D01*
X4948567Y1277124D01*
X4939689Y1270311D01*
X4932876Y1261433D01*
X4928594Y1251095D01*
X4927792Y1245000D01*
X4965000D01*
Y1282208D01*
D02*
G37*
G36*
X3461417Y1336417D02*
X3368583D01*
Y1243583D01*
X3461417D01*
Y1336417D01*
D02*
G37*
G36*
X4729528Y1279527D02*
X4650472D01*
Y1200473D01*
X4729528D01*
Y1279527D01*
D02*
G37*
G36*
X4790000Y1279869D02*
X4779681Y1278510D01*
X4770066Y1274527D01*
X4761809Y1268191D01*
X4755473Y1259934D01*
X4751490Y1250319D01*
X4750131Y1240000D01*
X4751490Y1229681D01*
X4755473Y1220066D01*
X4761809Y1211809D01*
X4770066Y1205473D01*
X4779681Y1201490D01*
X4790000Y1200131D01*
X4800319Y1201490D01*
X4809934Y1205473D01*
X4818191Y1211809D01*
X4824527Y1220066D01*
X4828510Y1229681D01*
X4829869Y1240000D01*
X4828510Y1250319D01*
X4824527Y1259934D01*
X4818191Y1268191D01*
X4809934Y1274527D01*
X4800319Y1278510D01*
X4790000Y1279869D01*
D02*
G37*
G36*
X4530000Y1225388D02*
X4518253Y1223842D01*
X4507306Y1219307D01*
X4501907Y1215164D01*
X4530000Y1187071D01*
X4558093Y1215164D01*
X4552694Y1219307D01*
X4541747Y1223842D01*
X4530000Y1225388D01*
D02*
G37*
G36*
X4494836Y1208093D02*
X4490693Y1202694D01*
X4486158Y1191747D01*
X4484612Y1180000D01*
X4486158Y1168253D01*
X4490693Y1157306D01*
X4494836Y1151907D01*
X4522929Y1180000D01*
X4494836Y1208093D01*
D02*
G37*
G36*
X4565164D02*
X4537071Y1180000D01*
X4565164Y1151907D01*
X4569307Y1157306D01*
X4573842Y1168253D01*
X4575388Y1180000D01*
X4573842Y1191747D01*
X4569307Y1202694D01*
X4565164Y1208093D01*
D02*
G37*
G36*
X3656575Y1224409D02*
X3583425D01*
Y1151260D01*
X3656575D01*
Y1224409D01*
D02*
G37*
G36*
X4530000Y1172929D02*
X4501907Y1144836D01*
X4507306Y1140693D01*
X4518253Y1136158D01*
X4530000Y1134612D01*
X4541747Y1136158D01*
X4552694Y1140693D01*
X4558093Y1144836D01*
X4530000Y1172929D01*
D02*
G37*
G36*
X5012208Y1235000D02*
X4970000D01*
X4927792D01*
X4928594Y1228905D01*
X4932876Y1218567D01*
X4939689Y1209689D01*
X4948567Y1202876D01*
X4955850Y1199859D01*
X4955000Y1196464D01*
Y1115000D01*
X5034919D01*
X5033770Y1126663D01*
X5028910Y1142686D01*
X5021017Y1157452D01*
X5010395Y1170395D01*
X4997452Y1181017D01*
X4982685Y1188910D01*
X4971535Y1192292D01*
X4971953Y1197390D01*
X4981095Y1198594D01*
X4991433Y1202876D01*
X5000311Y1209689D01*
X5007124Y1218567D01*
X5011406Y1228905D01*
X5012208Y1235000D01*
D02*
G37*
G36*
X4945000Y1194919D02*
X4933337Y1193770D01*
X4917315Y1188910D01*
X4902548Y1181017D01*
X4889605Y1170395D01*
X4878983Y1157452D01*
X4871090Y1142686D01*
X4866230Y1126663D01*
X4865081Y1115000D01*
X4945000D01*
Y1194919D01*
D02*
G37*
G36*
X3395000D02*
Y1115000D01*
X3474919D01*
X3473770Y1126663D01*
X3468910Y1142686D01*
X3461017Y1157452D01*
X3450395Y1170395D01*
X3437452Y1181017D01*
X3422686Y1188910D01*
X3406663Y1193770D01*
X3395000Y1194919D01*
D02*
G37*
G36*
X3385000D02*
X3373337Y1193770D01*
X3357314Y1188910D01*
X3342548Y1181017D01*
X3329605Y1170395D01*
X3318983Y1157452D01*
X3311090Y1142686D01*
X3306230Y1126663D01*
X3305081Y1115000D01*
X3385000D01*
Y1194919D01*
D02*
G37*
G36*
X5034919Y1105000D02*
X4955000D01*
Y1025081D01*
X4966663Y1026230D01*
X4982685Y1031090D01*
X4997452Y1038983D01*
X5010395Y1049605D01*
X5021017Y1062548D01*
X5028910Y1077314D01*
X5033770Y1093337D01*
X5034919Y1105000D01*
D02*
G37*
G36*
X4945000D02*
X4865081D01*
X4866230Y1093337D01*
X4871090Y1077314D01*
X4878983Y1062548D01*
X4889605Y1049605D01*
X4902548Y1038983D01*
X4917315Y1031090D01*
X4933337Y1026230D01*
X4945000Y1025081D01*
Y1105000D01*
D02*
G37*
G36*
X3474919D02*
X3395000D01*
Y1025081D01*
X3406663Y1026230D01*
X3422686Y1031090D01*
X3437452Y1038983D01*
X3450395Y1049605D01*
X3461017Y1062548D01*
X3468910Y1077314D01*
X3473770Y1093337D01*
X3474919Y1105000D01*
D02*
G37*
G36*
X3385000D02*
X3305081D01*
X3306230Y1093337D01*
X3311090Y1077314D01*
X3318983Y1062548D01*
X3329605Y1049605D01*
X3342548Y1038983D01*
X3357314Y1031090D01*
X3373337Y1026230D01*
X3385000Y1025081D01*
Y1105000D01*
D02*
G37*
%LPD*%
D15*
X3785544Y1665000D02*
X3895000D01*
X3775000Y1654456D02*
X3785544Y1665000D01*
X3775000Y1320000D02*
Y1654456D01*
X3395000Y1750000D02*
X3555000Y1910000D01*
X3705000D02*
X3765000Y1970000D01*
X3555000Y1910000D02*
X3705000D01*
X3765000Y1310000D02*
X3775000Y1320000D01*
X3765000Y1300000D02*
Y1310000D01*
D16*
X4950000Y1110000D02*
D03*
X3390000D02*
D03*
X4950000Y3050000D02*
D03*
X3390000D02*
D03*
D17*
X4690000Y1240000D02*
D03*
D18*
X4790000D02*
D03*
D19*
X3480000Y1615000D02*
D03*
X4530000Y1180000D02*
D03*
X4410000Y2485000D02*
D03*
D20*
X3415000Y1290000D02*
D03*
D21*
Y1490000D02*
D03*
D22*
X3620000Y1187835D02*
D03*
D23*
Y1542165D02*
D03*
D24*
X3590728Y2149370D02*
D03*
D25*
Y2070630D02*
D03*
D26*
X3505000Y2846378D02*
D03*
Y2440000D02*
D03*
D27*
X3605000Y2946378D02*
D03*
X3705000Y2846378D02*
D03*
X3605000Y2540000D02*
D03*
X3705000Y2440000D02*
D03*
D28*
X4970000Y1340000D02*
D03*
D29*
Y1240000D02*
D03*
X4960000Y1775000D02*
D03*
D30*
Y1675000D02*
D03*
D31*
X3420000Y1965000D02*
D03*
X3895000Y1665000D02*
D03*
X3765000Y1970000D02*
D03*
X3395000Y1750000D02*
D03*
X3775000Y1535000D02*
D03*
Y1300000D02*
D03*
%TF.MD5,b139e53122cb549e546a545b41217614*%
M02*
