%TF.GenerationSoftware,Altium Limited,Altium Designer,20.0.10 (225)*%
G04 Layer_Color=32896*
%FSLAX26Y26*%
%MOIN*%
%TF.FileFunction,Legend,Bot*%
%TF.Part,Single*%
G01*
G75*
%TA.AperFunction,NonConductor*%
%ADD32R,0.230000X0.735000*%
G36*
X5010000Y1189939D02*
D01*
Y1113292D01*
X4216038D01*
X5010000D01*
Y1035000D01*
X3315000D01*
Y1113292D01*
D01*
Y1189939D01*
D01*
Y1321262D01*
X5010000D01*
Y1189939D01*
D02*
G37*
%LPC*%
G36*
X4048396Y1242110D02*
X4042070D01*
Y1232973D01*
Y1234925D01*
X4048396D01*
Y1242110D01*
D02*
G37*
G36*
X4287304Y1242110D02*
X4280978D01*
Y1232816D01*
Y1234925D01*
X4287304D01*
Y1242110D01*
D02*
G37*
G36*
X4086118Y1228833D02*
X4071363D01*
X4086118D01*
D01*
D02*
G37*
G36*
X4310890Y1240939D02*
Y1227974D01*
X4306204D01*
Y1237112D01*
X4299878Y1240939D01*
Y1227974D01*
X4293552D01*
Y1223054D01*
X4299878D01*
Y1201264D01*
Y1201186D01*
Y1200873D01*
Y1200405D01*
X4299800Y1199858D01*
X4299722Y1198687D01*
X4299644Y1198218D01*
X4299565Y1197828D01*
X4299487Y1197671D01*
X4299331Y1197359D01*
X4299019Y1196968D01*
X4298550Y1196578D01*
X4298394Y1196500D01*
X4298003Y1196422D01*
X4297301Y1196265D01*
X4296363Y1196187D01*
X4295582D01*
X4295192Y1196265D01*
X4294723D01*
X4293552Y1196422D01*
X4292693Y1190877D01*
X4292849D01*
X4293161Y1190799D01*
X4293630Y1190720D01*
X4294333Y1190642D01*
X4295036Y1190486D01*
X4295817Y1190408D01*
X4297457Y1190330D01*
X4310890D01*
Y1240939D01*
D02*
G37*
G36*
X4287304Y1233129D02*
Y1227974D01*
X4280978D01*
D01*
Y1190799D01*
X4287304D01*
Y1233129D01*
D02*
G37*
G36*
X4048396Y1232270D02*
Y1227974D01*
X4042070D01*
D01*
Y1190798D01*
X4048396D01*
Y1232270D01*
D02*
G37*
G36*
X3964438Y1240939D02*
Y1227974D01*
X3959752D01*
Y1237112D01*
X3953426Y1240939D01*
Y1227974D01*
X3947100D01*
Y1223054D01*
X3953426D01*
Y1201264D01*
Y1201186D01*
Y1200873D01*
Y1200405D01*
X3953348Y1199858D01*
X3953270Y1198687D01*
X3953192Y1198218D01*
X3953114Y1197827D01*
X3953036Y1197671D01*
X3952880Y1197359D01*
X3952567Y1196968D01*
X3952099Y1196578D01*
X3951942Y1196500D01*
X3951552Y1196422D01*
X3950849Y1196265D01*
X3949912Y1196187D01*
X3949131D01*
X3948740Y1196265D01*
X3948272D01*
X3947100Y1196422D01*
X3946241Y1190877D01*
X3946397D01*
X3946710Y1190798D01*
X3947178Y1190720D01*
X3947881Y1190642D01*
X3948584Y1190486D01*
X3949365Y1190408D01*
X3951005Y1190330D01*
X3964438D01*
Y1240939D01*
D02*
G37*
G36*
X4053863Y1225397D02*
Y1225397D01*
D01*
Y1225397D01*
D02*
G37*
G36*
X4406797Y1228833D02*
Y1227974D01*
X4401096D01*
Y1222429D01*
X4401017Y1222507D01*
X4400705Y1222976D01*
X4400315Y1223679D01*
X4399846Y1224460D01*
X4399221Y1225319D01*
X4398518Y1226178D01*
X4397893Y1226959D01*
X4397190Y1227505D01*
X4397112Y1227584D01*
X4396878Y1227740D01*
X4396488Y1227896D01*
X4395941Y1228208D01*
X4395394Y1228443D01*
X4394691Y1228599D01*
X4393910Y1228755D01*
X4393129Y1228833D01*
X4406797D01*
X4386647D01*
X4392583D01*
X4391958Y1228755D01*
X4391099Y1228599D01*
X4390162Y1228286D01*
X4389068Y1227974D01*
X4387897Y1227427D01*
X4386647Y1226725D01*
X4388912Y1220945D01*
X4388990Y1221023D01*
X4389302Y1221179D01*
X4389771Y1221414D01*
X4390318Y1221648D01*
X4391021Y1221882D01*
X4391802Y1222117D01*
X4392661Y1222273D01*
X4393520Y1222351D01*
X4393832D01*
X4394223Y1222273D01*
X4394769Y1222195D01*
X4395316Y1222039D01*
X4395941Y1221804D01*
X4396566Y1221492D01*
X4397190Y1221101D01*
X4397269Y1221023D01*
X4397425Y1220867D01*
X4397737Y1220555D01*
X4398050Y1220164D01*
X4398440Y1219696D01*
X4398831Y1219071D01*
X4399143Y1218368D01*
X4399455Y1217587D01*
X4399533Y1217431D01*
X4399612Y1217040D01*
X4399768Y1216337D01*
X4399924Y1215400D01*
X4400158Y1214307D01*
X4400315Y1213057D01*
X4400393Y1211729D01*
X4400471Y1210245D01*
Y1190799D01*
X4406797D01*
Y1228833D01*
D02*
G37*
G36*
X3901099Y1228833D02*
Y1227974D01*
X3895398D01*
Y1222429D01*
X3895320Y1222507D01*
X3895008Y1222976D01*
X3894617Y1223678D01*
X3894148Y1224459D01*
X3893524Y1225319D01*
X3892821Y1226178D01*
X3892196Y1226959D01*
X3891493Y1227505D01*
X3891415Y1227583D01*
X3891181Y1227740D01*
X3890790Y1227896D01*
X3890243Y1228208D01*
X3889697Y1228443D01*
X3888994Y1228599D01*
X3888213Y1228755D01*
X3887432Y1228833D01*
X3901099D01*
X3880950D01*
X3886885D01*
X3886260Y1228755D01*
X3885401Y1228599D01*
X3884464Y1228286D01*
X3883371Y1227974D01*
X3882199Y1227427D01*
X3880950Y1226724D01*
X3883214Y1220945D01*
X3883293Y1221023D01*
X3883605Y1221179D01*
X3884073Y1221414D01*
X3884620Y1221648D01*
X3885323Y1221882D01*
X3886104Y1222117D01*
X3886963Y1222273D01*
X3887822Y1222351D01*
X3888135D01*
X3888525Y1222273D01*
X3889072Y1222195D01*
X3889619Y1222038D01*
X3890243Y1221804D01*
X3890868Y1221492D01*
X3891493Y1221101D01*
X3891571Y1221023D01*
X3891727Y1220867D01*
X3892040Y1220554D01*
X3892352Y1220164D01*
X3892743Y1219695D01*
X3893133Y1219071D01*
X3893445Y1218368D01*
X3893758Y1217587D01*
X3893836Y1217430D01*
X3893914Y1217040D01*
X3894070Y1216337D01*
X3894227Y1215400D01*
X3894461Y1214306D01*
X3894617Y1213057D01*
X3894695Y1211729D01*
X3894773Y1210245D01*
Y1190798D01*
X3901099D01*
Y1228833D01*
D02*
G37*
G36*
X4053863Y1220945D02*
Y1220945D01*
D01*
Y1220945D01*
D02*
G37*
G36*
Y1218758D02*
Y1218680D01*
D01*
Y1218758D01*
D02*
G37*
G36*
X4385085Y1228833D02*
X4350877D01*
X4366497D01*
X4365638Y1228755D01*
X4364545Y1228677D01*
X4363295Y1228521D01*
X4361967Y1228365D01*
X4360718Y1228052D01*
X4359546Y1227662D01*
X4359390Y1227584D01*
X4359078Y1227505D01*
X4358531Y1227193D01*
X4357906Y1226881D01*
X4357203Y1226490D01*
X4356422Y1226022D01*
X4355797Y1225475D01*
X4355173Y1224850D01*
X4355095Y1224772D01*
X4354938Y1224538D01*
X4354704Y1224225D01*
X4354392Y1223679D01*
X4354079Y1223054D01*
X4353767Y1222351D01*
X4353454Y1221492D01*
X4353220Y1220555D01*
Y1220476D01*
X4353142Y1220242D01*
X4353064Y1219852D01*
X4352986Y1219227D01*
Y1218446D01*
X4352908Y1217431D01*
X4352830Y1216259D01*
Y1214775D01*
Y1206340D01*
Y1206262D01*
Y1205950D01*
Y1205481D01*
Y1204935D01*
Y1204232D01*
Y1203451D01*
X4352752Y1201654D01*
Y1199702D01*
X4352673Y1197906D01*
X4352595Y1197046D01*
Y1196344D01*
X4352517Y1195719D01*
X4352439Y1195172D01*
Y1195094D01*
X4352361Y1194782D01*
X4352283Y1194313D01*
X4352127Y1193766D01*
X4351892Y1193141D01*
X4351580Y1192361D01*
X4350877Y1190799D01*
X4357438D01*
X4357516Y1190877D01*
X4357594Y1191111D01*
X4357750Y1191580D01*
X4357984Y1192126D01*
X4358219Y1192829D01*
X4358375Y1193610D01*
X4358531Y1194469D01*
X4358687Y1195485D01*
X4358843Y1195328D01*
X4359312Y1195016D01*
X4359937Y1194469D01*
X4360874Y1193844D01*
X4361889Y1193063D01*
X4363061Y1192361D01*
X4364232Y1191736D01*
X4365482Y1191189D01*
X4365638Y1191111D01*
X4366029Y1191033D01*
X4366653Y1190799D01*
X4367512Y1190564D01*
X4368606Y1190330D01*
X4369777Y1190174D01*
X4371027Y1190017D01*
X4372431Y1189939D01*
X4372980D01*
X4373448Y1190017D01*
X4373917D01*
X4374542Y1190096D01*
X4375869Y1190330D01*
X4377431Y1190642D01*
X4378915Y1191189D01*
X4380477Y1191892D01*
X4381805Y1192907D01*
X4381961Y1193063D01*
X4382351Y1193454D01*
X4382820Y1194079D01*
X4383445Y1195016D01*
X4384070Y1196109D01*
X4384538Y1197359D01*
X4384929Y1198921D01*
X4385085Y1200561D01*
Y1201030D01*
X4385007Y1201576D01*
X4384929Y1202201D01*
X4384773Y1202982D01*
X4384616Y1203841D01*
X4384304Y1204700D01*
X4383913Y1205559D01*
X4383835Y1205638D01*
X4383679Y1205950D01*
X4383445Y1206340D01*
X4383054Y1206887D01*
X4382586Y1207434D01*
X4381961Y1208059D01*
X4381336Y1208605D01*
X4380633Y1209152D01*
X4380555Y1209230D01*
X4380243Y1209386D01*
X4379852Y1209621D01*
X4379306Y1209933D01*
X4378603Y1210323D01*
X4377900Y1210636D01*
X4377041Y1210948D01*
X4376104Y1211261D01*
X4376025D01*
X4375713Y1211339D01*
X4375323Y1211417D01*
X4374698Y1211573D01*
X4373917Y1211729D01*
X4372901Y1211886D01*
X4371808Y1212042D01*
X4370480Y1212198D01*
X4370402D01*
X4370168Y1212276D01*
X4369777D01*
X4369231Y1212354D01*
X4368606Y1212432D01*
X4367903Y1212510D01*
X4366185Y1212823D01*
X4364389Y1213135D01*
X4362514Y1213447D01*
X4360718Y1213916D01*
X4359937Y1214150D01*
X4359234Y1214385D01*
Y1214463D01*
Y1214619D01*
X4359156Y1215088D01*
Y1215634D01*
Y1215869D01*
Y1216025D01*
Y1216103D01*
Y1216181D01*
Y1216650D01*
X4359234Y1217352D01*
X4359390Y1218133D01*
X4359624Y1218993D01*
X4359937Y1219930D01*
X4360327Y1220711D01*
X4360952Y1221414D01*
X4361030Y1221492D01*
X4361421Y1221726D01*
X4361967Y1222117D01*
X4362748Y1222507D01*
X4363764Y1222898D01*
X4365013Y1223288D01*
X4366497Y1223522D01*
X4368137Y1223601D01*
X4368840D01*
X4369621Y1223522D01*
X4370636Y1223444D01*
X4371730Y1223210D01*
X4372745Y1222976D01*
X4373839Y1222585D01*
X4374698Y1222039D01*
X4374776Y1221960D01*
X4375010Y1221726D01*
X4375401Y1221336D01*
X4375869Y1220789D01*
X4376416Y1220008D01*
X4376885Y1219071D01*
X4377431Y1217899D01*
X4377822Y1216572D01*
X4383992Y1217431D01*
Y1217509D01*
X4383913Y1217587D01*
X4383835Y1218055D01*
X4383601Y1218758D01*
X4383367Y1219696D01*
X4382976Y1220711D01*
X4382508Y1221726D01*
X4381961Y1222820D01*
X4381258Y1223757D01*
X4381180Y1223835D01*
X4380868Y1224147D01*
X4380477Y1224616D01*
X4379852Y1225162D01*
X4379071Y1225709D01*
X4378056Y1226334D01*
X4376963Y1226959D01*
X4375713Y1227505D01*
X4375635D01*
X4375557Y1227584D01*
X4375323Y1227662D01*
X4375088Y1227740D01*
X4374307Y1227896D01*
X4373292Y1228208D01*
X4372042Y1228443D01*
X4370636Y1228599D01*
X4368996Y1228755D01*
X4367278Y1228833D01*
X4385085D01*
D02*
G37*
G36*
X4002785Y1228833D02*
X3968578D01*
X3984198D01*
X3983339Y1228755D01*
X3982245Y1228677D01*
X3980996Y1228521D01*
X3979668Y1228364D01*
X3978418Y1228052D01*
X3977247Y1227662D01*
X3977091Y1227583D01*
X3976778Y1227505D01*
X3976231Y1227193D01*
X3975607Y1226881D01*
X3974904Y1226490D01*
X3974123Y1226022D01*
X3973498Y1225475D01*
X3972873Y1224850D01*
X3972795Y1224772D01*
X3972639Y1224538D01*
X3972405Y1224225D01*
X3972092Y1223678D01*
X3971780Y1223054D01*
X3971467Y1222351D01*
X3971155Y1221492D01*
X3970921Y1220554D01*
Y1220476D01*
X3970843Y1220242D01*
X3970765Y1219852D01*
X3970686Y1219227D01*
Y1218446D01*
X3970608Y1217430D01*
X3970530Y1216259D01*
Y1214775D01*
Y1206340D01*
Y1206262D01*
Y1205950D01*
Y1205481D01*
Y1204935D01*
Y1204232D01*
Y1203451D01*
X3970452Y1201654D01*
Y1199702D01*
X3970374Y1197906D01*
X3970296Y1197046D01*
Y1196343D01*
X3970218Y1195719D01*
X3970140Y1195172D01*
Y1195094D01*
X3970062Y1194782D01*
X3969983Y1194313D01*
X3969827Y1193766D01*
X3969593Y1193141D01*
X3969281Y1192360D01*
X3968578Y1190798D01*
D01*
X3975138D01*
X3975216Y1190877D01*
X3975294Y1191111D01*
X3975450Y1191579D01*
X3975685Y1192126D01*
X3975919Y1192829D01*
X3976075Y1193610D01*
X3976231Y1194469D01*
X3976388Y1195484D01*
X3976544Y1195328D01*
X3977012Y1195016D01*
X3977637Y1194469D01*
X3978575Y1193844D01*
X3979590Y1193063D01*
X3980761Y1192360D01*
X3981933Y1191736D01*
X3983182Y1191189D01*
X3983339Y1191111D01*
X3983729Y1191033D01*
X3984354Y1190798D01*
X3985213Y1190564D01*
X3986306Y1190330D01*
X3987478Y1190174D01*
X3988727Y1190017D01*
X3990130Y1189939D01*
X3990681D01*
X3991149Y1190017D01*
X3991617D01*
X3992242Y1190095D01*
X3993570Y1190330D01*
X3995132Y1190642D01*
X3996616Y1191189D01*
X3998178Y1191892D01*
X3999505Y1192907D01*
X3999662Y1193063D01*
X4000052Y1193454D01*
X4000521Y1194079D01*
X4001145Y1195016D01*
X4001770Y1196109D01*
X4002239Y1197359D01*
X4002629Y1198921D01*
X4002785Y1200561D01*
Y1201030D01*
Y1201030D01*
X4002707Y1201576D01*
X4002629Y1202201D01*
X4002473Y1202982D01*
X4002317Y1203841D01*
X4002005Y1204700D01*
X4001614Y1205559D01*
X4001536Y1205637D01*
X4001380Y1205950D01*
X4001145Y1206340D01*
X4000755Y1206887D01*
X4000286Y1207434D01*
X3999662Y1208059D01*
X3999037Y1208605D01*
X3998334Y1209152D01*
X3998256Y1209230D01*
X3997943Y1209386D01*
X3997553Y1209620D01*
X3997006Y1209933D01*
X3996303Y1210323D01*
X3995600Y1210636D01*
X3994741Y1210948D01*
X3993804Y1211261D01*
X3993726D01*
X3993414Y1211339D01*
X3993023Y1211417D01*
X3992398Y1211573D01*
X3991617Y1211729D01*
X3990602Y1211885D01*
X3989508Y1212042D01*
X3988181Y1212198D01*
X3988103D01*
X3987868Y1212276D01*
X3987478D01*
X3986931Y1212354D01*
X3986306Y1212432D01*
X3985604Y1212510D01*
X3983885Y1212823D01*
X3982089Y1213135D01*
X3980215Y1213447D01*
X3978418Y1213916D01*
X3977637Y1214150D01*
X3976934Y1214385D01*
Y1214463D01*
Y1214619D01*
X3976856Y1215088D01*
Y1215634D01*
Y1215869D01*
Y1216025D01*
Y1216103D01*
Y1216181D01*
Y1216649D01*
X3976934Y1217352D01*
X3977091Y1218133D01*
X3977325Y1218993D01*
X3977637Y1219930D01*
X3978028Y1220711D01*
X3978653Y1221414D01*
X3978731Y1221492D01*
X3979121Y1221726D01*
X3979668Y1222117D01*
X3980449Y1222507D01*
X3981464Y1222898D01*
X3982714Y1223288D01*
X3984198Y1223522D01*
X3985838Y1223600D01*
X3986541D01*
X3987322Y1223522D01*
X3988337Y1223444D01*
X3989430Y1223210D01*
X3990446Y1222976D01*
X3991539Y1222585D01*
X3992398Y1222038D01*
X3992476Y1221960D01*
X3992711Y1221726D01*
X3993101Y1221335D01*
X3993570Y1220789D01*
X3994116Y1220008D01*
X3994585Y1219071D01*
X3995132Y1217899D01*
X3995522Y1216571D01*
X4001692Y1217430D01*
Y1217509D01*
X4001614Y1217587D01*
X4001536Y1218055D01*
X4001302Y1218758D01*
X4001067Y1219695D01*
X4000677Y1220711D01*
X4000208Y1221726D01*
X3999662Y1222819D01*
X3998959Y1223757D01*
X3998881Y1223835D01*
X3998568Y1224147D01*
X3998178Y1224616D01*
X3997553Y1225162D01*
X3996772Y1225709D01*
X3995756Y1226334D01*
X3994663Y1226959D01*
X3993414Y1227505D01*
X3993335D01*
X3993257Y1227583D01*
X3993023Y1227662D01*
X3992789Y1227740D01*
X3992008Y1227896D01*
X3990992Y1228208D01*
X3989743Y1228443D01*
X3988337Y1228599D01*
X3986697Y1228755D01*
X3984979Y1228833D01*
X4002785D01*
D02*
G37*
G36*
X4152581Y1242969D02*
X4128058Y1242969D01*
X4151878D01*
X4151410Y1242891D01*
X4150785D01*
X4150004Y1242813D01*
X4149223Y1242657D01*
X4148286Y1242579D01*
X4146333Y1242110D01*
X4144146Y1241485D01*
X4141960Y1240704D01*
X4140866Y1240158D01*
X4139773Y1239533D01*
X4139695D01*
X4139539Y1239377D01*
X4139226Y1239220D01*
X4138836Y1238908D01*
X4138367Y1238596D01*
X4137820Y1238127D01*
X4136571Y1237112D01*
X4135165Y1235784D01*
X4133681Y1234144D01*
X4132353Y1232270D01*
X4131104Y1230083D01*
Y1230005D01*
X4130948Y1229770D01*
X4130791Y1229458D01*
X4130635Y1228989D01*
X4130401Y1228443D01*
X4130167Y1227740D01*
X4129854Y1226959D01*
X4129542Y1226100D01*
X4129307Y1225084D01*
X4128995Y1224069D01*
X4128526Y1221726D01*
X4128214Y1219149D01*
X4128058Y1216337D01*
Y1216962D01*
Y1215556D01*
X4128136Y1215009D01*
Y1214306D01*
X4128214Y1213525D01*
X4128292Y1212666D01*
X4128448Y1211651D01*
X4128839Y1209464D01*
X4129386Y1207121D01*
X4130167Y1204700D01*
X4131260Y1202357D01*
Y1202279D01*
X4131416Y1202123D01*
X4131572Y1201811D01*
X4131807Y1201342D01*
X4132197Y1200873D01*
X4132588Y1200248D01*
X4133525Y1198921D01*
X4134775Y1197437D01*
X4136337Y1195875D01*
X4138133Y1194391D01*
X4140163Y1193063D01*
X4140242D01*
X4140398Y1192907D01*
X4140710Y1192751D01*
X4141179Y1192595D01*
X4141725Y1192360D01*
X4142350Y1192048D01*
X4143053Y1191814D01*
X4143912Y1191501D01*
X4145708Y1190955D01*
X4147817Y1190408D01*
X4150160Y1190095D01*
X4152579Y1189939D01*
X4153285D01*
X4153831Y1190017D01*
X4154456D01*
X4155159Y1190096D01*
X4156018Y1190252D01*
X4156955Y1190408D01*
X4158907Y1190799D01*
X4161094Y1191423D01*
X4163359Y1192282D01*
X4164453Y1192751D01*
X4165546Y1193376D01*
X4165624Y1193454D01*
X4165780Y1193532D01*
X4166093Y1193766D01*
X4166483Y1194001D01*
X4166952Y1194391D01*
X4167498Y1194782D01*
X4168748Y1195875D01*
X4170154Y1197281D01*
X4171638Y1198843D01*
X4172965Y1200795D01*
X4174215Y1202904D01*
Y1202982D01*
X4174371Y1203216D01*
X4174449Y1203529D01*
X4174684Y1203997D01*
X4174918Y1204544D01*
X4175152Y1205169D01*
X4175386Y1205950D01*
X4175621Y1206809D01*
X4175933Y1207746D01*
X4176167Y1208683D01*
X4176636Y1210870D01*
X4176949Y1213213D01*
X4177105Y1215712D01*
Y1190252D01*
Y1216259D01*
X4177027Y1216962D01*
Y1217821D01*
X4176870Y1218915D01*
X4176714Y1220164D01*
X4176558Y1221492D01*
X4176246Y1223054D01*
X4175855Y1224616D01*
X4175465Y1226256D01*
X4174918Y1227896D01*
X4174215Y1229536D01*
X4173434Y1231176D01*
X4172575Y1232816D01*
X4171481Y1234300D01*
X4170310Y1235706D01*
X4170232Y1235784D01*
X4169998Y1236018D01*
X4169607Y1236409D01*
X4169060Y1236878D01*
X4168358Y1237424D01*
X4167577Y1237971D01*
X4166639Y1238674D01*
X4165546Y1239377D01*
X4164296Y1240002D01*
X4162969Y1240704D01*
X4161485Y1241251D01*
X4159923Y1241876D01*
X4158283Y1242266D01*
X4156486Y1242657D01*
X4154534Y1242891D01*
X4152581Y1242969D01*
D02*
G37*
G36*
X3746774Y1242344D02*
X3746071D01*
X3745290Y1242266D01*
X3744353Y1242110D01*
X3743259Y1241954D01*
X3742010Y1241641D01*
X3740760Y1241173D01*
X3739588Y1240626D01*
X3739432Y1240548D01*
X3739042Y1240314D01*
X3738495Y1239923D01*
X3737714Y1239455D01*
X3736933Y1238752D01*
X3736074Y1237893D01*
X3735215Y1236956D01*
X3734434Y1235862D01*
X3734356Y1235706D01*
X3734122Y1235315D01*
X3733731Y1234612D01*
X3733262Y1233753D01*
X3732794Y1232660D01*
X3732247Y1231332D01*
X3731700Y1229848D01*
X3731232Y1228208D01*
Y1228130D01*
X3731154Y1227974D01*
Y1227740D01*
X3731076Y1227349D01*
X3730919Y1226959D01*
X3730841Y1226412D01*
X3730763Y1225709D01*
X3730607Y1225006D01*
X3730529Y1224147D01*
X3730451Y1223288D01*
X3730295Y1222273D01*
X3730216Y1221179D01*
X3730138Y1220008D01*
Y1218836D01*
X3730060Y1216103D01*
D01*
Y1214619D01*
X3730138Y1213838D01*
Y1212979D01*
X3730216Y1211964D01*
X3730295Y1210870D01*
X3730529Y1208527D01*
X3730841Y1206106D01*
X3731310Y1203685D01*
X3731622Y1202591D01*
X3731935Y1201498D01*
Y1201420D01*
X3732013Y1201264D01*
X3732091Y1200951D01*
X3732247Y1200561D01*
X3732481Y1200092D01*
X3732716Y1199624D01*
X3733340Y1198374D01*
X3734122Y1196968D01*
X3735059Y1195562D01*
X3736152Y1194157D01*
X3737480Y1192907D01*
X3737558D01*
X3737636Y1192751D01*
X3737870Y1192673D01*
X3738105Y1192438D01*
X3738964Y1191970D01*
X3739979Y1191423D01*
X3741385Y1190877D01*
X3742947Y1190408D01*
X3744743Y1190095D01*
X3746771Y1189939D01*
X3747478D01*
X3748023Y1190017D01*
X3748648Y1190095D01*
X3749351Y1190252D01*
X3750132Y1190408D01*
X3750991Y1190564D01*
X3752865Y1191189D01*
X3753881Y1191658D01*
X3754818Y1192126D01*
X3755833Y1192751D01*
X3756771Y1193454D01*
X3757630Y1194235D01*
X3758489Y1195172D01*
X3758567Y1195250D01*
X3758723Y1195484D01*
X3758957Y1195875D01*
X3759270Y1196422D01*
X3759660Y1197124D01*
X3760051Y1197984D01*
X3760519Y1198999D01*
X3760988Y1200248D01*
X3761456Y1201576D01*
X3761925Y1203138D01*
X3762316Y1204856D01*
X3762706Y1206731D01*
X3763019Y1208840D01*
X3763253Y1211026D01*
X3763409Y1213525D01*
X3763487Y1216103D01*
Y1190017D01*
Y1217587D01*
X3763409Y1218368D01*
Y1219227D01*
X3763331Y1220242D01*
X3763253Y1221335D01*
X3763019Y1223678D01*
X3762706Y1226100D01*
X3762316Y1228521D01*
X3762003Y1229614D01*
X3761691Y1230707D01*
Y1230786D01*
X3761613Y1230942D01*
X3761456Y1231254D01*
X3761300Y1231645D01*
X3761144Y1232113D01*
X3760910Y1232660D01*
X3760285Y1233910D01*
X3759504Y1235315D01*
X3758567Y1236721D01*
X3757473Y1238049D01*
X3756146Y1239299D01*
X3756068D01*
X3755990Y1239455D01*
X3755755Y1239611D01*
X3755443Y1239767D01*
X3754662Y1240236D01*
X3753568Y1240861D01*
X3752241Y1241407D01*
X3750601Y1241876D01*
X3748804Y1242188D01*
X3746774Y1242344D01*
D02*
G37*
G36*
X4053863Y1214541D02*
Y1214463D01*
D01*
Y1214541D01*
D02*
G37*
G36*
Y1206340D02*
Y1206340D01*
D01*
Y1206340D01*
D02*
G37*
G36*
X4122669Y1228833D02*
X4107283D01*
X4106424Y1228755D01*
X4105409Y1228677D01*
X4104159Y1228521D01*
X4102910Y1228286D01*
X4101582Y1227974D01*
X4100332Y1227505D01*
X4100254D01*
X4100176Y1227427D01*
X4099786Y1227271D01*
X4099161Y1226959D01*
X4098458Y1226646D01*
X4097677Y1226100D01*
X4096818Y1225553D01*
X4096037Y1224850D01*
X4095412Y1224069D01*
X4095334Y1223991D01*
X4095178Y1223678D01*
X4094865Y1223210D01*
X4094475Y1222585D01*
X4094162Y1221804D01*
X4093772Y1220789D01*
X4093460Y1219695D01*
X4093147Y1218446D01*
X4099317Y1217587D01*
Y1217743D01*
X4099395Y1218055D01*
X4099551Y1218602D01*
X4099786Y1219227D01*
X4100098Y1219930D01*
X4100567Y1220633D01*
X4101113Y1221414D01*
X4101816Y1222038D01*
X4101894Y1222117D01*
X4102207Y1222273D01*
X4102675Y1222585D01*
X4103300Y1222898D01*
X4104081Y1223132D01*
X4105096Y1223444D01*
X4106190Y1223600D01*
X4107518Y1223678D01*
X4108221D01*
X4109002Y1223600D01*
X4109939Y1223522D01*
X4110954Y1223288D01*
X4111969Y1223054D01*
X4112985Y1222663D01*
X4113766Y1222195D01*
X4113844Y1222117D01*
X4114078Y1221960D01*
X4114312Y1221648D01*
X4114625Y1221257D01*
X4115015Y1220789D01*
X4115249Y1220164D01*
X4115484Y1219539D01*
X4115562Y1218836D01*
Y1218758D01*
Y1218602D01*
X4115484Y1218368D01*
Y1218055D01*
X4115249Y1217352D01*
X4114859Y1216571D01*
X4114781Y1216493D01*
X4114703Y1216415D01*
X4114234Y1216025D01*
X4113922Y1215712D01*
X4113531Y1215478D01*
X4112985Y1215166D01*
X4112438Y1214931D01*
X4112360D01*
X4112204Y1214853D01*
X4111891Y1214775D01*
X4111345Y1214619D01*
X4110642Y1214385D01*
X4109626Y1214072D01*
X4108377Y1213760D01*
X4107674Y1213525D01*
X4106815Y1213291D01*
X4106737D01*
X4106502Y1213213D01*
X4106190Y1213135D01*
X4105721Y1212979D01*
X4105175Y1212823D01*
X4104550Y1212666D01*
X4103144Y1212276D01*
X4101582Y1211807D01*
X4100020Y1211261D01*
X4098614Y1210792D01*
X4097989Y1210558D01*
X4097443Y1210323D01*
X4097287Y1210245D01*
X4096974Y1210089D01*
X4096506Y1209855D01*
X4095959Y1209542D01*
X4095256Y1209074D01*
X4094553Y1208449D01*
X4093928Y1207824D01*
X4093303Y1207043D01*
X4093225Y1206965D01*
X4093069Y1206653D01*
X4092835Y1206184D01*
X4092522Y1205559D01*
X4092210Y1204778D01*
X4091976Y1203841D01*
X4091820Y1202826D01*
X4091741Y1201654D01*
Y1201733D01*
Y1201654D01*
Y1189939D01*
Y1201108D01*
X4091820Y1200483D01*
X4091976Y1199780D01*
X4092210Y1198843D01*
X4092522Y1197827D01*
X4092991Y1196812D01*
X4093616Y1195719D01*
X4093694Y1195562D01*
X4093928Y1195250D01*
X4094397Y1194782D01*
X4095022Y1194157D01*
X4095724Y1193454D01*
X4096662Y1192751D01*
X4097755Y1192048D01*
X4099005Y1191423D01*
X4099161Y1191345D01*
X4099630Y1191189D01*
X4100332Y1190955D01*
X4101270Y1190720D01*
X4102441Y1190408D01*
X4103769Y1190174D01*
X4105253Y1190017D01*
X4106811Y1189939D01*
X4107519D01*
X4107986Y1190017D01*
X4108611D01*
X4109314Y1190095D01*
X4110954Y1190330D01*
X4112750Y1190642D01*
X4114547Y1191189D01*
X4116343Y1191892D01*
X4117124Y1192360D01*
X4117905Y1192907D01*
X4117983D01*
X4118061Y1193063D01*
X4118530Y1193454D01*
X4119154Y1194157D01*
X4119935Y1195172D01*
X4120717Y1196422D01*
X4121498Y1197984D01*
X4122200Y1199780D01*
X4122669Y1201889D01*
X4116421Y1202904D01*
Y1202826D01*
Y1202748D01*
X4116343Y1202279D01*
X4116109Y1201576D01*
X4115874Y1200717D01*
X4115484Y1199780D01*
X4115015Y1198843D01*
X4114312Y1197906D01*
X4113531Y1197046D01*
X4113453Y1196968D01*
X4113063Y1196734D01*
X4112516Y1196422D01*
X4111813Y1196109D01*
X4110798Y1195719D01*
X4109704Y1195406D01*
X4108299Y1195172D01*
X4106815Y1195094D01*
X4106112D01*
X4105331Y1195172D01*
X4104394Y1195328D01*
X4103300Y1195484D01*
X4102207Y1195797D01*
X4101191Y1196265D01*
X4100332Y1196812D01*
X4100254Y1196890D01*
X4100020Y1197124D01*
X4099630Y1197515D01*
X4099239Y1197984D01*
X4098927Y1198608D01*
X4098536Y1199389D01*
X4098302Y1200170D01*
X4098224Y1201030D01*
Y1201108D01*
Y1201420D01*
X4098302Y1201732D01*
X4098458Y1202279D01*
X4098692Y1202748D01*
X4099005Y1203372D01*
X4099473Y1203919D01*
X4100098Y1204388D01*
X4100176Y1204466D01*
X4100410Y1204544D01*
X4100801Y1204700D01*
X4101426Y1205013D01*
X4102285Y1205247D01*
X4103378Y1205637D01*
X4104081Y1205872D01*
X4104784Y1206028D01*
X4105643Y1206262D01*
X4106580Y1206496D01*
X4106658D01*
X4106893Y1206575D01*
X4107205Y1206653D01*
X4107674Y1206809D01*
X4108299Y1206965D01*
X4108923Y1207121D01*
X4110407Y1207590D01*
X4111969Y1208059D01*
X4113609Y1208527D01*
X4115093Y1209074D01*
X4115718Y1209308D01*
X4116265Y1209542D01*
X4116343Y1209620D01*
X4116733Y1209777D01*
X4117202Y1210089D01*
X4117749Y1210480D01*
X4118452Y1210948D01*
X4119076Y1211573D01*
X4119779Y1212276D01*
X4120326Y1213057D01*
X4120404Y1213135D01*
X4120560Y1213447D01*
X4120717Y1213916D01*
X4120951Y1214541D01*
X4121263Y1215244D01*
X4121419Y1216103D01*
X4121576Y1217040D01*
X4121654Y1218055D01*
Y1218133D01*
Y1218446D01*
X4121576Y1218993D01*
X4121498Y1219539D01*
X4121419Y1220242D01*
X4121185Y1221023D01*
X4120951Y1221882D01*
X4120560Y1222663D01*
X4120482Y1222741D01*
X4120326Y1223054D01*
X4120092Y1223444D01*
X4119701Y1223913D01*
X4119311Y1224459D01*
X4118764Y1225006D01*
X4118139Y1225631D01*
X4117436Y1226178D01*
X4117358Y1226256D01*
X4117124Y1226334D01*
X4116811Y1226568D01*
X4116343Y1226803D01*
X4115796Y1227115D01*
X4115093Y1227427D01*
X4114312Y1227740D01*
X4113453Y1228052D01*
X4113297D01*
X4112985Y1228208D01*
X4112516Y1228286D01*
X4111813Y1228443D01*
X4110954Y1228599D01*
X4110095Y1228677D01*
X4109080Y1228833D01*
X4122669D01*
D02*
G37*
G36*
X4545971Y1242110D02*
X4539020D01*
X4531288Y1208371D01*
Y1208293D01*
X4531210Y1208137D01*
X4531132Y1207824D01*
X4531054Y1207512D01*
X4530976Y1206965D01*
X4530820Y1206418D01*
X4530507Y1205091D01*
X4530195Y1203529D01*
X4529804Y1201733D01*
X4529492Y1199858D01*
X4529101Y1197906D01*
Y1197984D01*
X4529023Y1198296D01*
X4528945Y1198687D01*
X4528789Y1199233D01*
X4528633Y1199858D01*
X4528477Y1200561D01*
X4528008Y1202201D01*
X4527618Y1203841D01*
X4527227Y1205403D01*
X4527071Y1206028D01*
X4526915Y1206653D01*
X4526837Y1207121D01*
X4526758Y1207434D01*
X4516996Y1242110D01*
X4507520D01*
X4508795D01*
X4501454Y1216103D01*
Y1216025D01*
X4501298Y1215634D01*
X4501220Y1215166D01*
X4500985Y1214463D01*
X4500829Y1213604D01*
X4500517Y1212588D01*
X4500283Y1211417D01*
X4499970Y1210167D01*
X4499658Y1208840D01*
X4499345Y1207434D01*
X4498642Y1204310D01*
X4498018Y1201108D01*
X4497471Y1197906D01*
Y1197984D01*
X4497393Y1198140D01*
Y1198374D01*
X4497315Y1198765D01*
X4497158Y1199233D01*
X4497080Y1199780D01*
X4496924Y1200405D01*
X4496768Y1201108D01*
X4496377Y1202748D01*
X4495987Y1204700D01*
X4495440Y1206809D01*
X4494894Y1209074D01*
X4486927Y1242110D01*
X4480055D01*
X4494034Y1190799D01*
X4480055D01*
D01*
X4545971D01*
X4532538D01*
X4545971Y1242110D01*
D02*
G37*
G36*
X4594940Y1242969D02*
X4549642D01*
X4570026D01*
X4569479Y1242891D01*
X4568854Y1242813D01*
X4568073Y1242735D01*
X4567214Y1242657D01*
X4566277Y1242501D01*
X4564246Y1242032D01*
X4562060Y1241329D01*
X4560966Y1240861D01*
X4559873Y1240314D01*
X4558858Y1239689D01*
X4557842Y1238986D01*
X4557764Y1238908D01*
X4557608Y1238830D01*
X4557374Y1238596D01*
X4556983Y1238283D01*
X4556593Y1237893D01*
X4556046Y1237346D01*
X4555499Y1236799D01*
X4554953Y1236175D01*
X4554328Y1235394D01*
X4553781Y1234613D01*
X4553156Y1233675D01*
X4552531Y1232660D01*
X4551985Y1231645D01*
X4551438Y1230473D01*
X4550501Y1227974D01*
X4557217Y1226412D01*
Y1226490D01*
X4557296Y1226646D01*
X4557374Y1226959D01*
X4557530Y1227349D01*
X4557764Y1227818D01*
X4557998Y1228365D01*
X4558545Y1229536D01*
X4559248Y1230864D01*
X4560185Y1232270D01*
X4561200Y1233519D01*
X4562450Y1234613D01*
X4562606Y1234691D01*
X4563075Y1235003D01*
X4563778Y1235394D01*
X4564793Y1235940D01*
X4565965Y1236409D01*
X4567449Y1236799D01*
X4569089Y1237112D01*
X4570963Y1237190D01*
X4571510D01*
X4571900Y1237112D01*
X4572447D01*
X4572994Y1237034D01*
X4574399Y1236799D01*
X4575961Y1236487D01*
X4577601Y1235940D01*
X4579242Y1235237D01*
X4580804Y1234300D01*
X4580882D01*
X4580960Y1234144D01*
X4581428Y1233754D01*
X4582131Y1233129D01*
X4582990Y1232270D01*
X4583850Y1231176D01*
X4584787Y1229927D01*
X4585646Y1228365D01*
X4586349Y1226646D01*
Y1226568D01*
X4586427Y1226412D01*
X4586505Y1226178D01*
X4586583Y1225787D01*
X4586739Y1225397D01*
X4586817Y1224850D01*
X4587130Y1223601D01*
X4587442Y1222117D01*
X4587676Y1220476D01*
X4587833Y1218680D01*
X4587911Y1216806D01*
Y1216728D01*
Y1216493D01*
Y1216181D01*
Y1215712D01*
X4587833Y1215166D01*
Y1214463D01*
X4587755Y1213760D01*
X4587676Y1212979D01*
X4587442Y1211183D01*
X4587130Y1209230D01*
X4586661Y1207278D01*
X4586036Y1205403D01*
Y1205325D01*
X4585958Y1205169D01*
X4585802Y1204935D01*
X4585646Y1204622D01*
X4585255Y1203685D01*
X4584631Y1202670D01*
X4583771Y1201420D01*
X4582756Y1200249D01*
X4581585Y1199077D01*
X4580179Y1198062D01*
X4580101D01*
X4580023Y1197984D01*
X4579788Y1197828D01*
X4579476Y1197671D01*
X4578617Y1197359D01*
X4577523Y1196890D01*
X4576274Y1196500D01*
X4574790Y1196109D01*
X4573150Y1195797D01*
X4571432Y1195719D01*
X4570885D01*
X4570494Y1195797D01*
X4570026D01*
X4569401Y1195875D01*
X4568073Y1196109D01*
X4566589Y1196500D01*
X4564949Y1197125D01*
X4563387Y1197906D01*
X4561825Y1198999D01*
X4561747Y1199077D01*
X4561669Y1199155D01*
X4561200Y1199624D01*
X4560498Y1200405D01*
X4559639Y1201420D01*
X4558779Y1202826D01*
X4557842Y1204466D01*
X4557061Y1206497D01*
X4556436Y1208762D01*
X4549642Y1207043D01*
Y1206965D01*
X4549720Y1206653D01*
X4549876Y1206262D01*
X4550032Y1205638D01*
X4550345Y1205013D01*
X4550657Y1204154D01*
X4550969Y1203294D01*
X4551438Y1202357D01*
X4552453Y1200249D01*
X4553859Y1198140D01*
X4555421Y1196109D01*
X4556358Y1195172D01*
X4557374Y1194313D01*
X4557452Y1194235D01*
X4557608Y1194157D01*
X4557920Y1193922D01*
X4558389Y1193610D01*
X4558936Y1193298D01*
X4559560Y1192907D01*
X4560263Y1192517D01*
X4561122Y1192126D01*
X4562060Y1191736D01*
X4563075Y1191345D01*
X4564246Y1190955D01*
X4565418Y1190642D01*
X4567995Y1190096D01*
X4569401Y1190017D01*
X4570883Y1189939D01*
X4571667D01*
X4572291Y1190017D01*
X4572994D01*
X4573775Y1190096D01*
X4574712Y1190252D01*
X4575649Y1190330D01*
X4577836Y1190799D01*
X4580101Y1191345D01*
X4582288Y1192204D01*
X4583381Y1192673D01*
X4584396Y1193298D01*
X4584474Y1193376D01*
X4584631Y1193454D01*
X4584865Y1193688D01*
X4585255Y1193922D01*
X4586193Y1194704D01*
X4587286Y1195797D01*
X4588614Y1197125D01*
X4589863Y1198843D01*
X4591191Y1200795D01*
X4592284Y1203060D01*
Y1203138D01*
X4592362Y1203373D01*
X4592519Y1203685D01*
X4592675Y1204154D01*
X4592909Y1204778D01*
X4593143Y1205481D01*
X4593378Y1206262D01*
X4593612Y1207199D01*
X4593846Y1208137D01*
X4594081Y1209230D01*
X4594549Y1211573D01*
X4594862Y1214072D01*
X4594940Y1216806D01*
Y1217587D01*
X4594862Y1218133D01*
Y1218836D01*
X4594783Y1219696D01*
X4594705Y1220555D01*
X4594549Y1221570D01*
X4594159Y1223757D01*
X4593690Y1226100D01*
X4592909Y1228521D01*
X4591894Y1230786D01*
Y1230864D01*
X4591738Y1231020D01*
X4591581Y1231332D01*
X4591347Y1231801D01*
X4591035Y1232270D01*
X4590644Y1232816D01*
X4589629Y1234144D01*
X4588457Y1235628D01*
X4586974Y1237112D01*
X4585177Y1238596D01*
X4583225Y1239845D01*
X4583147D01*
X4582990Y1240002D01*
X4582678Y1240158D01*
X4582209Y1240314D01*
X4581741Y1240548D01*
X4581116Y1240861D01*
X4580335Y1241095D01*
X4579554Y1241407D01*
X4578695Y1241720D01*
X4577758Y1241954D01*
X4575649Y1242501D01*
X4573306Y1242813D01*
X4570807Y1242969D01*
X4594940D01*
D02*
G37*
G36*
X4328150Y1228833D02*
X4327525D01*
X4327135Y1228755D01*
X4326588D01*
X4326041Y1228677D01*
X4324636Y1228443D01*
X4323074Y1228052D01*
X4321355Y1227505D01*
X4319715Y1226725D01*
X4318231Y1225709D01*
X4318153D01*
X4318075Y1225553D01*
X4317607Y1225162D01*
X4316982Y1224460D01*
X4316201Y1223522D01*
X4315342Y1222273D01*
X4314561Y1220789D01*
X4313858Y1218993D01*
X4313311Y1217040D01*
X4319403Y1216103D01*
Y1216181D01*
X4319481Y1216259D01*
X4319559Y1216728D01*
X4319793Y1217352D01*
X4320106Y1218212D01*
X4320574Y1219149D01*
X4321121Y1220086D01*
X4321746Y1220945D01*
X4322527Y1221726D01*
X4322605Y1221804D01*
X4322917Y1222039D01*
X4323386Y1222351D01*
X4324011Y1222741D01*
X4324792Y1223054D01*
X4325651Y1223366D01*
X4326744Y1223601D01*
X4327838Y1223679D01*
X4328306D01*
X4328619Y1223601D01*
X4329478Y1223522D01*
X4330571Y1223288D01*
X4331821Y1222820D01*
X4333070Y1222195D01*
X4334398Y1221414D01*
X4335023Y1220867D01*
X4335570Y1220242D01*
X4335726Y1220086D01*
X4335804Y1219852D01*
X4336038Y1219617D01*
X4336273Y1219227D01*
X4336507Y1218758D01*
X4336741Y1218212D01*
X4336975Y1217587D01*
X4337288Y1216884D01*
X4337522Y1216103D01*
X4337756Y1215166D01*
X4337991Y1214228D01*
X4338225Y1213135D01*
X4338303Y1211964D01*
X4338459Y1210714D01*
Y1209386D01*
Y1209308D01*
Y1209074D01*
Y1208683D01*
X4338381Y1208137D01*
Y1207512D01*
X4338303Y1206809D01*
X4338069Y1205247D01*
X4337756Y1203451D01*
X4337288Y1201576D01*
X4336585Y1199936D01*
X4336116Y1199155D01*
X4335648Y1198452D01*
X4335492Y1198296D01*
X4335101Y1197906D01*
X4334476Y1197359D01*
X4333617Y1196812D01*
X4332602Y1196187D01*
X4331274Y1195641D01*
X4329868Y1195250D01*
X4329087Y1195172D01*
X4328228Y1195094D01*
X4327603D01*
X4326900Y1195250D01*
X4326041Y1195406D01*
X4325104Y1195641D01*
X4324011Y1196031D01*
X4322995Y1196578D01*
X4322058Y1197359D01*
X4321980Y1197437D01*
X4321668Y1197828D01*
X4321199Y1198296D01*
X4320731Y1199077D01*
X4320184Y1200092D01*
X4319637Y1201264D01*
X4319169Y1202748D01*
X4318856Y1204388D01*
X4312686Y1203529D01*
Y1203451D01*
X4312764Y1203216D01*
X4312842Y1202904D01*
X4312921Y1202514D01*
X4313077Y1201967D01*
X4313233Y1201342D01*
X4313702Y1199858D01*
X4314404Y1198296D01*
X4315342Y1196578D01*
X4316513Y1195016D01*
X4317919Y1193532D01*
X4317997D01*
X4318075Y1193376D01*
X4318310Y1193220D01*
X4318622Y1192985D01*
X4319091Y1192673D01*
X4319559Y1192361D01*
X4320731Y1191736D01*
X4322215Y1191111D01*
X4324011Y1190486D01*
X4325963Y1190096D01*
X4327057Y1190017D01*
X4328148Y1189939D01*
X4328854D01*
X4329400Y1190017D01*
X4330025Y1190096D01*
X4330806Y1190174D01*
X4331587Y1190330D01*
X4332524Y1190564D01*
X4334476Y1191111D01*
X4335492Y1191580D01*
X4336507Y1192048D01*
X4337522Y1192595D01*
X4338459Y1193220D01*
X4339396Y1194001D01*
X4340334Y1194860D01*
X4340412Y1194938D01*
X4340568Y1195094D01*
X4340724Y1195406D01*
X4341037Y1195797D01*
X4341427Y1196344D01*
X4341818Y1196968D01*
X4342208Y1197671D01*
X4342599Y1198530D01*
X4343067Y1199468D01*
X4343458Y1200561D01*
X4343848Y1201733D01*
X4344239Y1203060D01*
X4344551Y1204388D01*
X4344707Y1205950D01*
X4344864Y1207512D01*
X4344942Y1209230D01*
Y1210245D01*
X4344864Y1210792D01*
Y1211339D01*
X4344707Y1212823D01*
X4344473Y1214463D01*
X4344083Y1216181D01*
X4343614Y1218055D01*
X4342989Y1219774D01*
Y1219852D01*
X4342911Y1220008D01*
X4342755Y1220242D01*
X4342599Y1220555D01*
X4342130Y1221336D01*
X4341505Y1222351D01*
X4340646Y1223444D01*
X4339631Y1224538D01*
X4338381Y1225631D01*
X4336975Y1226568D01*
X4336897D01*
X4336819Y1226646D01*
X4336585Y1226803D01*
X4336273Y1226959D01*
X4335413Y1227271D01*
X4334320Y1227740D01*
X4333070Y1228130D01*
X4331508Y1228521D01*
X4329868Y1228755D01*
X4328150Y1228833D01*
D02*
G37*
G36*
X4256454D02*
X4255829D01*
X4255439Y1228755D01*
X4254892D01*
X4254346Y1228677D01*
X4252940Y1228443D01*
X4251378Y1228052D01*
X4249660Y1227505D01*
X4248020Y1226725D01*
X4246536Y1225709D01*
X4246458D01*
X4246379Y1225553D01*
X4245911Y1225162D01*
X4245286Y1224460D01*
X4244505Y1223522D01*
X4243646Y1222273D01*
X4242865Y1220789D01*
X4242162Y1218993D01*
X4241615Y1217040D01*
X4247707Y1216103D01*
Y1216181D01*
X4247785Y1216259D01*
X4247863Y1216728D01*
X4248098Y1217352D01*
X4248410Y1218212D01*
X4248879Y1219149D01*
X4249425Y1220086D01*
X4250050Y1220945D01*
X4250831Y1221726D01*
X4250909Y1221804D01*
X4251222Y1222039D01*
X4251690Y1222351D01*
X4252315Y1222741D01*
X4253096Y1223054D01*
X4253955Y1223366D01*
X4255048Y1223601D01*
X4256142Y1223679D01*
X4256610D01*
X4256923Y1223601D01*
X4257782Y1223522D01*
X4258875Y1223288D01*
X4260125Y1222820D01*
X4261375Y1222195D01*
X4262702Y1221414D01*
X4263327Y1220867D01*
X4263874Y1220242D01*
X4264030Y1220086D01*
X4264108Y1219852D01*
X4264342Y1219617D01*
X4264577Y1219227D01*
X4264811Y1218758D01*
X4265045Y1218212D01*
X4265280Y1217587D01*
X4265592Y1216884D01*
X4265826Y1216103D01*
X4266061Y1215166D01*
X4266295Y1214228D01*
X4266529Y1213135D01*
X4266607Y1211964D01*
X4266764Y1210714D01*
Y1209386D01*
Y1209308D01*
Y1209074D01*
Y1208683D01*
X4266685Y1208137D01*
Y1207512D01*
X4266607Y1206809D01*
X4266373Y1205247D01*
X4266061Y1203451D01*
X4265592Y1201576D01*
X4264889Y1199936D01*
X4264421Y1199155D01*
X4263952Y1198452D01*
X4263796Y1198296D01*
X4263405Y1197906D01*
X4262780Y1197359D01*
X4261921Y1196812D01*
X4260906Y1196187D01*
X4259578Y1195641D01*
X4258172Y1195250D01*
X4257391Y1195172D01*
X4256532Y1195094D01*
X4255908D01*
X4255205Y1195250D01*
X4254346Y1195406D01*
X4253408Y1195641D01*
X4252315Y1196031D01*
X4251300Y1196578D01*
X4250363Y1197359D01*
X4250284Y1197437D01*
X4249972Y1197828D01*
X4249503Y1198296D01*
X4249035Y1199077D01*
X4248488Y1200092D01*
X4247941Y1201264D01*
X4247473Y1202748D01*
X4247160Y1204388D01*
X4240990Y1203529D01*
Y1204388D01*
Y1203451D01*
X4241069Y1203216D01*
X4241147Y1202904D01*
X4241225Y1202514D01*
X4241381Y1201967D01*
X4241537Y1201342D01*
X4242006Y1199858D01*
X4242709Y1198296D01*
X4243646Y1196578D01*
X4244817Y1195016D01*
X4246223Y1193532D01*
X4246301D01*
X4246379Y1193376D01*
X4246614Y1193220D01*
X4246926Y1192985D01*
X4247395Y1192673D01*
X4247863Y1192361D01*
X4249035Y1191736D01*
X4250519Y1191111D01*
X4252315Y1190486D01*
X4254267Y1190096D01*
X4255361Y1190017D01*
X4256453Y1189939D01*
X4257158D01*
X4257704Y1190017D01*
X4258329Y1190096D01*
X4259110Y1190174D01*
X4259891Y1190330D01*
X4260828Y1190564D01*
X4262780Y1191111D01*
X4263796Y1191580D01*
X4264811Y1192048D01*
X4265826Y1192595D01*
X4266764Y1193220D01*
X4267701Y1194001D01*
X4268638Y1194860D01*
X4268716Y1194938D01*
X4268872Y1195094D01*
X4269028Y1195406D01*
X4269341Y1195797D01*
X4269731Y1196344D01*
X4270122Y1196968D01*
X4270512Y1197671D01*
X4270903Y1198530D01*
X4271371Y1199468D01*
X4271762Y1200561D01*
X4272152Y1201733D01*
X4272543Y1203060D01*
X4272855Y1204388D01*
X4273011Y1205950D01*
X4273168Y1207512D01*
X4273246Y1209230D01*
Y1210245D01*
X4273168Y1210792D01*
Y1211339D01*
X4273011Y1212823D01*
X4272777Y1214463D01*
X4272387Y1216181D01*
X4271918Y1218055D01*
X4271293Y1219774D01*
Y1219852D01*
X4271215Y1220008D01*
X4271059Y1220242D01*
X4270903Y1220555D01*
X4270434Y1221336D01*
X4269809Y1222351D01*
X4268950Y1223444D01*
X4267935Y1224538D01*
X4266685Y1225631D01*
X4265280Y1226568D01*
X4265202D01*
X4265123Y1226646D01*
X4264889Y1226803D01*
X4264577Y1226959D01*
X4263718Y1227271D01*
X4262624Y1227740D01*
X4261375Y1228130D01*
X4259813Y1228521D01*
X4258172Y1228755D01*
X4256454Y1228833D01*
D02*
G37*
G36*
X4237632D02*
X4203424D01*
X4219669D01*
X4219123Y1228755D01*
X4218498Y1228677D01*
X4217717Y1228599D01*
X4216936Y1228443D01*
X4215998Y1228208D01*
X4214124Y1227584D01*
X4213109Y1227193D01*
X4212093Y1226646D01*
X4211078Y1226100D01*
X4210063Y1225397D01*
X4209126Y1224616D01*
X4208189Y1223679D01*
X4208110Y1223601D01*
X4207954Y1223444D01*
X4207720Y1223132D01*
X4207408Y1222741D01*
X4207095Y1222195D01*
X4206705Y1221570D01*
X4206236Y1220867D01*
X4205767Y1220008D01*
X4205377Y1218993D01*
X4204908Y1217977D01*
X4204518Y1216806D01*
X4204127Y1215478D01*
X4203893Y1214150D01*
X4203659Y1212667D01*
X4203502Y1211104D01*
X4203424Y1209386D01*
Y1208449D01*
X4203502Y1207746D01*
X4231150D01*
Y1207668D01*
Y1207512D01*
X4231072Y1207121D01*
Y1206731D01*
X4230994Y1206184D01*
X4230916Y1205638D01*
X4230603Y1204232D01*
X4230135Y1202748D01*
X4229588Y1201186D01*
X4228729Y1199624D01*
X4227713Y1198296D01*
X4227557Y1198140D01*
X4227167Y1197828D01*
X4226464Y1197281D01*
X4225605Y1196734D01*
X4224433Y1196109D01*
X4223106Y1195563D01*
X4221622Y1195250D01*
X4219982Y1195094D01*
X4219357D01*
X4218732Y1195172D01*
X4217951Y1195328D01*
X4217014Y1195563D01*
X4215998Y1195875D01*
X4214983Y1196265D01*
X4214046Y1196890D01*
X4213968Y1196968D01*
X4213655Y1197281D01*
X4213187Y1197671D01*
X4212640Y1198374D01*
X4212015Y1199155D01*
X4211391Y1200170D01*
X4210766Y1201420D01*
X4210141Y1202826D01*
X4203659Y1201967D01*
Y1201889D01*
X4203737Y1201733D01*
X4203815Y1201420D01*
X4203971Y1201030D01*
X4204127Y1200561D01*
X4204362Y1200014D01*
X4204986Y1198687D01*
X4205767Y1197281D01*
X4206705Y1195797D01*
X4207954Y1194313D01*
X4209360Y1193063D01*
X4209438D01*
X4209516Y1192907D01*
X4209751Y1192751D01*
X4210141Y1192595D01*
X4210532Y1192361D01*
X4211000Y1192048D01*
X4211547Y1191814D01*
X4212250Y1191501D01*
X4213734Y1190955D01*
X4215608Y1190408D01*
X4217639Y1190096D01*
X4219980Y1189939D01*
X4220764D01*
X4221309Y1190017D01*
X4222012Y1190096D01*
X4222793Y1190174D01*
X4223652Y1190330D01*
X4224668Y1190564D01*
X4226698Y1191189D01*
X4227792Y1191580D01*
X4228807Y1192048D01*
X4229900Y1192595D01*
X4230916Y1193298D01*
X4231931Y1194079D01*
X4232868Y1194938D01*
X4232946Y1195016D01*
X4233102Y1195172D01*
X4233337Y1195485D01*
X4233571Y1195875D01*
X4233962Y1196344D01*
X4234352Y1196968D01*
X4234821Y1197749D01*
X4235211Y1198609D01*
X4235680Y1199546D01*
X4236148Y1200561D01*
X4236539Y1201733D01*
X4236851Y1202982D01*
X4237164Y1204310D01*
X4237398Y1205794D01*
X4237554Y1207356D01*
X4237632Y1208996D01*
Y1209933D01*
X4237554Y1210558D01*
X4237476Y1211339D01*
X4237398Y1212276D01*
X4237242Y1213291D01*
X4237007Y1214385D01*
X4236461Y1216728D01*
X4236070Y1217899D01*
X4235602Y1219149D01*
X4235055Y1220320D01*
X4234430Y1221492D01*
X4233727Y1222585D01*
X4232868Y1223601D01*
X4232790Y1223679D01*
X4232634Y1223835D01*
X4232400Y1224069D01*
X4232009Y1224460D01*
X4231540Y1224850D01*
X4230916Y1225241D01*
X4230291Y1225709D01*
X4229510Y1226256D01*
X4228651Y1226725D01*
X4227713Y1227193D01*
X4226698Y1227584D01*
X4225527Y1228052D01*
X4224355Y1228365D01*
X4223106Y1228599D01*
X4221778Y1228755D01*
X4220372Y1228833D01*
X4237632D01*
D02*
G37*
G36*
X4069327Y1228833D02*
X4053863D01*
X4068702D01*
X4068311Y1228755D01*
X4067765D01*
X4067218Y1228677D01*
X4065812Y1228443D01*
X4064250Y1228052D01*
X4062532Y1227505D01*
X4060892Y1226724D01*
X4059408Y1225709D01*
X4059330D01*
X4059252Y1225553D01*
X4058783Y1225162D01*
X4058158Y1224459D01*
X4057377Y1223522D01*
X4056518Y1222273D01*
X4055737Y1220789D01*
X4055034Y1218993D01*
X4054488Y1217040D01*
X4060579Y1216103D01*
Y1216181D01*
X4060658Y1216259D01*
X4060736Y1216728D01*
X4060970Y1217352D01*
X4061282Y1218211D01*
X4061751Y1219149D01*
X4062298Y1220086D01*
X4062923Y1220945D01*
X4063704Y1221726D01*
X4063782Y1221804D01*
X4064094Y1222038D01*
X4064563Y1222351D01*
X4065187Y1222741D01*
X4065968Y1223054D01*
X4066827Y1223366D01*
X4067921Y1223600D01*
X4069014Y1223678D01*
X4069483D01*
X4069795Y1223600D01*
X4070654Y1223522D01*
X4071748Y1223288D01*
X4072997Y1222819D01*
X4074247Y1222195D01*
X4075575Y1221414D01*
X4076200Y1220867D01*
X4076746Y1220242D01*
X4076902Y1220086D01*
X4076981Y1219852D01*
X4077215Y1219617D01*
X4077449Y1219227D01*
X4077683Y1218758D01*
X4077918Y1218211D01*
X4078152Y1217587D01*
X4078464Y1216884D01*
X4078699Y1216103D01*
X4078933Y1215166D01*
X4079167Y1214228D01*
X4079402Y1213135D01*
X4079480Y1211964D01*
X4079636Y1210714D01*
Y1209386D01*
Y1209308D01*
Y1209074D01*
Y1208683D01*
X4079558Y1208137D01*
Y1207512D01*
X4079480Y1206809D01*
X4079245Y1205247D01*
X4078933Y1203451D01*
X4078464Y1201576D01*
X4077762Y1199936D01*
X4077293Y1199155D01*
X4076824Y1198452D01*
X4076668Y1198296D01*
X4076278Y1197906D01*
X4075653Y1197359D01*
X4074794Y1196812D01*
X4073778Y1196187D01*
X4072451Y1195641D01*
X4071045Y1195250D01*
X4070264Y1195172D01*
X4069405Y1195094D01*
X4068780D01*
X4068077Y1195250D01*
X4067218Y1195406D01*
X4066281Y1195641D01*
X4065187Y1196031D01*
X4064172Y1196578D01*
X4063235Y1197359D01*
X4063157Y1197437D01*
X4062844Y1197827D01*
X4062376Y1198296D01*
X4061907Y1199077D01*
X4061360Y1200092D01*
X4060814Y1201264D01*
X4060345Y1202748D01*
X4060033Y1204388D01*
X4053863Y1203529D01*
Y1203451D01*
X4053941Y1203216D01*
X4054019Y1202904D01*
X4054097Y1202513D01*
X4054253Y1201967D01*
X4054410Y1201342D01*
X4054878Y1199858D01*
X4055581Y1198296D01*
X4056518Y1196578D01*
X4057690Y1195016D01*
X4059096Y1193532D01*
X4059174D01*
X4059252Y1193376D01*
X4059486Y1193219D01*
X4059798Y1192985D01*
X4060267Y1192673D01*
X4060736Y1192360D01*
X4061907Y1191736D01*
X4063391Y1191111D01*
X4065187Y1190486D01*
X4067140Y1190095D01*
X4068233Y1190017D01*
X4069324Y1189939D01*
X4070031D01*
X4070576Y1190017D01*
X4071201Y1190095D01*
X4071982Y1190174D01*
X4072763Y1190330D01*
X4073700Y1190564D01*
X4075653Y1191111D01*
X4076668Y1191579D01*
X4077683Y1192048D01*
X4078699Y1192595D01*
X4079636Y1193219D01*
X4080573Y1194001D01*
X4081510Y1194860D01*
X4081588Y1194938D01*
X4081745Y1195094D01*
X4081901Y1195406D01*
X4082213Y1195797D01*
X4082604Y1196343D01*
X4082994Y1196968D01*
X4083385Y1197671D01*
X4083775Y1198530D01*
X4084244Y1199467D01*
X4084634Y1200561D01*
X4085025Y1201732D01*
X4085415Y1203060D01*
X4085728Y1204388D01*
X4085884Y1205950D01*
X4086040Y1207512D01*
X4086118Y1209230D01*
Y1210245D01*
X4086040Y1210792D01*
Y1211339D01*
X4085884Y1212823D01*
X4085650Y1214463D01*
X4085259Y1216181D01*
X4084791Y1218055D01*
X4084166Y1219774D01*
Y1219852D01*
X4084088Y1220008D01*
X4083931Y1220242D01*
X4083775Y1220554D01*
X4083307Y1221335D01*
X4082682Y1222351D01*
X4081823Y1223444D01*
X4080807Y1224538D01*
X4079558Y1225631D01*
X4078152Y1226568D01*
X4078074D01*
X4077996Y1226646D01*
X4077762Y1226803D01*
X4077449Y1226959D01*
X4076590Y1227271D01*
X4075497Y1227740D01*
X4074247Y1228130D01*
X4072685Y1228521D01*
X4071045Y1228755D01*
X4069327Y1228833D01*
D02*
G37*
G36*
X3803631Y1242344D02*
X3799491D01*
Y1190798D01*
X3805817D01*
Y1230942D01*
X3805895Y1230864D01*
X3806208Y1230551D01*
X3806755Y1230161D01*
X3807457Y1229614D01*
X3808316Y1228911D01*
X3809332Y1228208D01*
X3810503Y1227349D01*
X3811831Y1226568D01*
X3811909D01*
X3811987Y1226490D01*
X3812456Y1226178D01*
X3813159Y1225787D01*
X3814018Y1225319D01*
X3815033Y1224772D01*
X3816126Y1224303D01*
X3817298Y1223757D01*
X3818391Y1223288D01*
Y1192595D01*
Y1229458D01*
X3818313D01*
X3818157Y1229536D01*
X3817845Y1229692D01*
X3817532Y1229927D01*
X3817064Y1230161D01*
X3816517Y1230395D01*
X3815267Y1231098D01*
X3813862Y1231957D01*
X3812300Y1232972D01*
X3810738Y1234144D01*
X3809254Y1235393D01*
X3809176Y1235472D01*
X3809097Y1235550D01*
X3808629Y1236018D01*
X3807926Y1236721D01*
X3807067Y1237580D01*
X3806130Y1238674D01*
X3805193Y1239845D01*
X3804333Y1241095D01*
X3803631Y1242344D01*
D02*
G37*
G36*
X4453735Y1242110D02*
X4414607D01*
X4432726D01*
X4431555Y1242032D01*
X4430305Y1241954D01*
X4428977Y1241876D01*
X4427728Y1241720D01*
X4426634Y1241563D01*
X4426478D01*
X4426009Y1241407D01*
X4425306Y1241251D01*
X4424447Y1241017D01*
X4423432Y1240704D01*
X4422417Y1240314D01*
X4421323Y1239767D01*
X4420308Y1239142D01*
X4420230Y1239064D01*
X4419840Y1238830D01*
X4419371Y1238439D01*
X4418824Y1237893D01*
X4418199Y1237190D01*
X4417497Y1236331D01*
X4416794Y1235394D01*
X4416169Y1234222D01*
X4416091Y1234066D01*
X4415935Y1233675D01*
X4415700Y1233051D01*
X4415388Y1232191D01*
X4415075Y1231176D01*
X4414841Y1230005D01*
X4414685Y1228677D01*
X4414607Y1227271D01*
Y1190799D01*
Y1226646D01*
X4414685Y1226178D01*
X4414763Y1225631D01*
X4414841Y1224928D01*
X4414919Y1224225D01*
X4415154Y1223444D01*
X4415622Y1221648D01*
X4416403Y1219852D01*
X4416872Y1218915D01*
X4417418Y1217977D01*
X4418043Y1217040D01*
X4418824Y1216181D01*
X4418902Y1216103D01*
X4419059Y1216025D01*
X4419293Y1215791D01*
X4419605Y1215478D01*
X4420152Y1215166D01*
X4420699Y1214775D01*
X4421401Y1214385D01*
X4422261Y1213994D01*
X4423198Y1213526D01*
X4424291Y1213135D01*
X4425541Y1212745D01*
X4426868Y1212432D01*
X4428431Y1212120D01*
X4430071Y1211886D01*
X4431867Y1211807D01*
X4433819Y1211729D01*
X4446940D01*
Y1190799D01*
X4453735D01*
Y1242110D01*
D02*
G37*
G36*
X4032620Y1242110D02*
X4026294D01*
Y1190798D01*
X4032620D01*
Y1242110D01*
D02*
G37*
G36*
X4016687D02*
X4010361D01*
Y1190798D01*
X4016687D01*
Y1242110D01*
D02*
G37*
G36*
X3861190Y1227974D02*
X3827061D01*
D01*
X3841119Y1190798D01*
X3847054D01*
X3861190Y1227974D01*
D01*
D02*
G37*
G36*
X3779888Y1197984D02*
X3772703D01*
Y1190798D01*
X3779888D01*
Y1197984D01*
D02*
G37*
G36*
X3925857Y1228833D02*
X3908441D01*
Y1199468D01*
Y1208683D01*
X3908519Y1208059D01*
Y1207356D01*
X3908597Y1206575D01*
X3908675Y1205716D01*
X3908987Y1203919D01*
X3909378Y1202045D01*
X3909925Y1200170D01*
X3910628Y1198530D01*
Y1198452D01*
X3910706Y1198374D01*
X3911018Y1197827D01*
X3911565Y1197124D01*
X3912268Y1196187D01*
X3913127Y1195172D01*
X3914220Y1194157D01*
X3915470Y1193141D01*
X3916954Y1192204D01*
X3917032D01*
X3917110Y1192126D01*
X3917344Y1191970D01*
X3917657Y1191892D01*
X3918516Y1191501D01*
X3919609Y1191111D01*
X3920937Y1190642D01*
X3922421Y1190330D01*
X3924061Y1190017D01*
X3925853Y1189939D01*
X3926639D01*
X3927185Y1190017D01*
X3927809Y1190095D01*
X3928590Y1190174D01*
X3929450Y1190330D01*
X3930387Y1190564D01*
X3932339Y1191189D01*
X3933433Y1191579D01*
X3934448Y1192048D01*
X3935541Y1192595D01*
X3936557Y1193298D01*
X3937572Y1194079D01*
X3938509Y1194938D01*
X3938587Y1195016D01*
X3938744Y1195172D01*
X3938978Y1195484D01*
X3939212Y1195875D01*
X3939603Y1196422D01*
X3939993Y1197046D01*
X3940462Y1197749D01*
X3940852Y1198608D01*
X3941321Y1199624D01*
X3941789Y1200639D01*
X3942180Y1201889D01*
X3942492Y1203138D01*
X3942805Y1204544D01*
X3943039Y1206028D01*
X3943195Y1207668D01*
X3943273Y1209386D01*
Y1209855D01*
X3943195Y1210401D01*
Y1211104D01*
X3943117Y1211964D01*
X3942961Y1212901D01*
X3942805Y1213994D01*
X3942570Y1215166D01*
X3942258Y1216415D01*
X3941867Y1217665D01*
X3941399Y1218914D01*
X3940852Y1220164D01*
X3940227Y1221414D01*
X3939446Y1222585D01*
X3938587Y1223678D01*
X3937572Y1224694D01*
X3937494Y1224772D01*
X3937338Y1224850D01*
X3937103Y1225084D01*
X3936713Y1225319D01*
X3936244Y1225631D01*
X3935698Y1226022D01*
X3935073Y1226412D01*
X3934292Y1226803D01*
X3933511Y1227115D01*
X3932652Y1227505D01*
X3930621Y1228208D01*
X3928356Y1228677D01*
X3927107Y1228755D01*
X3925857Y1228833D01*
D02*
G37*
G36*
X4208071Y1179677D02*
X4201745D01*
Y1172336D01*
X4208071D01*
Y1179677D01*
D02*
G37*
G36*
X4120053Y1178505D02*
Y1165541D01*
X4115367D01*
Y1174679D01*
X4109041Y1178505D01*
Y1165541D01*
X4102714D01*
Y1160621D01*
X4109041D01*
Y1138831D01*
Y1138753D01*
Y1138440D01*
Y1137972D01*
X4108962Y1137425D01*
X4108884Y1136253D01*
X4108806Y1135785D01*
X4108728Y1135394D01*
X4108650Y1135238D01*
X4108494Y1134926D01*
X4108181Y1134535D01*
X4107713Y1134145D01*
X4107557Y1134067D01*
X4107166Y1133988D01*
X4106463Y1133832D01*
X4105526Y1133754D01*
X4104745D01*
X4104355Y1133832D01*
X4103886D01*
X4102714Y1133988D01*
X4101855Y1128443D01*
X4102011D01*
X4102324Y1128365D01*
X4102792Y1128287D01*
X4103495Y1128209D01*
X4104198Y1128053D01*
X4104979Y1127975D01*
X4106619Y1127897D01*
X4120053D01*
Y1178505D01*
D02*
G37*
G36*
X4271723Y1166400D02*
Y1165541D01*
X4266021D01*
Y1159996D01*
X4265943Y1160074D01*
X4265631Y1160543D01*
X4265240Y1161245D01*
X4264772Y1162026D01*
X4264147Y1162886D01*
X4263444Y1163745D01*
X4262819Y1164526D01*
X4262117Y1165072D01*
X4262038Y1165150D01*
X4261804Y1165307D01*
X4261414Y1165463D01*
X4260867Y1165775D01*
X4260320Y1166010D01*
X4259617Y1166166D01*
X4258836Y1166322D01*
X4258055Y1166400D01*
X4271723D01*
X4251573D01*
X4257509D01*
X4256884Y1166322D01*
X4256025Y1166166D01*
X4255087Y1165853D01*
X4253994Y1165541D01*
X4252823Y1164994D01*
X4251573Y1164291D01*
X4253838Y1158512D01*
X4253916Y1158590D01*
X4254228Y1158746D01*
X4254697Y1158981D01*
X4255244Y1159215D01*
X4255947Y1159449D01*
X4256728Y1159684D01*
X4257587Y1159840D01*
X4258446Y1159918D01*
X4258758D01*
X4259149Y1159840D01*
X4259695Y1159762D01*
X4260242Y1159605D01*
X4260867Y1159371D01*
X4261492Y1159059D01*
X4262117Y1158668D01*
X4262195Y1158590D01*
X4262351Y1158434D01*
X4262663Y1158121D01*
X4262976Y1157731D01*
X4263366Y1157262D01*
X4263757Y1156638D01*
X4264069Y1155935D01*
X4264381Y1155154D01*
X4264459Y1154997D01*
X4264538Y1154607D01*
X4264694Y1153904D01*
X4264850Y1152967D01*
X4265084Y1151873D01*
X4265240Y1150624D01*
X4265319Y1149296D01*
X4265397Y1147812D01*
Y1128365D01*
X4271723D01*
Y1166400D01*
D02*
G37*
G36*
X4040312Y1165541D02*
X4033596D01*
X4025864Y1144141D01*
Y1144063D01*
X4025786Y1143985D01*
X4025708Y1143751D01*
X4025630Y1143439D01*
X4025317Y1142580D01*
X4024927Y1141486D01*
X4024536Y1140236D01*
X4024068Y1138753D01*
X4023599Y1137191D01*
X4023131Y1135551D01*
Y1135629D01*
X4023052Y1135707D01*
Y1135941D01*
X4022896Y1136253D01*
X4022740Y1137112D01*
X4022428Y1138128D01*
X4022037Y1139377D01*
X4021568Y1140783D01*
X4021100Y1142267D01*
X4020553Y1143829D01*
X4012587Y1165541D01*
X4006339D01*
Y1113292D01*
D01*
Y1165541D01*
X4020397Y1127741D01*
Y1127662D01*
X4020475Y1127506D01*
X4020631Y1127194D01*
X4020787Y1126725D01*
X4020944Y1126257D01*
X4021178Y1125710D01*
X4021647Y1124382D01*
X4022271Y1122976D01*
X4022818Y1121649D01*
X4023365Y1120321D01*
X4023677Y1119774D01*
X4023912Y1119306D01*
X4023990Y1119149D01*
X4024224Y1118837D01*
X4024536Y1118290D01*
X4025005Y1117588D01*
X4025630Y1116885D01*
X4026255Y1116104D01*
X4027035Y1115401D01*
X4027816Y1114776D01*
X4027895Y1114698D01*
X4028207Y1114542D01*
X4028676Y1114307D01*
X4029300Y1114073D01*
X4030003Y1113761D01*
X4030941Y1113526D01*
X4031878Y1113370D01*
X4032969Y1113292D01*
X4033284D01*
X4033674Y1113370D01*
X4034143D01*
X4034767Y1113448D01*
X4035470Y1113604D01*
X4037032Y1114073D01*
X4037735Y1119930D01*
X4037657D01*
X4037423Y1119852D01*
X4037032Y1119774D01*
X4036486Y1119618D01*
X4035392Y1119384D01*
X4034143Y1119306D01*
X4033752D01*
X4033440Y1119384D01*
X4032893D01*
X4031800Y1119618D01*
X4031253Y1119774D01*
X4030784Y1120009D01*
X4030706D01*
X4030550Y1120165D01*
X4030316Y1120321D01*
X4030081Y1120555D01*
X4029378Y1121180D01*
X4028676Y1122039D01*
Y1122117D01*
X4028597Y1122274D01*
X4028441Y1122508D01*
X4028207Y1122976D01*
X4027973Y1123601D01*
X4027660Y1124382D01*
X4027270Y1125476D01*
X4026801Y1126725D01*
X4026723Y1126803D01*
X4026645Y1127116D01*
X4026411Y1127584D01*
X4026176Y1128287D01*
X4040312Y1165541D01*
D02*
G37*
G36*
X4194169Y1166400D02*
X4159962D01*
Y1127506D01*
Y1146016D01*
X4160040Y1145313D01*
X4187687D01*
Y1145235D01*
Y1145079D01*
X4187609Y1144688D01*
Y1144298D01*
X4187531Y1143751D01*
X4187453Y1143204D01*
X4187141Y1141799D01*
X4186672Y1140315D01*
X4186125Y1138753D01*
X4185266Y1137191D01*
X4184251Y1135863D01*
X4184095Y1135707D01*
X4183704Y1135394D01*
X4183001Y1134848D01*
X4182142Y1134301D01*
X4180971Y1133676D01*
X4179643Y1133130D01*
X4178159Y1132817D01*
X4176519Y1132661D01*
X4175894D01*
X4175269Y1132739D01*
X4174488Y1132895D01*
X4173551Y1133130D01*
X4172536Y1133442D01*
X4171520Y1133832D01*
X4170583Y1134457D01*
X4170505Y1134535D01*
X4170193Y1134848D01*
X4169724Y1135238D01*
X4169177Y1135941D01*
X4168553Y1136722D01*
X4167928Y1137737D01*
X4167303Y1138987D01*
X4166678Y1140393D01*
X4160196Y1139534D01*
Y1139456D01*
X4160274Y1139299D01*
X4160352Y1138987D01*
X4160508Y1138597D01*
X4160665Y1138128D01*
X4160899Y1137581D01*
X4161524Y1136254D01*
X4162305Y1134848D01*
X4163242Y1133364D01*
X4164492Y1131880D01*
X4165897Y1130630D01*
X4165975D01*
X4166053Y1130474D01*
X4166288Y1130318D01*
X4166678Y1130162D01*
X4167069Y1129927D01*
X4167537Y1129615D01*
X4168084Y1129381D01*
X4168787Y1129068D01*
X4170271Y1128522D01*
X4172145Y1127975D01*
X4174176Y1127662D01*
X4176519Y1127506D01*
X4177300D01*
X4177847Y1127584D01*
X4178550Y1127662D01*
X4179331Y1127741D01*
X4180190Y1127897D01*
X4181205Y1128131D01*
X4183235Y1128756D01*
X4184329Y1129146D01*
X4185344Y1129615D01*
X4186438Y1130162D01*
X4187453Y1130865D01*
X4188468Y1131646D01*
X4189405Y1132505D01*
X4189484Y1132583D01*
X4189640Y1132739D01*
X4189874Y1133051D01*
X4190108Y1133442D01*
X4190499Y1133910D01*
X4190889Y1134535D01*
X4191358Y1135316D01*
X4191748Y1136175D01*
X4192217Y1137113D01*
X4192686Y1138128D01*
X4193076Y1139299D01*
X4193389Y1140549D01*
X4193701Y1141877D01*
X4193935Y1143361D01*
X4194091Y1144923D01*
X4194169Y1146563D01*
Y1147500D01*
X4194091Y1148125D01*
X4194013Y1148906D01*
X4193935Y1149843D01*
X4193779Y1150858D01*
X4193545Y1151952D01*
X4192998Y1154295D01*
X4192608Y1155466D01*
X4192139Y1156716D01*
X4191592Y1157887D01*
X4190967Y1159059D01*
X4190265Y1160152D01*
X4189405Y1161167D01*
X4189327Y1161245D01*
X4189171Y1161402D01*
X4188937Y1161636D01*
X4188546Y1162026D01*
X4188078Y1162417D01*
X4187453Y1162807D01*
X4186828Y1163276D01*
X4186047Y1163823D01*
X4185188Y1164291D01*
X4184251Y1164760D01*
X4183235Y1165150D01*
X4182064Y1165619D01*
X4180892Y1165931D01*
X4179643Y1166166D01*
X4178315Y1166322D01*
X4176909Y1166400D01*
X4194169D01*
D02*
G37*
G36*
X4137313Y1166400D02*
X4136688D01*
X4136297Y1166322D01*
X4135751D01*
X4135204Y1166244D01*
X4133798Y1166009D01*
X4132236Y1165619D01*
X4130518Y1165072D01*
X4128878Y1164291D01*
X4127394Y1163276D01*
X4127316D01*
X4127238Y1163120D01*
X4126769Y1162729D01*
X4126144Y1162026D01*
X4125363Y1161089D01*
X4124504Y1159840D01*
X4123723Y1158356D01*
X4123020Y1156559D01*
X4122474Y1154607D01*
X4128565Y1153670D01*
Y1153748D01*
X4128644Y1153826D01*
X4128722Y1154294D01*
X4128956Y1154919D01*
X4129268Y1155778D01*
X4129737Y1156716D01*
X4130284Y1157653D01*
X4130908Y1158512D01*
X4131690Y1159293D01*
X4131768Y1159371D01*
X4132080Y1159605D01*
X4132549Y1159918D01*
X4133173Y1160308D01*
X4133954Y1160621D01*
X4134814Y1160933D01*
X4135907Y1161167D01*
X4137000Y1161245D01*
X4137469D01*
X4137781Y1161167D01*
X4138640Y1161089D01*
X4139734Y1160855D01*
X4140983Y1160386D01*
X4142233Y1159762D01*
X4143561Y1158980D01*
X4144185Y1158434D01*
X4144732Y1157809D01*
X4144888Y1157653D01*
X4144967Y1157418D01*
X4145201Y1157184D01*
X4145435Y1156794D01*
X4145669Y1156325D01*
X4145904Y1155778D01*
X4146138Y1155154D01*
X4146450Y1154451D01*
X4146685Y1153670D01*
X4146919Y1152733D01*
X4147153Y1151795D01*
X4147388Y1150702D01*
X4147466Y1149530D01*
X4147622Y1148281D01*
Y1146953D01*
Y1146875D01*
Y1146641D01*
Y1146250D01*
X4147544Y1145704D01*
Y1145079D01*
X4147466Y1144376D01*
X4147231Y1142814D01*
X4146919Y1141017D01*
X4146450Y1139143D01*
X4145748Y1137503D01*
X4145279Y1136722D01*
X4144810Y1136019D01*
X4144654Y1135863D01*
X4144264Y1135472D01*
X4143639Y1134926D01*
X4142780Y1134379D01*
X4141764Y1133754D01*
X4140437Y1133207D01*
X4139031Y1132817D01*
X4138250Y1132739D01*
X4137391Y1132661D01*
X4136766D01*
X4136063Y1132817D01*
X4135204Y1132973D01*
X4134267Y1133207D01*
X4133173Y1133598D01*
X4132158Y1134145D01*
X4131221Y1134926D01*
X4131143Y1135004D01*
X4130830Y1135394D01*
X4130362Y1135863D01*
X4129893Y1136644D01*
X4129346Y1137659D01*
X4128800Y1138831D01*
X4128331Y1140315D01*
X4128019Y1141955D01*
X4121849Y1141096D01*
Y1141017D01*
X4121927Y1140783D01*
X4122005Y1140471D01*
X4122083Y1140080D01*
X4122239Y1139534D01*
X4122396Y1138909D01*
X4122864Y1137425D01*
X4123567Y1135863D01*
X4124504Y1134145D01*
X4125676Y1132583D01*
X4127082Y1131099D01*
X4127160D01*
X4127238Y1130943D01*
X4127472Y1130786D01*
X4127784Y1130552D01*
X4128253Y1130240D01*
X4128722Y1129927D01*
X4129893Y1129303D01*
X4131377Y1128678D01*
X4133173Y1128053D01*
X4135126Y1127662D01*
X4136219Y1127584D01*
X4137313Y1127506D01*
X4121849D01*
X4138016D01*
X4138562Y1127584D01*
X4139187Y1127662D01*
X4139968Y1127741D01*
X4140749Y1127897D01*
X4141686Y1128131D01*
X4143639Y1128678D01*
X4144654Y1129146D01*
X4145669Y1129615D01*
X4146685Y1130162D01*
X4147622Y1130786D01*
X4148559Y1131567D01*
X4149496Y1132427D01*
X4149574Y1132505D01*
X4149731Y1132661D01*
X4149887Y1132973D01*
X4150199Y1133364D01*
X4150590Y1133910D01*
X4150980Y1134535D01*
X4151371Y1135238D01*
X4151761Y1136097D01*
X4152230Y1137034D01*
X4152620Y1138128D01*
X4153011Y1139299D01*
X4153401Y1140627D01*
X4153714Y1141955D01*
X4153870Y1143517D01*
X4154026Y1145079D01*
X4154104Y1146797D01*
Y1147812D01*
X4154026Y1148359D01*
Y1148906D01*
X4153870Y1150390D01*
X4153636Y1152030D01*
X4153245Y1153748D01*
X4152776Y1155622D01*
X4152152Y1157341D01*
Y1157419D01*
X4152074Y1157575D01*
X4151917Y1157809D01*
X4151761Y1158121D01*
X4151293Y1158902D01*
X4150668Y1159918D01*
X4149809Y1161011D01*
X4148793Y1162104D01*
X4147544Y1163198D01*
X4146138Y1164135D01*
X4146060D01*
X4145982Y1164213D01*
X4145748Y1164369D01*
X4145435Y1164526D01*
X4144576Y1164838D01*
X4143483Y1165307D01*
X4142233Y1165697D01*
X4140671Y1166088D01*
X4139031Y1166322D01*
X4137313Y1166400D01*
D02*
G37*
G36*
X4318661Y1179677D02*
X4279533D01*
X4297652D01*
X4296480Y1179599D01*
X4295231Y1179521D01*
X4293903Y1179443D01*
X4292654Y1179287D01*
X4291560Y1179130D01*
X4291404D01*
X4290935Y1178974D01*
X4290233Y1178818D01*
X4289373Y1178584D01*
X4288358Y1178271D01*
X4287343Y1177881D01*
X4286249Y1177334D01*
X4285234Y1176709D01*
X4285156Y1176631D01*
X4284766Y1176397D01*
X4284297Y1176006D01*
X4283750Y1175460D01*
X4283125Y1174757D01*
X4282422Y1173898D01*
X4281720Y1172960D01*
X4281095Y1171789D01*
X4281017Y1171633D01*
X4280860Y1171242D01*
X4280626Y1170618D01*
X4280314Y1169758D01*
X4280001Y1168743D01*
X4279767Y1167572D01*
X4279611Y1166244D01*
X4279533Y1164838D01*
Y1128365D01*
Y1164213D01*
X4279611Y1163745D01*
X4279689Y1163198D01*
X4279767Y1162495D01*
X4279845Y1161792D01*
X4280079Y1161011D01*
X4280548Y1159215D01*
X4281329Y1157419D01*
X4281798Y1156481D01*
X4282344Y1155544D01*
X4282969Y1154607D01*
X4283750Y1153748D01*
X4283828Y1153670D01*
X4283984Y1153592D01*
X4284219Y1153357D01*
X4284531Y1153045D01*
X4285078Y1152733D01*
X4285625Y1152342D01*
X4286328Y1151952D01*
X4287187Y1151561D01*
X4288124Y1151092D01*
X4289217Y1150702D01*
X4290467Y1150312D01*
X4291794Y1149999D01*
X4293356Y1149687D01*
X4294997Y1149452D01*
X4296793Y1149374D01*
X4298745Y1149296D01*
X4311866D01*
Y1128365D01*
X4318661D01*
Y1179677D01*
D02*
G37*
G36*
X4076707Y1179677D02*
X4044530D01*
Y1127506D01*
Y1146563D01*
X4044608Y1145938D01*
X4044686Y1145079D01*
X4044764Y1144220D01*
X4044920Y1143126D01*
X4045155Y1142033D01*
X4045701Y1139690D01*
X4046092Y1138440D01*
X4046561Y1137191D01*
X4047107Y1135941D01*
X4047732Y1134770D01*
X4048435Y1133676D01*
X4049294Y1132661D01*
X4049372Y1132583D01*
X4049528Y1132427D01*
X4049763Y1132192D01*
X4050153Y1131880D01*
X4050544Y1131489D01*
X4051090Y1131021D01*
X4051715Y1130552D01*
X4052496Y1130083D01*
X4054136Y1129146D01*
X4056011Y1128287D01*
X4057104Y1127975D01*
X4058197Y1127741D01*
X4059369Y1127584D01*
X4060619Y1127506D01*
X4061243D01*
X4061712Y1127584D01*
X4062259Y1127662D01*
X4062883Y1127819D01*
X4064367Y1128209D01*
X4065148Y1128443D01*
X4066007Y1128834D01*
X4066867Y1129303D01*
X4067726Y1129849D01*
X4068507Y1130474D01*
X4069366Y1131177D01*
X4070147Y1132036D01*
X4070850Y1132973D01*
Y1128365D01*
X4076707D01*
Y1179677D01*
D02*
G37*
G36*
X4232829Y1166400D02*
X4216038D01*
X4232126D01*
X4231579Y1166322D01*
X4230877Y1166244D01*
X4230174Y1166166D01*
X4229315Y1166010D01*
X4228377Y1165775D01*
X4226425Y1165150D01*
X4225409Y1164760D01*
X4224316Y1164291D01*
X4223301Y1163667D01*
X4222285Y1162964D01*
X4221270Y1162183D01*
X4220333Y1161324D01*
X4220255Y1161245D01*
X4220099Y1161089D01*
X4219864Y1160777D01*
X4219552Y1160386D01*
X4219162Y1159918D01*
X4218771Y1159293D01*
X4218302Y1158512D01*
X4217834Y1157731D01*
X4217443Y1156794D01*
X4216975Y1155700D01*
X4216584Y1154607D01*
X4216194Y1153357D01*
X4215881Y1152030D01*
X4215647Y1150546D01*
X4215491Y1149062D01*
X4215413Y1147422D01*
Y1147344D01*
Y1147109D01*
Y1146719D01*
Y1146250D01*
X4215491Y1145626D01*
Y1144923D01*
X4215569Y1144142D01*
X4215647Y1143283D01*
X4215959Y1141486D01*
X4216350Y1139612D01*
X4216897Y1137737D01*
X4217600Y1136097D01*
Y1136019D01*
X4217678Y1135941D01*
X4217990Y1135394D01*
X4218537Y1134691D01*
X4219240Y1133754D01*
X4220099Y1132739D01*
X4221192Y1131724D01*
X4222442Y1130708D01*
X4223926Y1129771D01*
X4224004D01*
X4224082Y1129693D01*
X4224316Y1129537D01*
X4224628Y1129459D01*
X4225488Y1129068D01*
X4226581Y1128678D01*
X4227909Y1128209D01*
X4229393Y1127897D01*
X4231033Y1127584D01*
X4232829Y1127506D01*
X4216038D01*
X4233610D01*
X4234157Y1127584D01*
X4234782Y1127662D01*
X4235562Y1127741D01*
X4236422Y1127897D01*
X4237359Y1128131D01*
X4239311Y1128756D01*
X4240405Y1129146D01*
X4241420Y1129615D01*
X4242513Y1130162D01*
X4243529Y1130865D01*
X4244544Y1131646D01*
X4245481Y1132505D01*
X4245559Y1132583D01*
X4245716Y1132739D01*
X4245950Y1133051D01*
X4246184Y1133442D01*
X4246575Y1133989D01*
X4246965Y1134613D01*
X4247434Y1135316D01*
X4247824Y1136175D01*
X4248293Y1137191D01*
X4248761Y1138206D01*
X4249152Y1139456D01*
X4249464Y1140705D01*
X4249777Y1142111D01*
X4250011Y1143595D01*
X4250167Y1145235D01*
X4250245Y1146953D01*
Y1147422D01*
X4250167Y1147968D01*
Y1148671D01*
X4250089Y1149531D01*
X4249933Y1150468D01*
X4249777Y1151561D01*
X4249542Y1152733D01*
X4249230Y1153982D01*
X4248840Y1155232D01*
X4248371Y1156481D01*
X4247824Y1157731D01*
X4247199Y1158981D01*
X4246418Y1160152D01*
X4245559Y1161245D01*
X4244544Y1162261D01*
X4244466Y1162339D01*
X4244310Y1162417D01*
X4244075Y1162651D01*
X4243685Y1162886D01*
X4243216Y1163198D01*
X4242670Y1163589D01*
X4242045Y1163979D01*
X4241264Y1164370D01*
X4240483Y1164682D01*
X4239624Y1165072D01*
X4237593Y1165775D01*
X4235328Y1166244D01*
X4234079Y1166322D01*
X4232829Y1166400D01*
D02*
G37*
G36*
X4201745Y1165541D02*
Y1113292D01*
D01*
Y1125320D01*
X4201823Y1124773D01*
Y1124070D01*
X4201980Y1122664D01*
X4202214Y1121024D01*
X4202526Y1119462D01*
X4202917Y1117978D01*
X4203229Y1117353D01*
X4203542Y1116807D01*
X4203620Y1116650D01*
X4204010Y1116260D01*
X4204557Y1115713D01*
X4205338Y1115088D01*
X4206431Y1114386D01*
X4207759Y1113839D01*
X4209321Y1113448D01*
X4210180Y1113370D01*
X4211115Y1113292D01*
X4211509D01*
X4212054Y1113370D01*
X4212679D01*
X4213382Y1113448D01*
X4214241Y1113604D01*
X4216038Y1113995D01*
X4214866Y1119384D01*
X4214788D01*
X4214554Y1119306D01*
X4214163Y1119228D01*
X4213773Y1119150D01*
X4212757Y1118915D01*
X4212289Y1118837D01*
X4211586D01*
X4211273Y1118915D01*
X4210805Y1118993D01*
X4210414Y1119150D01*
X4209946Y1119384D01*
X4209477Y1119696D01*
X4209087Y1120165D01*
X4209008Y1120243D01*
X4208930Y1120477D01*
X4208774Y1120868D01*
X4208540Y1121415D01*
X4208384Y1122274D01*
X4208227Y1123367D01*
X4208149Y1124070D01*
Y1124851D01*
X4208071Y1125632D01*
Y1126569D01*
Y1165541D01*
X4201745D01*
D01*
D02*
G37*
G36*
X3967484Y1102405D02*
X3950771D01*
X3949990Y1102327D01*
X3948975Y1102171D01*
X3947803Y1101936D01*
X3946475Y1101624D01*
X3945148Y1101155D01*
X3943820Y1100531D01*
X3943742D01*
X3943664Y1100452D01*
X3943195Y1100218D01*
X3942570Y1099828D01*
X3941789Y1099281D01*
X3940930Y1098578D01*
X3939993Y1097719D01*
X3939134Y1096704D01*
X3938353Y1095610D01*
X3938275Y1095454D01*
X3938041Y1095063D01*
X3937728Y1094439D01*
X3937416Y1093658D01*
X3937103Y1092642D01*
X3936791Y1091549D01*
X3936557Y1090378D01*
X3936479Y1089050D01*
Y1088894D01*
Y1088503D01*
X3936557Y1087878D01*
X3936713Y1087097D01*
X3936947Y1086160D01*
X3937260Y1085145D01*
X3937650Y1084051D01*
X3938275Y1083036D01*
X3938353Y1082880D01*
X3938587Y1082568D01*
X3939056Y1082099D01*
X3939603Y1081474D01*
X3940384Y1080771D01*
X3941243Y1080068D01*
X3942336Y1079287D01*
X3943586Y1078662D01*
X3943508D01*
X3943351Y1078584D01*
X3943117D01*
X3942805Y1078428D01*
X3942024Y1078194D01*
X3941008Y1077725D01*
X3939915Y1077179D01*
X3938744Y1076398D01*
X3937572Y1075460D01*
X3936557Y1074289D01*
X3936479Y1074133D01*
X3936166Y1073664D01*
X3935776Y1072961D01*
X3935229Y1072024D01*
X3934760Y1070852D01*
X3934370Y1069447D01*
X3934057Y1067807D01*
X3933979Y1066010D01*
Y1066245D01*
Y1050000D01*
Y1065386D01*
X3934057Y1064917D01*
X3934136Y1064292D01*
X3934214Y1063667D01*
X3934370Y1062886D01*
X3934604Y1062105D01*
X3935151Y1060309D01*
X3935541Y1059294D01*
X3936088Y1058357D01*
X3936635Y1057419D01*
X3937260Y1056482D01*
X3938041Y1055545D01*
X3938900Y1054608D01*
X3938978Y1054530D01*
X3939134Y1054373D01*
X3939368Y1054217D01*
X3939759Y1053905D01*
X3940227Y1053514D01*
X3940852Y1053124D01*
X3941555Y1052733D01*
X3942258Y1052343D01*
X3943117Y1051874D01*
X3944054Y1051484D01*
X3945070Y1051093D01*
X3946163Y1050703D01*
X3947334Y1050390D01*
X3948584Y1050234D01*
X3949912Y1050078D01*
X3951240Y1050000D01*
X3933979D01*
X3967484D01*
X3951864D01*
X3952333Y1050078D01*
X3952958Y1050156D01*
X3953582Y1050234D01*
X3954363Y1050312D01*
X3955144Y1050468D01*
X3956941Y1050937D01*
X3958815Y1051718D01*
X3959752Y1052109D01*
X3960611Y1052655D01*
X3961549Y1053280D01*
X3962408Y1053983D01*
X3962486Y1054061D01*
X3962564Y1054139D01*
X3962798Y1054373D01*
X3963111Y1054686D01*
X3963423Y1055154D01*
X3963814Y1055623D01*
X3964282Y1056170D01*
X3964673Y1056794D01*
X3965610Y1058357D01*
X3966391Y1060153D01*
X3967094Y1062183D01*
X3967328Y1063277D01*
X3967484Y1064448D01*
X3961158Y1065307D01*
Y1065229D01*
X3961080Y1065073D01*
Y1064761D01*
X3960924Y1064448D01*
X3960690Y1063511D01*
X3960299Y1062340D01*
X3959831Y1061090D01*
X3959206Y1059762D01*
X3958425Y1058591D01*
X3957566Y1057575D01*
X3957409Y1057497D01*
X3957097Y1057185D01*
X3956550Y1056873D01*
X3955769Y1056404D01*
X3954910Y1056014D01*
X3953817Y1055623D01*
X3952567Y1055311D01*
X3951240Y1055233D01*
X3950771D01*
X3950459Y1055311D01*
X3949677Y1055389D01*
X3948662Y1055623D01*
X3947413Y1056014D01*
X3946163Y1056482D01*
X3944913Y1057263D01*
X3943742Y1058278D01*
X3943586Y1058435D01*
X3943273Y1058825D01*
X3942805Y1059450D01*
X3942180Y1060387D01*
X3941633Y1061480D01*
X3941165Y1062808D01*
X3940852Y1064292D01*
X3940696Y1065932D01*
Y1066010D01*
Y1066088D01*
Y1066323D01*
X3940774Y1066635D01*
X3940852Y1067416D01*
X3941086Y1068431D01*
X3941399Y1069525D01*
X3941946Y1070774D01*
X3942648Y1071946D01*
X3943586Y1073039D01*
X3943742Y1073196D01*
X3944054Y1073508D01*
X3944679Y1073898D01*
X3945538Y1074445D01*
X3946553Y1074992D01*
X3947803Y1075382D01*
X3949131Y1075695D01*
X3950693Y1075851D01*
X3951396D01*
X3951942Y1075773D01*
X3952567Y1075695D01*
X3953348Y1075617D01*
X3954207Y1075460D01*
X3955144Y1075226D01*
X3954442Y1080771D01*
X3954051D01*
X3953739Y1080693D01*
X3952723D01*
X3952021Y1080771D01*
X3951005Y1080927D01*
X3949912Y1081162D01*
X3948740Y1081552D01*
X3947491Y1082021D01*
X3946241Y1082724D01*
X3946085Y1082802D01*
X3945694Y1083114D01*
X3945226Y1083661D01*
X3944601Y1084364D01*
X3943976Y1085223D01*
X3943508Y1086316D01*
X3943117Y1087644D01*
X3942961Y1089206D01*
Y1089284D01*
Y1089362D01*
Y1089753D01*
X3943117Y1090378D01*
X3943273Y1091237D01*
X3943508Y1092096D01*
X3943976Y1093033D01*
X3944523Y1094048D01*
X3945304Y1094907D01*
X3945382Y1094985D01*
X3945694Y1095298D01*
X3946241Y1095688D01*
X3946944Y1096079D01*
X3947803Y1096547D01*
X3948818Y1096860D01*
X3949990Y1097172D01*
X3951318Y1097250D01*
X3951942D01*
X3952645Y1097094D01*
X3953426Y1096938D01*
X3954442Y1096704D01*
X3955457Y1096235D01*
X3956472Y1095688D01*
X3957488Y1094907D01*
X3957566Y1094829D01*
X3957878Y1094517D01*
X3958269Y1093970D01*
X3958737Y1093189D01*
X3959284Y1092252D01*
X3959752Y1091080D01*
X3960221Y1089675D01*
X3960533Y1088034D01*
X3966860Y1089128D01*
Y1089206D01*
X3966781Y1089440D01*
X3966703Y1089753D01*
X3966625Y1090143D01*
X3966469Y1090690D01*
X3966313Y1091315D01*
X3965766Y1092720D01*
X3965141Y1094283D01*
X3964204Y1095923D01*
X3963111Y1097485D01*
X3961705Y1098890D01*
X3961627Y1098968D01*
X3961549Y1099047D01*
X3961314Y1099203D01*
X3960924Y1099437D01*
X3960533Y1099671D01*
X3960065Y1099984D01*
X3958893Y1100687D01*
X3957409Y1101312D01*
X3955613Y1101858D01*
X3953661Y1102249D01*
X3952567Y1102405D01*
X3967484D01*
D02*
G37*
G36*
X4187492Y1102405D02*
X4168982D01*
X4168436Y1102327D01*
X4167811Y1102249D01*
X4167108Y1102171D01*
X4166327Y1102093D01*
X4165468Y1101858D01*
X4163593Y1101390D01*
X4161641Y1100687D01*
X4160626Y1100218D01*
X4159688Y1099671D01*
X4158829Y1098969D01*
X4157970Y1098266D01*
X4157892Y1098188D01*
X4157814Y1098110D01*
X4157580Y1097875D01*
X4157267Y1097563D01*
X4156955Y1097094D01*
X4156564Y1096626D01*
X4155783Y1095454D01*
X4155002Y1093970D01*
X4154300Y1092252D01*
X4153753Y1090300D01*
X4153675Y1089206D01*
X4153597Y1088113D01*
Y1087957D01*
Y1087566D01*
X4153675Y1086941D01*
X4153753Y1086160D01*
X4153909Y1085223D01*
X4154143Y1084208D01*
X4154456Y1083114D01*
X4154924Y1082021D01*
X4155002Y1081865D01*
X4155159Y1081474D01*
X4155471Y1080928D01*
X4155940Y1080147D01*
X4156486Y1079209D01*
X4157189Y1078116D01*
X4158126Y1077023D01*
X4159142Y1075773D01*
X4159298Y1075617D01*
X4159688Y1075148D01*
X4160391Y1074445D01*
X4160860Y1073977D01*
X4161407Y1073430D01*
X4162031Y1072805D01*
X4162812Y1072102D01*
X4163593Y1071399D01*
X4164453Y1070540D01*
X4165390Y1069681D01*
X4166483Y1068744D01*
X4167577Y1067807D01*
X4168826Y1066713D01*
X4168904Y1066635D01*
X4169060Y1066479D01*
X4169373Y1066245D01*
X4169763Y1065932D01*
X4170700Y1065151D01*
X4171872Y1064136D01*
X4173043Y1063043D01*
X4174293Y1061949D01*
X4175308Y1061012D01*
X4175699Y1060621D01*
X4176089Y1060231D01*
X4176167Y1060153D01*
X4176324Y1059919D01*
X4176636Y1059606D01*
X4177027Y1059138D01*
X4177886Y1058122D01*
X4178745Y1056873D01*
X4153519D01*
Y1050859D01*
X4187492D01*
Y1052890D01*
Y1051718D01*
X4187414Y1052265D01*
X4187336Y1052890D01*
X4187258Y1053592D01*
X4187023Y1054373D01*
X4186789Y1055155D01*
Y1055233D01*
X4186711Y1055311D01*
X4186555Y1055779D01*
X4186242Y1056404D01*
X4185774Y1057341D01*
X4185227Y1058357D01*
X4184446Y1059528D01*
X4183665Y1060700D01*
X4182650Y1061949D01*
Y1062027D01*
X4182494Y1062105D01*
X4182103Y1062574D01*
X4181478Y1063277D01*
X4180541Y1064214D01*
X4179370Y1065307D01*
X4177964Y1066635D01*
X4176246Y1068119D01*
X4174371Y1069759D01*
X4174293Y1069837D01*
X4173981Y1070072D01*
X4173590Y1070384D01*
X4173043Y1070931D01*
X4172341Y1071477D01*
X4171560Y1072180D01*
X4169841Y1073664D01*
X4167967Y1075460D01*
X4166093Y1077257D01*
X4165155Y1078116D01*
X4164374Y1078975D01*
X4163672Y1079834D01*
X4163047Y1080615D01*
Y1080693D01*
X4162891Y1080771D01*
X4162734Y1081006D01*
X4162578Y1081318D01*
X4162109Y1082099D01*
X4161563Y1083114D01*
X4161016Y1084286D01*
X4160547Y1085535D01*
X4160235Y1086941D01*
X4160079Y1088269D01*
Y1088347D01*
Y1088425D01*
X4160157Y1088894D01*
X4160235Y1089597D01*
X4160391Y1090456D01*
X4160782Y1091471D01*
X4161250Y1092486D01*
X4161875Y1093580D01*
X4162812Y1094595D01*
X4162969Y1094673D01*
X4163281Y1094986D01*
X4163906Y1095376D01*
X4164687Y1095923D01*
X4165702Y1096391D01*
X4166874Y1096782D01*
X4168279Y1097094D01*
X4169841Y1097172D01*
X4170310D01*
X4170622Y1097094D01*
X4171403Y1097016D01*
X4172419Y1096860D01*
X4173590Y1096469D01*
X4174840Y1096001D01*
X4176011Y1095298D01*
X4177105Y1094361D01*
X4177183Y1094205D01*
X4177495Y1093892D01*
X4177964Y1093267D01*
X4178432Y1092408D01*
X4178979Y1091315D01*
X4179370Y1090065D01*
X4179682Y1088581D01*
X4179838Y1086863D01*
X4186320Y1087566D01*
Y1087644D01*
Y1087878D01*
X4186242Y1088269D01*
X4186164Y1088737D01*
X4186008Y1089362D01*
X4185930Y1090065D01*
X4185461Y1091627D01*
X4184837Y1093424D01*
X4183977Y1095220D01*
X4182806Y1097016D01*
X4182181Y1097797D01*
X4181400Y1098578D01*
X4181322Y1098656D01*
X4181166Y1098734D01*
X4180932Y1098969D01*
X4180619Y1099203D01*
X4180151Y1099437D01*
X4179604Y1099828D01*
X4178979Y1100140D01*
X4178276Y1100531D01*
X4177495Y1100843D01*
X4176636Y1101234D01*
X4175621Y1101546D01*
X4174605Y1101780D01*
X4172262Y1102249D01*
X4171013Y1102327D01*
X4169685Y1102405D01*
X4187492D01*
D02*
G37*
G36*
X4107830Y1102405D02*
X4089320D01*
X4088774Y1102327D01*
X4088149Y1102249D01*
X4087446Y1102171D01*
X4086665Y1102092D01*
X4085806Y1101858D01*
X4083931Y1101390D01*
X4081979Y1100687D01*
X4080964Y1100218D01*
X4080026Y1099671D01*
X4079167Y1098968D01*
X4078308Y1098266D01*
X4078230Y1098188D01*
X4078152Y1098109D01*
X4077918Y1097875D01*
X4077605Y1097563D01*
X4077293Y1097094D01*
X4076902Y1096626D01*
X4076121Y1095454D01*
X4075340Y1093970D01*
X4074637Y1092252D01*
X4074091Y1090299D01*
X4074013Y1089206D01*
X4073935Y1088113D01*
Y1087956D01*
Y1087566D01*
X4074013Y1086941D01*
X4074091Y1086160D01*
X4074247Y1085223D01*
X4074481Y1084208D01*
X4074794Y1083114D01*
X4075262Y1082021D01*
X4075340Y1081865D01*
X4075497Y1081474D01*
X4075809Y1080927D01*
X4076278Y1080146D01*
X4076824Y1079209D01*
X4077527Y1078116D01*
X4078464Y1077022D01*
X4079480Y1075773D01*
X4079636Y1075617D01*
X4080026Y1075148D01*
X4080729Y1074445D01*
X4081198Y1073976D01*
X4081745Y1073430D01*
X4082369Y1072805D01*
X4083150Y1072102D01*
X4083931Y1071399D01*
X4084791Y1070540D01*
X4085728Y1069681D01*
X4086821Y1068744D01*
X4087914Y1067807D01*
X4089164Y1066713D01*
X4089242Y1066635D01*
X4089398Y1066479D01*
X4089711Y1066245D01*
X4090101Y1065932D01*
X4091039Y1065151D01*
X4092210Y1064136D01*
X4093381Y1063043D01*
X4094631Y1061949D01*
X4095646Y1061012D01*
X4096037Y1060621D01*
X4096427Y1060231D01*
X4096506Y1060153D01*
X4096662Y1059918D01*
X4096974Y1059606D01*
X4097365Y1059138D01*
X4098224Y1058122D01*
X4099083Y1056873D01*
X4073856D01*
Y1050859D01*
X4107830D01*
Y1051718D01*
X4107752Y1052265D01*
X4107674Y1052889D01*
X4107596Y1053592D01*
X4107361Y1054373D01*
X4107127Y1055154D01*
Y1055233D01*
X4107049Y1055311D01*
X4106893Y1055779D01*
X4106580Y1056404D01*
X4106112Y1057341D01*
X4105565Y1058357D01*
X4104784Y1059528D01*
X4104003Y1060699D01*
X4102988Y1061949D01*
Y1062027D01*
X4102832Y1062105D01*
X4102441Y1062574D01*
X4101816Y1063277D01*
X4100879Y1064214D01*
X4099708Y1065307D01*
X4098302Y1066635D01*
X4096584Y1068119D01*
X4094709Y1069759D01*
X4094631Y1069837D01*
X4094319Y1070072D01*
X4093928Y1070384D01*
X4093381Y1070931D01*
X4092679Y1071477D01*
X4091898Y1072180D01*
X4090179Y1073664D01*
X4088305Y1075460D01*
X4086431Y1077257D01*
X4085493Y1078116D01*
X4084712Y1078975D01*
X4084010Y1079834D01*
X4083385Y1080615D01*
Y1080693D01*
X4083229Y1080771D01*
X4083072Y1081005D01*
X4082916Y1081318D01*
X4082448Y1082099D01*
X4081901Y1083114D01*
X4081354Y1084286D01*
X4080885Y1085535D01*
X4080573Y1086941D01*
X4080417Y1088269D01*
Y1088347D01*
Y1088425D01*
X4080495Y1088894D01*
X4080573Y1089597D01*
X4080729Y1090456D01*
X4081120Y1091471D01*
X4081588Y1092486D01*
X4082213Y1093580D01*
X4083150Y1094595D01*
X4083307Y1094673D01*
X4083619Y1094985D01*
X4084244Y1095376D01*
X4085025Y1095923D01*
X4086040Y1096391D01*
X4087212Y1096782D01*
X4088617Y1097094D01*
X4090179Y1097172D01*
X4090648D01*
X4090960Y1097094D01*
X4091741Y1097016D01*
X4092757Y1096860D01*
X4093928Y1096469D01*
X4095178Y1096001D01*
X4096349Y1095298D01*
X4097443Y1094361D01*
X4097521Y1094204D01*
X4097833Y1093892D01*
X4098302Y1093267D01*
X4098770Y1092408D01*
X4099317Y1091315D01*
X4099708Y1090065D01*
X4100020Y1088581D01*
X4100176Y1086863D01*
X4106658Y1087566D01*
Y1087644D01*
Y1087878D01*
X4106580Y1088269D01*
X4106502Y1088737D01*
X4106346Y1089362D01*
X4106268Y1090065D01*
X4105799Y1091627D01*
X4105175Y1093423D01*
X4104315Y1095220D01*
X4103144Y1097016D01*
X4102519Y1097797D01*
X4101738Y1098578D01*
X4101660Y1098656D01*
X4101504Y1098734D01*
X4101270Y1098968D01*
X4100957Y1099203D01*
X4100489Y1099437D01*
X4099942Y1099828D01*
X4099317Y1100140D01*
X4098614Y1100531D01*
X4097833Y1100843D01*
X4096974Y1101233D01*
X4095959Y1101546D01*
X4094943Y1101780D01*
X4092601Y1102249D01*
X4091351Y1102327D01*
X4090023Y1102405D01*
X4107830D01*
D02*
G37*
G36*
X4067999D02*
X4049489D01*
X4048943Y1102327D01*
X4048318Y1102249D01*
X4047615Y1102171D01*
X4046834Y1102092D01*
X4045975Y1101858D01*
X4044100Y1101390D01*
X4042148Y1100687D01*
X4041133Y1100218D01*
X4040195Y1099671D01*
X4039336Y1098968D01*
X4038477Y1098266D01*
X4038399Y1098188D01*
X4038321Y1098109D01*
X4038087Y1097875D01*
X4037774Y1097563D01*
X4037462Y1097094D01*
X4037071Y1096626D01*
X4036290Y1095454D01*
X4035509Y1093970D01*
X4034807Y1092252D01*
X4034260Y1090299D01*
X4034182Y1089206D01*
X4034104Y1088113D01*
Y1087956D01*
Y1087566D01*
X4034182Y1086941D01*
X4034260Y1086160D01*
X4034416Y1085223D01*
X4034650Y1084208D01*
X4034963Y1083114D01*
X4035431Y1082021D01*
X4035509Y1081865D01*
X4035666Y1081474D01*
X4035978Y1080927D01*
X4036447Y1080146D01*
X4036993Y1079209D01*
X4037696Y1078116D01*
X4038633Y1077022D01*
X4039649Y1075773D01*
X4039805Y1075617D01*
X4040195Y1075148D01*
X4040898Y1074445D01*
X4041367Y1073976D01*
X4041914Y1073430D01*
X4042538Y1072805D01*
X4043319Y1072102D01*
X4044100Y1071399D01*
X4044959Y1070540D01*
X4045897Y1069681D01*
X4046990Y1068744D01*
X4048084Y1067807D01*
X4049333Y1066713D01*
X4049411Y1066635D01*
X4049567Y1066479D01*
X4049880Y1066245D01*
X4050270Y1065932D01*
X4051207Y1065151D01*
X4052379Y1064136D01*
X4053550Y1063043D01*
X4054800Y1061949D01*
X4055815Y1061012D01*
X4056206Y1060621D01*
X4056596Y1060231D01*
X4056675Y1060153D01*
X4056831Y1059918D01*
X4057143Y1059606D01*
X4057534Y1059138D01*
X4058393Y1058122D01*
X4059252Y1056873D01*
X4034026D01*
Y1050859D01*
X4067999D01*
Y1052343D01*
Y1051718D01*
X4067921Y1052265D01*
X4067843Y1052889D01*
X4067765Y1053592D01*
X4067530Y1054373D01*
X4067296Y1055154D01*
Y1055233D01*
X4067218Y1055311D01*
X4067062Y1055779D01*
X4066749Y1056404D01*
X4066281Y1057341D01*
X4065734Y1058357D01*
X4064953Y1059528D01*
X4064172Y1060699D01*
X4063157Y1061949D01*
Y1062027D01*
X4063001Y1062105D01*
X4062610Y1062574D01*
X4061985Y1063277D01*
X4061048Y1064214D01*
X4059877Y1065307D01*
X4058471Y1066635D01*
X4056753Y1068119D01*
X4054878Y1069759D01*
X4054800Y1069837D01*
X4054488Y1070072D01*
X4054097Y1070384D01*
X4053550Y1070931D01*
X4052848Y1071477D01*
X4052067Y1072180D01*
X4050348Y1073664D01*
X4048474Y1075460D01*
X4046600Y1077257D01*
X4045662Y1078116D01*
X4044881Y1078975D01*
X4044178Y1079834D01*
X4043554Y1080615D01*
Y1080693D01*
X4043398Y1080771D01*
X4043241Y1081005D01*
X4043085Y1081318D01*
X4042617Y1082099D01*
X4042070Y1083114D01*
X4041523Y1084286D01*
X4041055Y1085535D01*
X4040742Y1086941D01*
X4040586Y1088269D01*
Y1088347D01*
Y1088425D01*
X4040664Y1088894D01*
X4040742Y1089597D01*
X4040898Y1090456D01*
X4041289Y1091471D01*
X4041757Y1092486D01*
X4042382Y1093580D01*
X4043319Y1094595D01*
X4043476Y1094673D01*
X4043788Y1094985D01*
X4044413Y1095376D01*
X4045194Y1095923D01*
X4046209Y1096391D01*
X4047381Y1096782D01*
X4048786Y1097094D01*
X4050348Y1097172D01*
X4050817D01*
X4051129Y1097094D01*
X4051910Y1097016D01*
X4052926Y1096860D01*
X4054097Y1096469D01*
X4055347Y1096001D01*
X4056518Y1095298D01*
X4057612Y1094361D01*
X4057690Y1094204D01*
X4058002Y1093892D01*
X4058471Y1093267D01*
X4058939Y1092408D01*
X4059486Y1091315D01*
X4059877Y1090065D01*
X4060189Y1088581D01*
X4060345Y1086863D01*
X4066827Y1087566D01*
Y1087644D01*
Y1087878D01*
X4066749Y1088269D01*
X4066671Y1088737D01*
X4066515Y1089362D01*
X4066437Y1090065D01*
X4065968Y1091627D01*
X4065344Y1093423D01*
X4064485Y1095220D01*
X4063313Y1097016D01*
X4062688Y1097797D01*
X4061907Y1098578D01*
X4061829Y1098656D01*
X4061673Y1098734D01*
X4061439Y1098968D01*
X4061126Y1099203D01*
X4060658Y1099437D01*
X4060111Y1099828D01*
X4059486Y1100140D01*
X4058783Y1100531D01*
X4058002Y1100843D01*
X4057143Y1101233D01*
X4056128Y1101546D01*
X4055113Y1101780D01*
X4052769Y1102249D01*
X4051520Y1102327D01*
X4050192Y1102405D01*
X4067999D01*
D02*
G37*
G36*
X4008253D02*
X3989743D01*
X3989196Y1102327D01*
X3988571Y1102249D01*
X3987868Y1102171D01*
X3987087Y1102092D01*
X3986228Y1101858D01*
X3984354Y1101390D01*
X3982401Y1100687D01*
X3981386Y1100218D01*
X3980449Y1099671D01*
X3979590Y1098968D01*
X3978731Y1098266D01*
X3978653Y1098188D01*
X3978575Y1098109D01*
X3978340Y1097875D01*
X3978028Y1097563D01*
X3977715Y1097094D01*
X3977325Y1096626D01*
X3976544Y1095454D01*
X3975763Y1093970D01*
X3975060Y1092252D01*
X3974513Y1090299D01*
X3974435Y1089206D01*
X3974357Y1088113D01*
Y1087956D01*
Y1087566D01*
X3974435Y1086941D01*
X3974513Y1086160D01*
X3974669Y1085223D01*
X3974904Y1084208D01*
X3975216Y1083114D01*
X3975685Y1082021D01*
X3975763Y1081865D01*
X3975919Y1081474D01*
X3976231Y1080927D01*
X3976700Y1080146D01*
X3977247Y1079209D01*
X3977950Y1078116D01*
X3978887Y1077022D01*
X3979902Y1075773D01*
X3980058Y1075617D01*
X3980449Y1075148D01*
X3981152Y1074445D01*
X3981620Y1073976D01*
X3982167Y1073430D01*
X3982792Y1072805D01*
X3983573Y1072102D01*
X3984354Y1071399D01*
X3985213Y1070540D01*
X3986150Y1069681D01*
X3987244Y1068744D01*
X3988337Y1067807D01*
X3989587Y1066713D01*
X3989665Y1066635D01*
X3989821Y1066479D01*
X3990133Y1066245D01*
X3990524Y1065932D01*
X3991461Y1065151D01*
X3992633Y1064136D01*
X3993804Y1063043D01*
X3995054Y1061949D01*
X3996069Y1061012D01*
X3996459Y1060621D01*
X3996850Y1060231D01*
X3996928Y1060153D01*
X3997084Y1059918D01*
X3997397Y1059606D01*
X3997787Y1059138D01*
X3998646Y1058122D01*
X3999505Y1056873D01*
X3974279D01*
Y1050859D01*
X4008253D01*
Y1051718D01*
X4008174Y1052265D01*
X4008096Y1052889D01*
X4008018Y1053592D01*
X4007784Y1054373D01*
X4007550Y1055154D01*
Y1055233D01*
X4007472Y1055311D01*
X4007315Y1055779D01*
X4007003Y1056404D01*
X4006534Y1057341D01*
X4005988Y1058357D01*
X4005207Y1059528D01*
X4004426Y1060699D01*
X4003410Y1061949D01*
Y1062027D01*
X4003254Y1062105D01*
X4002864Y1062574D01*
X4002239Y1063277D01*
X4001302Y1064214D01*
X4000130Y1065307D01*
X3998724Y1066635D01*
X3997006Y1068119D01*
X3995132Y1069759D01*
X3995054Y1069837D01*
X3994741Y1070072D01*
X3994351Y1070384D01*
X3993804Y1070931D01*
X3993101Y1071477D01*
X3992320Y1072180D01*
X3990602Y1073664D01*
X3988727Y1075460D01*
X3986853Y1077257D01*
X3985916Y1078116D01*
X3985135Y1078975D01*
X3984432Y1079834D01*
X3983807Y1080615D01*
Y1080693D01*
X3983651Y1080771D01*
X3983495Y1081005D01*
X3983339Y1081318D01*
X3982870Y1082099D01*
X3982323Y1083114D01*
X3981777Y1084286D01*
X3981308Y1085535D01*
X3980996Y1086941D01*
X3980839Y1088269D01*
Y1088347D01*
Y1088425D01*
X3980918Y1088894D01*
X3980996Y1089597D01*
X3981152Y1090456D01*
X3981542Y1091471D01*
X3982011Y1092486D01*
X3982636Y1093580D01*
X3983573Y1094595D01*
X3983729Y1094673D01*
X3984041Y1094985D01*
X3984666Y1095376D01*
X3985447Y1095923D01*
X3986463Y1096391D01*
X3987634Y1096782D01*
X3989040Y1097094D01*
X3990602Y1097172D01*
X3991070D01*
X3991383Y1097094D01*
X3992164Y1097016D01*
X3993179Y1096860D01*
X3994351Y1096469D01*
X3995600Y1096001D01*
X3996772Y1095298D01*
X3997865Y1094361D01*
X3997943Y1094204D01*
X3998256Y1093892D01*
X3998724Y1093267D01*
X3999193Y1092408D01*
X3999740Y1091315D01*
X4000130Y1090065D01*
X4000443Y1088581D01*
X4000599Y1086863D01*
X4007081Y1087566D01*
Y1087644D01*
Y1087878D01*
X4007003Y1088269D01*
X4006925Y1088737D01*
X4006769Y1089362D01*
X4006691Y1090065D01*
X4006222Y1091627D01*
X4005597Y1093423D01*
X4004738Y1095220D01*
X4003566Y1097016D01*
X4002942Y1097797D01*
X4002161Y1098578D01*
X4002083Y1098656D01*
X4001926Y1098734D01*
X4001692Y1098968D01*
X4001380Y1099203D01*
X4000911Y1099437D01*
X4000364Y1099828D01*
X3999740Y1100140D01*
X3999037Y1100531D01*
X3998256Y1100843D01*
X3997397Y1101233D01*
X3996381Y1101546D01*
X3995366Y1101780D01*
X3993023Y1102249D01*
X3991773Y1102327D01*
X3990446Y1102405D01*
X4008253D01*
D02*
G37*
G36*
X4391021Y1102171D02*
X4367200D01*
X4366575Y1102093D01*
X4365950D01*
X4364389Y1102014D01*
X4362748Y1101858D01*
X4361030Y1101546D01*
X4359390Y1101234D01*
X4358609Y1100999D01*
X4357906Y1100765D01*
X4357828D01*
X4357750Y1100687D01*
X4357281Y1100531D01*
X4356657Y1100140D01*
X4355876Y1099593D01*
X4354938Y1098969D01*
X4354001Y1098110D01*
X4353064Y1097094D01*
X4352205Y1095845D01*
X4352127Y1095688D01*
X4351892Y1095220D01*
X4351502Y1094517D01*
X4351111Y1093580D01*
X4350721Y1092408D01*
X4350331Y1091081D01*
X4350096Y1089675D01*
X4350018Y1088113D01*
Y1088035D01*
Y1087878D01*
Y1087566D01*
X4350096Y1087176D01*
Y1086707D01*
X4350174Y1086160D01*
X4350487Y1084911D01*
X4350877Y1083427D01*
X4351502Y1081943D01*
X4352439Y1080381D01*
X4352986Y1079600D01*
X4353611Y1078897D01*
X4353767Y1078741D01*
X4354001Y1078584D01*
X4354235Y1078272D01*
X4354626Y1078038D01*
X4355095Y1077647D01*
X4355641Y1077335D01*
X4356266Y1076944D01*
X4356969Y1076554D01*
X4357828Y1076163D01*
X4358687Y1075773D01*
X4359703Y1075382D01*
X4360718Y1074992D01*
X4361889Y1074679D01*
X4363139Y1074445D01*
X4364467Y1074211D01*
X4364310Y1074133D01*
X4363998Y1073977D01*
X4363529Y1073742D01*
X4362983Y1073430D01*
X4361655Y1072571D01*
X4360952Y1072102D01*
X4360405Y1071634D01*
X4360249Y1071477D01*
X4359859Y1071165D01*
X4359312Y1070540D01*
X4358609Y1069759D01*
X4357750Y1068744D01*
X4356813Y1067572D01*
X4355797Y1066245D01*
X4354782Y1064761D01*
X4345879Y1050859D01*
X4357525D01*
X4354392D01*
X4361186Y1061481D01*
Y1061559D01*
X4361343Y1061715D01*
X4361499Y1061949D01*
X4361655Y1062262D01*
X4362202Y1063043D01*
X4362905Y1064058D01*
X4363686Y1065229D01*
X4364545Y1066401D01*
X4365326Y1067494D01*
X4366107Y1068510D01*
X4366185Y1068588D01*
X4366419Y1068900D01*
X4366810Y1069369D01*
X4367200Y1069915D01*
X4368372Y1071009D01*
X4368918Y1071555D01*
X4369543Y1071946D01*
X4369621Y1072024D01*
X4369777Y1072102D01*
X4370090Y1072258D01*
X4370480Y1072493D01*
X4371417Y1072961D01*
X4372589Y1073352D01*
X4372667D01*
X4372823Y1073430D01*
X4373136D01*
X4373526Y1073508D01*
X4374073Y1073586D01*
X4374698D01*
X4375479Y1073664D01*
X4384226D01*
Y1050859D01*
X4391021D01*
Y1102171D01*
D02*
G37*
G36*
X4244114D02*
X4237320D01*
Y1056873D01*
X4212093D01*
Y1050859D01*
X4244114D01*
Y1102171D01*
D02*
G37*
G36*
X4341661Y1103030D02*
X4300893D01*
X4320809D01*
X4320262Y1102952D01*
X4319715D01*
X4318388Y1102795D01*
X4316826Y1102561D01*
X4315107Y1102249D01*
X4313389Y1101780D01*
X4311749Y1101155D01*
X4311671D01*
X4311593Y1101077D01*
X4311359Y1100999D01*
X4311046Y1100843D01*
X4310265Y1100374D01*
X4309250Y1099828D01*
X4308157Y1099047D01*
X4307063Y1098110D01*
X4305970Y1097016D01*
X4305033Y1095766D01*
X4304954Y1095610D01*
X4304642Y1095142D01*
X4304252Y1094361D01*
X4303861Y1093424D01*
X4303392Y1092252D01*
X4302924Y1090846D01*
X4302611Y1089362D01*
X4302455Y1087722D01*
X4308938Y1087254D01*
Y1087332D01*
Y1087488D01*
X4309016Y1087722D01*
X4309094Y1088035D01*
X4309250Y1088894D01*
X4309562Y1089987D01*
X4310031Y1091159D01*
X4310656Y1092330D01*
X4311515Y1093502D01*
X4312530Y1094517D01*
X4312686Y1094595D01*
X4313077Y1094907D01*
X4313780Y1095298D01*
X4314717Y1095766D01*
X4315967Y1096235D01*
X4317529Y1096626D01*
X4319325Y1096938D01*
X4321434Y1097016D01*
X4322449D01*
X4322917Y1096938D01*
X4323542D01*
X4324870Y1096704D01*
X4326354Y1096469D01*
X4327838Y1096079D01*
X4329243Y1095532D01*
X4329868Y1095142D01*
X4330415Y1094751D01*
X4330493Y1094673D01*
X4330806Y1094361D01*
X4331274Y1093892D01*
X4331743Y1093189D01*
X4332289Y1092408D01*
X4332680Y1091471D01*
X4332992Y1090456D01*
X4333149Y1089284D01*
Y1089128D01*
Y1088816D01*
X4333070Y1088269D01*
X4332914Y1087644D01*
X4332680Y1086941D01*
X4332289Y1086160D01*
X4331821Y1085457D01*
X4331196Y1084754D01*
X4331118Y1084676D01*
X4330727Y1084442D01*
X4330493Y1084286D01*
X4330181Y1084052D01*
X4329712Y1083895D01*
X4329165Y1083661D01*
X4328541Y1083349D01*
X4327838Y1083036D01*
X4327057Y1082802D01*
X4326119Y1082489D01*
X4325026Y1082099D01*
X4323855Y1081787D01*
X4322527Y1081474D01*
X4321043Y1081084D01*
X4320965D01*
X4320653Y1081006D01*
X4320262Y1080928D01*
X4319715Y1080771D01*
X4319012Y1080615D01*
X4318231Y1080381D01*
X4316513Y1079990D01*
X4314639Y1079444D01*
X4312764Y1078897D01*
X4311827Y1078663D01*
X4311046Y1078350D01*
X4310265Y1078038D01*
X4309640Y1077803D01*
X4309562D01*
X4309406Y1077725D01*
X4309250Y1077569D01*
X4308938Y1077413D01*
X4308157Y1076944D01*
X4307141Y1076398D01*
X4306048Y1075617D01*
X4304954Y1074679D01*
X4303939Y1073664D01*
X4303080Y1072571D01*
X4303002Y1072415D01*
X4302768Y1072024D01*
X4302377Y1071399D01*
X4301987Y1070462D01*
X4301596Y1069447D01*
X4301206Y1068197D01*
X4300971Y1066791D01*
X4300893Y1065307D01*
Y1064605D01*
X4301049Y1063824D01*
X4301206Y1062808D01*
X4301440Y1061637D01*
X4301908Y1060309D01*
X4302455Y1058903D01*
X4303236Y1057576D01*
X4303314Y1057419D01*
X4303705Y1056951D01*
X4304173Y1056326D01*
X4304954Y1055545D01*
X4305892Y1054608D01*
X4307063Y1053671D01*
X4308469Y1052812D01*
X4310031Y1051952D01*
X4310109D01*
X4310265Y1051874D01*
X4310499Y1051796D01*
X4310812Y1051640D01*
X4311202Y1051484D01*
X4311671Y1051328D01*
X4312921Y1051015D01*
X4314326Y1050625D01*
X4316045Y1050312D01*
X4317841Y1050078D01*
X4319872Y1050000D01*
X4300893D01*
X4341661D01*
X4321043D01*
X4321590Y1050078D01*
X4322293D01*
X4323074Y1050156D01*
X4323933Y1050234D01*
X4325729Y1050468D01*
X4327681Y1050859D01*
X4329634Y1051328D01*
X4331508Y1051952D01*
X4331587D01*
X4331743Y1052031D01*
X4331977Y1052187D01*
X4332289Y1052343D01*
X4333149Y1052812D01*
X4334164Y1053514D01*
X4335413Y1054373D01*
X4336585Y1055389D01*
X4337834Y1056638D01*
X4338928Y1058044D01*
Y1058122D01*
X4339006Y1058200D01*
X4339162Y1058435D01*
X4339318Y1058747D01*
X4339553Y1059138D01*
X4339787Y1059606D01*
X4340256Y1060778D01*
X4340724Y1062105D01*
X4341193Y1063745D01*
X4341505Y1065464D01*
X4341661Y1067338D01*
X4335257Y1067885D01*
Y1067807D01*
Y1067729D01*
X4335179Y1067260D01*
X4335023Y1066557D01*
X4334867Y1065620D01*
X4334554Y1064605D01*
X4334242Y1063511D01*
X4333773Y1062496D01*
X4333227Y1061481D01*
X4333149Y1061402D01*
X4332914Y1061090D01*
X4332524Y1060621D01*
X4331899Y1060075D01*
X4331196Y1059450D01*
X4330337Y1058747D01*
X4329243Y1058122D01*
X4328072Y1057497D01*
X4327994D01*
X4327916Y1057419D01*
X4327447Y1057263D01*
X4326744Y1057029D01*
X4325729Y1056795D01*
X4324636Y1056482D01*
X4323230Y1056248D01*
X4321746Y1056092D01*
X4320184Y1056014D01*
X4319559D01*
X4318778Y1056092D01*
X4317919Y1056170D01*
X4316826Y1056248D01*
X4315732Y1056482D01*
X4314561Y1056716D01*
X4313389Y1057107D01*
X4313233Y1057185D01*
X4312921Y1057341D01*
X4312374Y1057576D01*
X4311749Y1057966D01*
X4310968Y1058435D01*
X4310265Y1058981D01*
X4309562Y1059606D01*
X4308938Y1060309D01*
X4308859Y1060387D01*
X4308703Y1060700D01*
X4308469Y1061090D01*
X4308157Y1061637D01*
X4307922Y1062262D01*
X4307688Y1063043D01*
X4307532Y1063824D01*
X4307454Y1064683D01*
Y1064761D01*
Y1065073D01*
X4307532Y1065542D01*
X4307610Y1066089D01*
X4307766Y1066791D01*
X4308078Y1067494D01*
X4308391Y1068197D01*
X4308859Y1068900D01*
X4308938Y1068978D01*
X4309094Y1069213D01*
X4309484Y1069525D01*
X4309953Y1069994D01*
X4310578Y1070462D01*
X4311359Y1070931D01*
X4312374Y1071477D01*
X4313467Y1071946D01*
X4313545Y1072024D01*
X4313858Y1072102D01*
X4314483Y1072258D01*
X4314873Y1072415D01*
X4315342Y1072571D01*
X4315967Y1072727D01*
X4316591Y1072883D01*
X4317372Y1073118D01*
X4318153Y1073352D01*
X4319091Y1073586D01*
X4320184Y1073820D01*
X4321355Y1074133D01*
X4322605Y1074445D01*
X4322683D01*
X4322917Y1074523D01*
X4323308Y1074601D01*
X4323776Y1074758D01*
X4324323Y1074914D01*
X4324948Y1075070D01*
X4326432Y1075460D01*
X4328072Y1076007D01*
X4329712Y1076554D01*
X4331196Y1077101D01*
X4331899Y1077335D01*
X4332446Y1077647D01*
X4332524D01*
X4332602Y1077725D01*
X4333070Y1078038D01*
X4333695Y1078428D01*
X4334476Y1078975D01*
X4335413Y1079678D01*
X4336273Y1080459D01*
X4337132Y1081396D01*
X4337913Y1082411D01*
X4337991Y1082568D01*
X4338225Y1082958D01*
X4338459Y1083505D01*
X4338772Y1084286D01*
X4339162Y1085223D01*
X4339396Y1086316D01*
X4339631Y1087566D01*
X4339709Y1088816D01*
Y1088894D01*
Y1088972D01*
Y1089206D01*
Y1089518D01*
X4339553Y1090221D01*
X4339396Y1091159D01*
X4339162Y1092330D01*
X4338772Y1093502D01*
X4338225Y1094829D01*
X4337522Y1096079D01*
Y1096157D01*
X4337444Y1096235D01*
X4337132Y1096626D01*
X4336585Y1097250D01*
X4335882Y1098031D01*
X4335023Y1098812D01*
X4333930Y1099671D01*
X4332602Y1100531D01*
X4331118Y1101234D01*
X4331040D01*
X4330962Y1101312D01*
X4330727Y1101390D01*
X4330337Y1101546D01*
X4329946Y1101624D01*
X4329478Y1101780D01*
X4328384Y1102171D01*
X4326979Y1102483D01*
X4325417Y1102717D01*
X4323620Y1102952D01*
X4321746Y1103030D01*
X4341661D01*
D02*
G37*
G36*
X4293864D02*
X4253096D01*
X4273011D01*
X4272465Y1102952D01*
X4271918D01*
X4270590Y1102795D01*
X4269028Y1102561D01*
X4267310Y1102249D01*
X4265592Y1101780D01*
X4263952Y1101155D01*
X4263874D01*
X4263796Y1101077D01*
X4263561Y1100999D01*
X4263249Y1100843D01*
X4262468Y1100374D01*
X4261453Y1099828D01*
X4260359Y1099047D01*
X4259266Y1098110D01*
X4258172Y1097016D01*
X4257235Y1095766D01*
X4257157Y1095610D01*
X4256845Y1095142D01*
X4256454Y1094361D01*
X4256064Y1093424D01*
X4255595Y1092252D01*
X4255127Y1090846D01*
X4254814Y1089362D01*
X4254658Y1087722D01*
X4261140Y1087254D01*
Y1087332D01*
Y1087488D01*
X4261218Y1087722D01*
X4261297Y1088035D01*
X4261453Y1088894D01*
X4261765Y1089987D01*
X4262234Y1091159D01*
X4262859Y1092330D01*
X4263718Y1093502D01*
X4264733Y1094517D01*
X4264889Y1094595D01*
X4265280Y1094907D01*
X4265983Y1095298D01*
X4266920Y1095766D01*
X4268169Y1096235D01*
X4269731Y1096626D01*
X4271528Y1096938D01*
X4273636Y1097016D01*
X4274652D01*
X4275120Y1096938D01*
X4275745D01*
X4277073Y1096704D01*
X4278557Y1096469D01*
X4280041Y1096079D01*
X4281446Y1095532D01*
X4282071Y1095142D01*
X4282618Y1094751D01*
X4282696Y1094673D01*
X4283008Y1094361D01*
X4283477Y1093892D01*
X4283945Y1093189D01*
X4284492Y1092408D01*
X4284883Y1091471D01*
X4285195Y1090456D01*
X4285351Y1089284D01*
Y1089128D01*
Y1088816D01*
X4285273Y1088269D01*
X4285117Y1087644D01*
X4284883Y1086941D01*
X4284492Y1086160D01*
X4284024Y1085457D01*
X4283399Y1084754D01*
X4283321Y1084676D01*
X4282930Y1084442D01*
X4282696Y1084286D01*
X4282383Y1084052D01*
X4281915Y1083895D01*
X4281368Y1083661D01*
X4280743Y1083349D01*
X4280041Y1083036D01*
X4279260Y1082802D01*
X4278322Y1082489D01*
X4277229Y1082099D01*
X4276057Y1081787D01*
X4274730Y1081474D01*
X4273246Y1081084D01*
X4273168D01*
X4272855Y1081006D01*
X4272465Y1080928D01*
X4271918Y1080771D01*
X4271215Y1080615D01*
X4270434Y1080381D01*
X4268716Y1079990D01*
X4266842Y1079444D01*
X4264967Y1078897D01*
X4264030Y1078663D01*
X4263249Y1078350D01*
X4262468Y1078038D01*
X4261843Y1077803D01*
X4261765D01*
X4261609Y1077725D01*
X4261453Y1077569D01*
X4261140Y1077413D01*
X4260359Y1076944D01*
X4259344Y1076398D01*
X4258251Y1075617D01*
X4257157Y1074679D01*
X4256142Y1073664D01*
X4255283Y1072571D01*
X4255205Y1072415D01*
X4254970Y1072024D01*
X4254580Y1071399D01*
X4254189Y1070462D01*
X4253799Y1069447D01*
X4253408Y1068197D01*
X4253174Y1066791D01*
X4253096Y1065307D01*
Y1064605D01*
X4253252Y1063824D01*
X4253408Y1062808D01*
X4253643Y1061637D01*
X4254111Y1060309D01*
X4254658Y1058903D01*
X4255439Y1057576D01*
X4255517Y1057419D01*
X4255908Y1056951D01*
X4256376Y1056326D01*
X4257157Y1055545D01*
X4258094Y1054608D01*
X4259266Y1053671D01*
X4260672Y1052812D01*
X4262234Y1051952D01*
X4262312D01*
X4262468Y1051874D01*
X4262702Y1051796D01*
X4263015Y1051640D01*
X4263405Y1051484D01*
X4263874Y1051328D01*
X4265123Y1051015D01*
X4266529Y1050625D01*
X4268247Y1050312D01*
X4270044Y1050078D01*
X4272074Y1050000D01*
X4253096D01*
D01*
X4293864D01*
X4273246D01*
X4273792Y1050078D01*
X4274495D01*
X4275276Y1050156D01*
X4276136Y1050234D01*
X4277932Y1050468D01*
X4279884Y1050859D01*
X4281837Y1051328D01*
X4283711Y1051952D01*
X4283789D01*
X4283945Y1052031D01*
X4284180Y1052187D01*
X4284492Y1052343D01*
X4285351Y1052812D01*
X4286367Y1053514D01*
X4287616Y1054373D01*
X4288788Y1055389D01*
X4290037Y1056638D01*
X4291131Y1058044D01*
Y1058122D01*
X4291209Y1058200D01*
X4291365Y1058435D01*
X4291521Y1058747D01*
X4291756Y1059138D01*
X4291990Y1059606D01*
X4292458Y1060778D01*
X4292927Y1062105D01*
X4293396Y1063745D01*
X4293708Y1065464D01*
X4293864Y1067338D01*
X4287460Y1067885D01*
Y1067807D01*
Y1067729D01*
X4287382Y1067260D01*
X4287226Y1066557D01*
X4287069Y1065620D01*
X4286757Y1064605D01*
X4286445Y1063511D01*
X4285976Y1062496D01*
X4285429Y1061481D01*
X4285351Y1061402D01*
X4285117Y1061090D01*
X4284726Y1060621D01*
X4284102Y1060075D01*
X4283399Y1059450D01*
X4282540Y1058747D01*
X4281446Y1058122D01*
X4280275Y1057497D01*
X4280197D01*
X4280119Y1057419D01*
X4279650Y1057263D01*
X4278947Y1057029D01*
X4277932Y1056795D01*
X4276838Y1056482D01*
X4275433Y1056248D01*
X4273949Y1056092D01*
X4272387Y1056014D01*
X4271762D01*
X4270981Y1056092D01*
X4270122Y1056170D01*
X4269028Y1056248D01*
X4267935Y1056482D01*
X4266764Y1056716D01*
X4265592Y1057107D01*
X4265436Y1057185D01*
X4265123Y1057341D01*
X4264577Y1057576D01*
X4263952Y1057966D01*
X4263171Y1058435D01*
X4262468Y1058981D01*
X4261765Y1059606D01*
X4261140Y1060309D01*
X4261062Y1060387D01*
X4260906Y1060700D01*
X4260672Y1061090D01*
X4260359Y1061637D01*
X4260125Y1062262D01*
X4259891Y1063043D01*
X4259734Y1063824D01*
X4259656Y1064683D01*
Y1064761D01*
Y1065073D01*
X4259734Y1065542D01*
X4259813Y1066089D01*
X4259969Y1066791D01*
X4260281Y1067494D01*
X4260594Y1068197D01*
X4261062Y1068900D01*
X4261140Y1068978D01*
X4261297Y1069213D01*
X4261687Y1069525D01*
X4262156Y1069994D01*
X4262780Y1070462D01*
X4263561Y1070931D01*
X4264577Y1071477D01*
X4265670Y1071946D01*
X4265748Y1072024D01*
X4266061Y1072102D01*
X4266685Y1072258D01*
X4267076Y1072415D01*
X4267544Y1072571D01*
X4268169Y1072727D01*
X4268794Y1072883D01*
X4269575Y1073118D01*
X4270356Y1073352D01*
X4271293Y1073586D01*
X4272387Y1073820D01*
X4273558Y1074133D01*
X4274808Y1074445D01*
X4274886D01*
X4275120Y1074523D01*
X4275511Y1074601D01*
X4275979Y1074758D01*
X4276526Y1074914D01*
X4277151Y1075070D01*
X4278635Y1075460D01*
X4280275Y1076007D01*
X4281915Y1076554D01*
X4283399Y1077101D01*
X4284102Y1077335D01*
X4284648Y1077647D01*
X4284726D01*
X4284805Y1077725D01*
X4285273Y1078038D01*
X4285898Y1078428D01*
X4286679Y1078975D01*
X4287616Y1079678D01*
X4288475Y1080459D01*
X4289334Y1081396D01*
X4290115Y1082411D01*
X4290194Y1082568D01*
X4290428Y1082958D01*
X4290662Y1083505D01*
X4290975Y1084286D01*
X4291365Y1085223D01*
X4291599Y1086316D01*
X4291834Y1087566D01*
X4291912Y1088816D01*
Y1088894D01*
Y1088972D01*
Y1089206D01*
Y1089518D01*
X4291756Y1090221D01*
X4291599Y1091159D01*
X4291365Y1092330D01*
X4290975Y1093502D01*
X4290428Y1094829D01*
X4289725Y1096079D01*
Y1096157D01*
X4289647Y1096235D01*
X4289334Y1096626D01*
X4288788Y1097250D01*
X4288085Y1098031D01*
X4287226Y1098812D01*
X4286132Y1099671D01*
X4284805Y1100531D01*
X4283321Y1101234D01*
X4283243D01*
X4283164Y1101312D01*
X4282930Y1101390D01*
X4282540Y1101546D01*
X4282149Y1101624D01*
X4281681Y1101780D01*
X4280587Y1102171D01*
X4279181Y1102483D01*
X4277619Y1102717D01*
X4275823Y1102952D01*
X4273949Y1103030D01*
X4293864D01*
D02*
G37*
G36*
X4130088Y1102405D02*
X4129386D01*
X4128605Y1102327D01*
X4127667Y1102171D01*
X4126574Y1102014D01*
X4125324Y1101702D01*
X4124075Y1101233D01*
X4122903Y1100687D01*
X4122747Y1100609D01*
X4122357Y1100374D01*
X4121810Y1099984D01*
X4121029Y1099515D01*
X4120248Y1098812D01*
X4119389Y1097953D01*
X4118530Y1097016D01*
X4117749Y1095923D01*
X4117671Y1095766D01*
X4117436Y1095376D01*
X4117046Y1094673D01*
X4116577Y1093814D01*
X4116109Y1092720D01*
X4115562Y1091393D01*
X4115015Y1089909D01*
X4114547Y1088269D01*
Y1088191D01*
X4114468Y1088034D01*
Y1087800D01*
X4114390Y1087410D01*
X4114234Y1087019D01*
X4114156Y1086473D01*
X4114078Y1085770D01*
X4113922Y1085067D01*
X4113844Y1084208D01*
X4113766Y1083349D01*
X4113609Y1082333D01*
X4113531Y1081240D01*
X4113453Y1080068D01*
Y1078897D01*
X4113375Y1076163D01*
Y1074679D01*
X4113453Y1073898D01*
Y1073039D01*
X4113531Y1072024D01*
X4113609Y1070931D01*
X4113844Y1068588D01*
X4114156Y1066167D01*
X4114625Y1063745D01*
X4114937Y1062652D01*
X4115249Y1061559D01*
Y1061480D01*
X4115328Y1061324D01*
X4115406Y1061012D01*
X4115562Y1060621D01*
X4115796Y1060153D01*
X4116030Y1059684D01*
X4116655Y1058435D01*
X4117436Y1057029D01*
X4118373Y1055623D01*
X4119467Y1054217D01*
X4120795Y1052968D01*
X4120873D01*
X4120951Y1052811D01*
X4121185Y1052733D01*
X4121419Y1052499D01*
X4122279Y1052030D01*
X4123294Y1051484D01*
X4124700Y1050937D01*
X4126262Y1050468D01*
X4128058Y1050156D01*
X4130088Y1050000D01*
X4113375D01*
X4130791D01*
X4131338Y1050078D01*
X4131963Y1050156D01*
X4132666Y1050312D01*
X4133447Y1050468D01*
X4134306Y1050625D01*
X4136180Y1051249D01*
X4137196Y1051718D01*
X4138133Y1052187D01*
X4139148Y1052811D01*
X4140085Y1053514D01*
X4140944Y1054295D01*
X4141803Y1055233D01*
X4141882Y1055311D01*
X4142038Y1055545D01*
X4142272Y1055935D01*
X4142584Y1056482D01*
X4142975Y1057185D01*
X4143365Y1058044D01*
X4143834Y1059059D01*
X4144303Y1060309D01*
X4144771Y1061637D01*
X4145240Y1063199D01*
X4145630Y1064917D01*
X4146021Y1066791D01*
X4146333Y1068900D01*
X4146568Y1071087D01*
X4146724Y1073586D01*
X4146802Y1076163D01*
Y1078428D01*
Y1077647D01*
X4146724Y1078428D01*
Y1079287D01*
X4146646Y1080303D01*
X4146568Y1081396D01*
X4146333Y1083739D01*
X4146021Y1086160D01*
X4145630Y1088581D01*
X4145318Y1089675D01*
X4145006Y1090768D01*
Y1090846D01*
X4144927Y1091002D01*
X4144771Y1091315D01*
X4144615Y1091705D01*
X4144459Y1092174D01*
X4144225Y1092720D01*
X4143600Y1093970D01*
X4142819Y1095376D01*
X4141882Y1096782D01*
X4140788Y1098109D01*
X4139461Y1099359D01*
X4139382D01*
X4139304Y1099515D01*
X4139070Y1099671D01*
X4138758Y1099828D01*
X4137977Y1100296D01*
X4136883Y1100921D01*
X4135556Y1101468D01*
X4133915Y1101936D01*
X4132119Y1102249D01*
X4130088Y1102405D01*
D02*
G37*
G36*
X4030277Y1103030D02*
X4010439D01*
D01*
X4025278Y1050000D01*
X4030277D01*
X4015438Y1103030D01*
X4030277D01*
D02*
G37*
%LPD*%
G36*
X4310890Y1190330D02*
X4298003D01*
X4298628Y1190408D01*
X4299409Y1190486D01*
X4300268Y1190564D01*
X4301206Y1190799D01*
X4302065Y1191033D01*
X4302846Y1191345D01*
X4302924Y1191423D01*
X4303158Y1191580D01*
X4303471Y1191814D01*
X4303861Y1192126D01*
X4304330Y1192517D01*
X4304720Y1192985D01*
X4305189Y1193532D01*
X4305501Y1194157D01*
Y1194235D01*
X4305579Y1194547D01*
X4305735Y1195016D01*
X4305814Y1195797D01*
X4305970Y1196812D01*
X4306048Y1197359D01*
X4306126Y1198062D01*
Y1198843D01*
X4306204Y1199702D01*
Y1200639D01*
Y1201654D01*
Y1223054D01*
X4310890D01*
Y1190330D01*
D02*
G37*
G36*
X3964438Y1190330D02*
X3951552D01*
X3952177Y1190408D01*
X3952958Y1190486D01*
X3953817Y1190564D01*
X3954754Y1190798D01*
X3955613Y1191033D01*
X3956394Y1191345D01*
X3956472Y1191423D01*
X3956706Y1191579D01*
X3957019Y1191814D01*
X3957409Y1192126D01*
X3957878Y1192517D01*
X3958269Y1192985D01*
X3958737Y1193532D01*
X3959050Y1194157D01*
Y1194235D01*
X3959128Y1194547D01*
X3959284Y1195016D01*
X3959362Y1195797D01*
X3959518Y1196812D01*
X3959596Y1197359D01*
X3959674Y1198062D01*
Y1198843D01*
X3959752Y1199702D01*
Y1200639D01*
Y1201654D01*
Y1223054D01*
X3964438D01*
Y1190330D01*
D02*
G37*
G36*
X4359390Y1209386D02*
X4359624Y1209308D01*
X4359859Y1209230D01*
X4360249Y1209074D01*
X4360718Y1208996D01*
X4361186Y1208840D01*
X4361811Y1208605D01*
X4362514Y1208449D01*
X4363295Y1208293D01*
X4364076Y1208059D01*
X4365013Y1207824D01*
X4366029Y1207668D01*
X4367122Y1207434D01*
X4368293Y1207278D01*
X4369543Y1207043D01*
X4369699D01*
X4370168Y1206965D01*
X4370871Y1206809D01*
X4371730Y1206653D01*
X4373526Y1206262D01*
X4374385Y1206028D01*
X4375088Y1205794D01*
X4375166D01*
X4375323Y1205638D01*
X4375635Y1205481D01*
X4375947Y1205247D01*
X4376728Y1204622D01*
X4377509Y1203685D01*
Y1203607D01*
X4377666Y1203451D01*
X4377744Y1203216D01*
X4377900Y1202826D01*
X4378212Y1201889D01*
X4378290Y1201342D01*
X4378368Y1200717D01*
Y1200639D01*
Y1200327D01*
X4378290Y1199858D01*
X4378134Y1199233D01*
X4377900Y1198609D01*
X4377587Y1197906D01*
X4377119Y1197203D01*
X4376494Y1196500D01*
X4376416Y1196422D01*
X4376104Y1196265D01*
X4375713Y1195953D01*
X4375088Y1195719D01*
X4374307Y1195406D01*
X4373292Y1195094D01*
X4372199Y1194938D01*
X4370871Y1194860D01*
X4370246D01*
X4369621Y1194938D01*
X4368684Y1195094D01*
X4367747Y1195250D01*
X4366653Y1195485D01*
X4365560Y1195875D01*
X4364467Y1196422D01*
X4364310Y1196500D01*
X4363998Y1196734D01*
X4363451Y1197046D01*
X4362827Y1197593D01*
X4362202Y1198140D01*
X4361499Y1198921D01*
X4360796Y1199780D01*
X4360249Y1200795D01*
X4360171Y1200873D01*
X4360093Y1201186D01*
X4359937Y1201654D01*
X4359703Y1202357D01*
X4359546Y1203294D01*
X4359390Y1204388D01*
X4359312Y1205638D01*
X4359234Y1207121D01*
Y1209464D01*
X4359390Y1209386D01*
D02*
G37*
G36*
X3977091Y1209386D02*
X3977325Y1209308D01*
X3977559Y1209230D01*
X3977950Y1209074D01*
X3978418Y1208996D01*
X3978887Y1208840D01*
X3979512Y1208605D01*
X3980215Y1208449D01*
X3980996Y1208293D01*
X3981777Y1208059D01*
X3982714Y1207824D01*
X3983729Y1207668D01*
X3984823Y1207434D01*
X3985994Y1207277D01*
X3987244Y1207043D01*
X3987400D01*
X3987868Y1206965D01*
X3988571Y1206809D01*
X3989430Y1206653D01*
X3991227Y1206262D01*
X3992086Y1206028D01*
X3992789Y1205794D01*
X3992867D01*
X3993023Y1205637D01*
X3993335Y1205481D01*
X3993648Y1205247D01*
X3994429Y1204622D01*
X3995210Y1203685D01*
Y1203607D01*
X3995366Y1203451D01*
X3995444Y1203216D01*
X3995600Y1202826D01*
X3995913Y1201889D01*
X3995991Y1201342D01*
X3996069Y1200717D01*
Y1200639D01*
Y1200327D01*
X3995991Y1199858D01*
X3995835Y1199233D01*
X3995600Y1198608D01*
X3995288Y1197906D01*
X3994819Y1197203D01*
X3994195Y1196500D01*
X3994116Y1196422D01*
X3993804Y1196265D01*
X3993414Y1195953D01*
X3992789Y1195719D01*
X3992008Y1195406D01*
X3990992Y1195094D01*
X3989899Y1194938D01*
X3988571Y1194860D01*
X3987947D01*
X3987322Y1194938D01*
X3986385Y1195094D01*
X3985447Y1195250D01*
X3984354Y1195484D01*
X3983260Y1195875D01*
X3982167Y1196422D01*
X3982011Y1196500D01*
X3981698Y1196734D01*
X3981152Y1197046D01*
X3980527Y1197593D01*
X3979902Y1198140D01*
X3979199Y1198921D01*
X3978496Y1199780D01*
X3977950Y1200795D01*
X3977872Y1200873D01*
X3977794Y1201186D01*
X3977637Y1201654D01*
X3977403Y1202357D01*
X3977247Y1203294D01*
X3977091Y1204388D01*
X3977012Y1205637D01*
X3976934Y1207121D01*
Y1209464D01*
X3977091Y1209386D01*
D02*
G37*
G36*
X4153753Y1237034D02*
X4154378Y1236956D01*
X4155159Y1236878D01*
X4155940Y1236721D01*
X4156799Y1236487D01*
X4158751Y1235862D01*
X4159766Y1235472D01*
X4160782Y1235003D01*
X4161875Y1234456D01*
X4162891Y1233754D01*
X4163906Y1232973D01*
X4164921Y1232113D01*
X4164999Y1232035D01*
X4165155Y1231879D01*
X4165390Y1231567D01*
X4165702Y1231176D01*
X4166093Y1230630D01*
X4166561Y1229927D01*
X4167030Y1229146D01*
X4167498Y1228208D01*
X4167967Y1227115D01*
X4168436Y1225944D01*
X4168904Y1224616D01*
X4169295Y1223054D01*
X4169607Y1221414D01*
X4169841Y1219696D01*
X4169998Y1217743D01*
X4170076Y1215634D01*
Y1215556D01*
Y1215244D01*
Y1214775D01*
X4169998Y1214072D01*
X4169919Y1213291D01*
X4169841Y1212432D01*
X4169685Y1211417D01*
X4169451Y1210323D01*
X4168904Y1207980D01*
X4168436Y1206809D01*
X4167967Y1205559D01*
X4167420Y1204388D01*
X4166796Y1203216D01*
X4166015Y1202045D01*
X4165155Y1201030D01*
X4165077Y1200951D01*
X4164921Y1200795D01*
X4164609Y1200561D01*
X4164218Y1200170D01*
X4163750Y1199780D01*
X4163203Y1199389D01*
X4162500Y1198843D01*
X4161719Y1198374D01*
X4160860Y1197906D01*
X4159923Y1197437D01*
X4158907Y1196968D01*
X4157736Y1196578D01*
X4156564Y1196187D01*
X4155315Y1195953D01*
X4154065Y1195797D01*
X4152659Y1195719D01*
X4151957Y1195719D01*
X4151410Y1195797D01*
X4150707Y1195875D01*
X4150004Y1196031D01*
X4149145Y1196187D01*
X4148208Y1196422D01*
X4146255Y1197046D01*
X4145162Y1197437D01*
X4144146Y1197984D01*
X4143053Y1198608D01*
X4142038Y1199311D01*
X4141023Y1200092D01*
X4140085Y1201030D01*
X4140007Y1201108D01*
X4139851Y1201264D01*
X4139617Y1201576D01*
X4139304Y1202045D01*
X4138914Y1202591D01*
X4138523Y1203294D01*
X4138055Y1204075D01*
X4137586Y1204935D01*
X4137118Y1206028D01*
X4136649Y1207121D01*
X4136258Y1208371D01*
X4135868Y1209777D01*
X4135556Y1211261D01*
X4135321Y1212823D01*
X4135165Y1214541D01*
X4135087Y1216337D01*
Y1216415D01*
Y1216649D01*
Y1216962D01*
Y1217352D01*
X4135165Y1217899D01*
Y1218602D01*
X4135321Y1220086D01*
X4135634Y1221726D01*
X4136024Y1223600D01*
X4136571Y1225475D01*
X4137274Y1227271D01*
Y1227349D01*
X4137352Y1227505D01*
X4137508Y1227740D01*
X4137664Y1228052D01*
X4138133Y1228911D01*
X4138836Y1229927D01*
X4139695Y1231098D01*
X4140788Y1232348D01*
X4142038Y1233519D01*
X4143444Y1234534D01*
X4143522D01*
X4143600Y1234612D01*
X4143834Y1234769D01*
X4144146Y1234925D01*
X4145006Y1235315D01*
X4146099Y1235862D01*
X4147427Y1236331D01*
X4148989Y1236721D01*
X4150707Y1237034D01*
X4152581Y1237112D01*
X4153284D01*
X4153753Y1237034D01*
D02*
G37*
G36*
X3747555Y1237034D02*
X3748336Y1236956D01*
X3749351Y1236643D01*
X3750444Y1236175D01*
X3751616Y1235550D01*
X3752787Y1234612D01*
X3753334Y1233988D01*
X3753803Y1233363D01*
Y1233285D01*
X3753959Y1233129D01*
X3754115Y1232816D01*
X3754271Y1232426D01*
X3754506Y1231879D01*
X3754818Y1231254D01*
X3755130Y1230395D01*
X3755365Y1229458D01*
X3755677Y1228364D01*
X3755990Y1227115D01*
X3756224Y1225709D01*
X3756536Y1224069D01*
X3756692Y1222351D01*
X3756849Y1220476D01*
X3757005Y1218368D01*
Y1216103D01*
Y1215947D01*
Y1215556D01*
Y1214931D01*
X3756927Y1214072D01*
Y1213057D01*
X3756849Y1211885D01*
X3756771Y1210558D01*
X3756614Y1209230D01*
X3756302Y1206418D01*
X3755755Y1203607D01*
X3755443Y1202357D01*
X3755052Y1201186D01*
X3754584Y1200092D01*
X3754115Y1199233D01*
Y1199155D01*
X3753959Y1199077D01*
X3753568Y1198608D01*
X3752944Y1197906D01*
X3752084Y1197203D01*
X3750991Y1196422D01*
X3749742Y1195719D01*
X3748336Y1195250D01*
X3747555Y1195172D01*
X3746774Y1195094D01*
X3746383D01*
X3746071Y1195172D01*
X3745290Y1195328D01*
X3744274Y1195641D01*
X3743103Y1196109D01*
X3741932Y1196812D01*
X3741307Y1197281D01*
X3740682Y1197906D01*
X3740057Y1198530D01*
X3739510Y1199233D01*
Y1199311D01*
X3739354Y1199467D01*
X3739198Y1199702D01*
X3739042Y1200092D01*
X3738807Y1200561D01*
X3738573Y1201264D01*
X3738339Y1202045D01*
X3738026Y1202904D01*
X3737714Y1203997D01*
X3737480Y1205169D01*
X3737245Y1206575D01*
X3737011Y1208137D01*
X3736777Y1209855D01*
X3736699Y1211729D01*
X3736543Y1213838D01*
Y1216103D01*
Y1216259D01*
Y1216649D01*
Y1217274D01*
X3736621Y1218133D01*
Y1219149D01*
X3736699Y1220320D01*
X3736777Y1221570D01*
X3736933Y1222976D01*
X3737245Y1225787D01*
X3737792Y1228521D01*
X3738105Y1229848D01*
X3738495Y1231020D01*
X3738964Y1232035D01*
X3739510Y1232894D01*
Y1232972D01*
X3739667Y1233051D01*
X3740057Y1233519D01*
X3740682Y1234222D01*
X3741541Y1235003D01*
X3742634Y1235784D01*
X3743884Y1236487D01*
X3745290Y1236956D01*
X3746071Y1237034D01*
X3746852Y1237112D01*
X3747242D01*
X3747555Y1237034D01*
D02*
G37*
G36*
X4513091Y1235706D02*
X4513247Y1235315D01*
X4513403Y1234613D01*
X4513638Y1233832D01*
X4513872Y1232816D01*
X4514106Y1231879D01*
X4514419Y1230864D01*
X4514653Y1229849D01*
X4525431Y1190799D01*
X4500673D01*
X4511451Y1229849D01*
Y1229927D01*
X4511529Y1230083D01*
X4511607Y1230317D01*
X4511685Y1230630D01*
X4511919Y1231489D01*
X4512154Y1232426D01*
X4512466Y1233519D01*
X4512700Y1234456D01*
X4512935Y1235315D01*
X4513013Y1235628D01*
X4513091Y1235862D01*
Y1235706D01*
D02*
G37*
G36*
X4220997Y1223601D02*
X4221856Y1223522D01*
X4222871Y1223288D01*
X4224043Y1222976D01*
X4225214Y1222429D01*
X4226464Y1221726D01*
X4227635Y1220711D01*
X4227792Y1220555D01*
X4228104Y1220164D01*
X4228573Y1219539D01*
X4229119Y1218602D01*
X4229666Y1217509D01*
X4230213Y1216181D01*
X4230603Y1214619D01*
X4230837Y1212901D01*
X4210063D01*
Y1212979D01*
Y1213135D01*
X4210141Y1213369D01*
Y1213682D01*
X4210297Y1214541D01*
X4210532Y1215556D01*
X4210844Y1216650D01*
X4211312Y1217821D01*
X4211781Y1218993D01*
X4212484Y1219930D01*
Y1220008D01*
X4212640Y1220086D01*
X4213031Y1220555D01*
X4213734Y1221101D01*
X4214593Y1221804D01*
X4215764Y1222507D01*
X4217092Y1223132D01*
X4218576Y1223522D01*
X4219435Y1223601D01*
X4220294Y1223679D01*
X4220685D01*
X4220997Y1223601D01*
D02*
G37*
G36*
X4446940Y1217743D02*
X4433117D01*
X4432648Y1217821D01*
X4432101D01*
X4431555Y1217899D01*
X4430149Y1218055D01*
X4428587Y1218368D01*
X4427025Y1218758D01*
X4425619Y1219383D01*
X4424994Y1219774D01*
X4424447Y1220164D01*
X4424291Y1220242D01*
X4423979Y1220633D01*
X4423588Y1221179D01*
X4423042Y1221960D01*
X4422495Y1222898D01*
X4422104Y1224069D01*
X4421792Y1225475D01*
X4421636Y1227037D01*
Y1227193D01*
Y1227584D01*
X4421714Y1228208D01*
X4421870Y1228989D01*
X4422026Y1229849D01*
X4422339Y1230786D01*
X4422729Y1231723D01*
X4423276Y1232582D01*
X4423354Y1232660D01*
X4423588Y1232973D01*
X4423901Y1233363D01*
X4424447Y1233832D01*
X4425072Y1234300D01*
X4425775Y1234847D01*
X4426634Y1235237D01*
X4427571Y1235628D01*
X4427650D01*
X4427884Y1235706D01*
X4428352Y1235784D01*
X4428977Y1235862D01*
X4429836Y1235940D01*
X4430930Y1236018D01*
X4432336Y1236097D01*
X4446940D01*
Y1217743D01*
D02*
G37*
G36*
X3846586Y1205637D02*
X3846507Y1205481D01*
X3846351Y1205013D01*
X3846117Y1204310D01*
X3845805Y1203372D01*
X3845414Y1202279D01*
X3845023Y1201030D01*
X3844555Y1199624D01*
X3844164Y1198218D01*
X3844086Y1198374D01*
X3844008Y1198765D01*
X3843774Y1199389D01*
X3843540Y1200170D01*
X3843227Y1201186D01*
X3842837Y1202435D01*
X3842368Y1203763D01*
X3841821Y1205247D01*
X3833543Y1227974D01*
X3854552D01*
X3846586Y1205637D01*
D02*
G37*
G36*
X3924607Y1228755D02*
X3923905Y1228677D01*
X3923202Y1228599D01*
X3922343Y1228443D01*
X3921405Y1228208D01*
X3919453Y1227583D01*
X3918438Y1227193D01*
X3917344Y1226724D01*
X3916329Y1226100D01*
X3915314Y1225397D01*
X3914298Y1224616D01*
X3913361Y1223757D01*
X3913283Y1223678D01*
X3913127Y1223522D01*
X3912892Y1223210D01*
X3912580Y1222819D01*
X3912189Y1222351D01*
X3911799Y1221726D01*
X3911330Y1220945D01*
X3910862Y1220164D01*
X3910471Y1219227D01*
X3910003Y1218133D01*
X3909612Y1217040D01*
X3909222Y1215790D01*
X3908909Y1214463D01*
X3908675Y1212979D01*
X3908519Y1211495D01*
X3908441Y1209855D01*
Y1228833D01*
X3925154D01*
X3924607Y1228755D01*
D02*
G37*
G36*
X3926638Y1223522D02*
X3927497Y1223444D01*
X3928590Y1223132D01*
X3929840Y1222741D01*
X3931168Y1222117D01*
X3932495Y1221179D01*
X3933120Y1220633D01*
X3933745Y1220008D01*
X3933901Y1219852D01*
X3934057Y1219617D01*
X3934214Y1219383D01*
X3934448Y1218993D01*
X3934682Y1218524D01*
X3934995Y1217977D01*
X3935229Y1217352D01*
X3935541Y1216649D01*
X3935854Y1215869D01*
X3936088Y1215009D01*
X3936322Y1213994D01*
X3936479Y1212979D01*
X3936635Y1211807D01*
X3936791Y1210636D01*
Y1209308D01*
Y1209230D01*
Y1208996D01*
Y1208605D01*
X3936713Y1208137D01*
Y1207590D01*
X3936635Y1206887D01*
X3936401Y1205325D01*
X3936010Y1203607D01*
X3935541Y1201811D01*
X3934760Y1200092D01*
X3934292Y1199311D01*
X3933745Y1198608D01*
X3933589Y1198452D01*
X3933198Y1198062D01*
X3932495Y1197515D01*
X3931558Y1196890D01*
X3930465Y1196187D01*
X3929059Y1195641D01*
X3927575Y1195250D01*
X3926716Y1195172D01*
X3925857Y1195094D01*
X3925388D01*
X3925076Y1195172D01*
X3924217Y1195250D01*
X3923124Y1195562D01*
X3921874Y1195953D01*
X3920546Y1196578D01*
X3919297Y1197437D01*
X3918672Y1197984D01*
X3918047Y1198608D01*
Y1198687D01*
X3917891Y1198765D01*
X3917735Y1198999D01*
X3917578Y1199311D01*
X3917344Y1199702D01*
X3917032Y1200170D01*
X3916797Y1200717D01*
X3916485Y1201342D01*
X3916173Y1202045D01*
X3915938Y1202826D01*
X3915626Y1203763D01*
X3915392Y1204778D01*
X3915235Y1205794D01*
X3915079Y1206965D01*
X3914923Y1208215D01*
Y1209542D01*
Y1209620D01*
Y1209855D01*
Y1210167D01*
X3915001Y1210714D01*
Y1211261D01*
X3915079Y1211885D01*
X3915314Y1213447D01*
X3915704Y1215088D01*
X3916251Y1216884D01*
X3917032Y1218524D01*
X3918125Y1220008D01*
Y1220086D01*
X3918281Y1220164D01*
X3918672Y1220554D01*
X3919375Y1221179D01*
X3920234Y1221804D01*
X3921405Y1222429D01*
X3922733Y1223054D01*
X3924217Y1223444D01*
X3924998Y1223600D01*
X3926326D01*
X3926638Y1223522D01*
D02*
G37*
G36*
X4120053Y1127897D02*
X4107166D01*
X4107791Y1127975D01*
X4108572Y1128053D01*
X4109431Y1128131D01*
X4110368Y1128365D01*
X4111227Y1128600D01*
X4112008Y1128912D01*
X4112086Y1128990D01*
X4112321Y1129146D01*
X4112633Y1129381D01*
X4113024Y1129693D01*
X4113492Y1130083D01*
X4113883Y1130552D01*
X4114351Y1131099D01*
X4114664Y1131724D01*
Y1131802D01*
X4114742Y1132114D01*
X4114898Y1132583D01*
X4114976Y1133364D01*
X4115132Y1134379D01*
X4115210Y1134926D01*
X4115288Y1135629D01*
Y1136410D01*
X4115367Y1137269D01*
Y1138206D01*
Y1139221D01*
Y1160621D01*
X4120053D01*
Y1127897D01*
D02*
G37*
G36*
X4177534Y1161167D02*
X4178393Y1161089D01*
X4179409Y1160855D01*
X4180580Y1160543D01*
X4181752Y1159996D01*
X4183001Y1159293D01*
X4184173Y1158278D01*
X4184329Y1158121D01*
X4184641Y1157731D01*
X4185110Y1157106D01*
X4185657Y1156169D01*
X4186203Y1155076D01*
X4186750Y1153748D01*
X4187141Y1152186D01*
X4187375Y1150468D01*
X4166600D01*
Y1150546D01*
Y1150702D01*
X4166678Y1150936D01*
Y1151249D01*
X4166834Y1152108D01*
X4167069Y1153123D01*
X4167381Y1154216D01*
X4167850Y1155388D01*
X4168318Y1156560D01*
X4169021Y1157497D01*
Y1157575D01*
X4169177Y1157653D01*
X4169568Y1158121D01*
X4170271Y1158668D01*
X4171130Y1159371D01*
X4172301Y1160074D01*
X4173629Y1160699D01*
X4175113Y1161089D01*
X4175972Y1161167D01*
X4176831Y1161245D01*
X4177222D01*
X4177534Y1161167D01*
D02*
G37*
G36*
X4175660Y1166322D02*
X4175035Y1166244D01*
X4174254Y1166166D01*
X4173473Y1166010D01*
X4172536Y1165775D01*
X4170661Y1165150D01*
X4169646Y1164760D01*
X4168631Y1164213D01*
X4167615Y1163667D01*
X4166600Y1162964D01*
X4165663Y1162183D01*
X4164726Y1161245D01*
X4164648Y1161167D01*
X4164492Y1161011D01*
X4164257Y1160699D01*
X4163945Y1160308D01*
X4163632Y1159762D01*
X4163242Y1159137D01*
X4162773Y1158434D01*
X4162305Y1157575D01*
X4161914Y1156560D01*
X4161446Y1155544D01*
X4161055Y1154373D01*
X4160665Y1153045D01*
X4160430Y1151717D01*
X4160196Y1150233D01*
X4160040Y1148671D01*
X4159962Y1146953D01*
Y1166400D01*
X4176207D01*
X4175660Y1166322D01*
D02*
G37*
G36*
X4311866Y1155310D02*
X4298042D01*
X4297574Y1155388D01*
X4297027D01*
X4296480Y1155466D01*
X4295075Y1155622D01*
X4293513Y1155935D01*
X4291951Y1156325D01*
X4290545Y1156950D01*
X4289920Y1157341D01*
X4289373Y1157731D01*
X4289217Y1157809D01*
X4288905Y1158200D01*
X4288514Y1158746D01*
X4287968Y1159527D01*
X4287421Y1160465D01*
X4287030Y1161636D01*
X4286718Y1163042D01*
X4286562Y1164604D01*
Y1164760D01*
Y1165150D01*
X4286640Y1165775D01*
X4286796Y1166556D01*
X4286952Y1167415D01*
X4287265Y1168353D01*
X4287655Y1169290D01*
X4288202Y1170149D01*
X4288280Y1170227D01*
X4288514Y1170539D01*
X4288827Y1170930D01*
X4289373Y1171399D01*
X4289998Y1171867D01*
X4290701Y1172414D01*
X4291560Y1172804D01*
X4292497Y1173195D01*
X4292575D01*
X4292810Y1173273D01*
X4293278Y1173351D01*
X4293903Y1173429D01*
X4294762Y1173507D01*
X4295856Y1173585D01*
X4297261Y1173663D01*
X4311866D01*
Y1155310D01*
D02*
G37*
G36*
X4070381Y1161402D02*
X4070303Y1161480D01*
X4070225Y1161636D01*
X4069990Y1161870D01*
X4069678Y1162183D01*
X4069288Y1162573D01*
X4068819Y1162964D01*
X4067648Y1163901D01*
X4066242Y1164838D01*
X4064445Y1165619D01*
X4063508Y1165931D01*
X4062493Y1166166D01*
X4061399Y1166322D01*
X4060306Y1166400D01*
X4059681D01*
X4059057Y1166322D01*
X4058197Y1166244D01*
X4057182Y1166088D01*
X4056089Y1165775D01*
X4054995Y1165463D01*
X4053824Y1164994D01*
X4053668Y1164916D01*
X4053277Y1164760D01*
X4052730Y1164447D01*
X4052028Y1163979D01*
X4051247Y1163432D01*
X4050465Y1162729D01*
X4049606Y1161948D01*
X4048825Y1161089D01*
X4048747Y1161011D01*
X4048513Y1160621D01*
X4048122Y1160074D01*
X4047654Y1159371D01*
X4047185Y1158512D01*
X4046639Y1157497D01*
X4046170Y1156325D01*
X4045701Y1154997D01*
X4045623Y1154841D01*
X4045545Y1154373D01*
X4045311Y1153670D01*
X4045077Y1152733D01*
X4044920Y1151639D01*
X4044686Y1150389D01*
X4044608Y1148984D01*
X4044530Y1147500D01*
Y1179677D01*
X4070381D01*
Y1161402D01*
D02*
G37*
G36*
X4061634Y1161167D02*
X4062415Y1161089D01*
X4063352Y1160777D01*
X4064445Y1160386D01*
X4065695Y1159683D01*
X4066867Y1158824D01*
X4067491Y1158199D01*
X4068038Y1157575D01*
Y1157497D01*
X4068194Y1157418D01*
X4068272Y1157184D01*
X4068507Y1156872D01*
X4068741Y1156559D01*
X4068975Y1156091D01*
X4069209Y1155544D01*
X4069522Y1154919D01*
X4069834Y1154216D01*
X4070069Y1153435D01*
X4070303Y1152576D01*
X4070537Y1151717D01*
X4070850Y1149609D01*
X4071006Y1147187D01*
Y1147109D01*
Y1146875D01*
Y1146563D01*
Y1146094D01*
X4070928Y1145547D01*
Y1144922D01*
X4070771Y1143439D01*
X4070537Y1141877D01*
X4070225Y1140236D01*
X4069834Y1138753D01*
X4069522Y1138128D01*
X4069209Y1137503D01*
Y1137425D01*
X4069053Y1137269D01*
X4068897Y1137034D01*
X4068663Y1136722D01*
X4068038Y1135941D01*
X4067101Y1135082D01*
X4065929Y1134223D01*
X4064523Y1133442D01*
X4063821Y1133129D01*
X4062961Y1132895D01*
X4062102Y1132739D01*
X4061165Y1132661D01*
X4060775D01*
X4060462Y1132739D01*
X4059681Y1132817D01*
X4058744Y1133129D01*
X4057573Y1133520D01*
X4056401Y1134145D01*
X4055230Y1135082D01*
X4054605Y1135629D01*
X4054058Y1136253D01*
Y1136332D01*
X4053902Y1136410D01*
X4053746Y1136644D01*
X4053590Y1136956D01*
X4053355Y1137269D01*
X4053121Y1137737D01*
X4052809Y1138284D01*
X4052496Y1138909D01*
X4052262Y1139690D01*
X4051949Y1140471D01*
X4051715Y1141330D01*
X4051481Y1142267D01*
X4051325Y1143361D01*
X4051168Y1144454D01*
X4051012Y1145625D01*
Y1146953D01*
Y1147031D01*
Y1147265D01*
Y1147656D01*
X4051090Y1148125D01*
Y1148749D01*
X4051168Y1149452D01*
X4051403Y1151014D01*
X4051715Y1152811D01*
X4052262Y1154529D01*
X4052965Y1156247D01*
X4053355Y1157028D01*
X4053902Y1157731D01*
Y1157809D01*
X4054058Y1157887D01*
X4054449Y1158278D01*
X4054995Y1158824D01*
X4055854Y1159527D01*
X4056870Y1160152D01*
X4058119Y1160699D01*
X4059447Y1161089D01*
X4060150Y1161245D01*
X4061321D01*
X4061634Y1161167D01*
D02*
G37*
G36*
X4233610Y1161089D02*
X4234469Y1161011D01*
X4235562Y1160699D01*
X4236812Y1160308D01*
X4238140Y1159684D01*
X4239467Y1158746D01*
X4240092Y1158200D01*
X4240717Y1157575D01*
X4240873Y1157419D01*
X4241029Y1157184D01*
X4241186Y1156950D01*
X4241420Y1156560D01*
X4241654Y1156091D01*
X4241967Y1155544D01*
X4242201Y1154919D01*
X4242513Y1154216D01*
X4242826Y1153436D01*
X4243060Y1152576D01*
X4243294Y1151561D01*
X4243451Y1150546D01*
X4243607Y1149374D01*
X4243763Y1148203D01*
Y1146875D01*
Y1146797D01*
Y1146563D01*
Y1146172D01*
X4243685Y1145704D01*
Y1145157D01*
X4243607Y1144454D01*
X4243373Y1142892D01*
X4242982Y1141174D01*
X4242513Y1139378D01*
X4241732Y1137659D01*
X4241264Y1136878D01*
X4240717Y1136175D01*
X4240561Y1136019D01*
X4240170Y1135629D01*
X4239467Y1135082D01*
X4238530Y1134457D01*
X4237437Y1133754D01*
X4236031Y1133208D01*
X4234547Y1132817D01*
X4233688Y1132739D01*
X4232829Y1132661D01*
X4232360D01*
X4232048Y1132739D01*
X4231189Y1132817D01*
X4230096Y1133130D01*
X4228846Y1133520D01*
X4227518Y1134145D01*
X4226269Y1135004D01*
X4225644Y1135551D01*
X4225019Y1136175D01*
Y1136254D01*
X4224863Y1136332D01*
X4224707Y1136566D01*
X4224550Y1136878D01*
X4224316Y1137269D01*
X4224004Y1137737D01*
X4223769Y1138284D01*
X4223457Y1138909D01*
X4223145Y1139612D01*
X4222910Y1140393D01*
X4222598Y1141330D01*
X4222364Y1142345D01*
X4222207Y1143361D01*
X4222051Y1144532D01*
X4221895Y1145782D01*
Y1147109D01*
Y1147188D01*
Y1147422D01*
Y1147734D01*
X4221973Y1148281D01*
Y1148828D01*
X4222051Y1149452D01*
X4222285Y1151014D01*
X4222676Y1152655D01*
X4223223Y1154451D01*
X4224004Y1156091D01*
X4225097Y1157575D01*
Y1157653D01*
X4225253Y1157731D01*
X4225644Y1158121D01*
X4226347Y1158746D01*
X4227206Y1159371D01*
X4228377Y1159996D01*
X4229705Y1160621D01*
X4231189Y1161011D01*
X4231970Y1161167D01*
X4233298D01*
X4233610Y1161089D01*
D02*
G37*
G36*
X4384226Y1079522D02*
X4368918D01*
X4368059Y1079600D01*
X4367044Y1079678D01*
X4365872Y1079756D01*
X4364623Y1079912D01*
X4363451Y1080147D01*
X4362436Y1080459D01*
X4362280Y1080537D01*
X4361967Y1080615D01*
X4361499Y1080849D01*
X4360952Y1081162D01*
X4360327Y1081630D01*
X4359624Y1082177D01*
X4359000Y1082802D01*
X4358453Y1083505D01*
X4358375Y1083583D01*
X4358219Y1083895D01*
X4357984Y1084286D01*
X4357750Y1084911D01*
X4357516Y1085535D01*
X4357281Y1086316D01*
X4357125Y1087176D01*
X4357047Y1088113D01*
Y1088191D01*
Y1088269D01*
Y1088737D01*
X4357203Y1089362D01*
X4357359Y1090221D01*
X4357672Y1091159D01*
X4358141Y1092174D01*
X4358843Y1093189D01*
X4359703Y1094126D01*
X4359859Y1094205D01*
X4360171Y1094517D01*
X4360874Y1094907D01*
X4361733Y1095298D01*
X4362905Y1095766D01*
X4364310Y1096079D01*
X4366029Y1096391D01*
X4368059Y1096469D01*
X4384226D01*
Y1079522D01*
D02*
G37*
G36*
X4130869Y1097094D02*
X4131650Y1097016D01*
X4132666Y1096704D01*
X4133759Y1096235D01*
X4134931Y1095610D01*
X4136102Y1094673D01*
X4136649Y1094048D01*
X4137118Y1093423D01*
Y1093345D01*
X4137274Y1093189D01*
X4137430Y1092877D01*
X4137586Y1092486D01*
X4137820Y1091939D01*
X4138133Y1091315D01*
X4138445Y1090456D01*
X4138680Y1089518D01*
X4138992Y1088425D01*
X4139304Y1087175D01*
X4139539Y1085770D01*
X4139851Y1084130D01*
X4140007Y1082411D01*
X4140163Y1080537D01*
X4140320Y1078428D01*
Y1076163D01*
Y1076007D01*
Y1075617D01*
Y1074992D01*
X4140242Y1074133D01*
Y1073117D01*
X4140163Y1071946D01*
X4140085Y1070618D01*
X4139929Y1069291D01*
X4139617Y1066479D01*
X4139070Y1063667D01*
X4138758Y1062418D01*
X4138367Y1061246D01*
X4137899Y1060153D01*
X4137430Y1059294D01*
Y1059216D01*
X4137274Y1059138D01*
X4136883Y1058669D01*
X4136258Y1057966D01*
X4135399Y1057263D01*
X4134306Y1056482D01*
X4133056Y1055779D01*
X4131650Y1055311D01*
X4130869Y1055233D01*
X4130088Y1055154D01*
X4129698D01*
X4129386Y1055233D01*
X4128605Y1055389D01*
X4127589Y1055701D01*
X4126418Y1056170D01*
X4125246Y1056873D01*
X4124622Y1057341D01*
X4123997Y1057966D01*
X4123372Y1058591D01*
X4122825Y1059294D01*
Y1059372D01*
X4122669Y1059528D01*
X4122513Y1059762D01*
X4122357Y1060153D01*
X4122122Y1060621D01*
X4121888Y1061324D01*
X4121654Y1062105D01*
X4121341Y1062964D01*
X4121029Y1064058D01*
X4120795Y1065229D01*
X4120560Y1066635D01*
X4120326Y1068197D01*
X4120092Y1069915D01*
X4120014Y1071790D01*
X4119857Y1073898D01*
Y1076163D01*
Y1076320D01*
Y1076710D01*
Y1077335D01*
X4119935Y1078194D01*
Y1079209D01*
X4120014Y1080381D01*
X4120092Y1081630D01*
X4120248Y1083036D01*
X4120560Y1085848D01*
X4121107Y1088581D01*
X4121419Y1089909D01*
X4121810Y1091080D01*
X4122279Y1092096D01*
X4122825Y1092955D01*
Y1093033D01*
X4122981Y1093111D01*
X4123372Y1093580D01*
X4123997Y1094283D01*
X4124856Y1095063D01*
X4125949Y1095844D01*
X4127199Y1096547D01*
X4128605Y1097016D01*
X4129386Y1097094D01*
X4130167Y1097172D01*
X4130557D01*
X4130869Y1097094D01*
D02*
G37*
D32*
X4765000Y2417500D02*
D03*
%TF.MD5,4ee99e8ab41afe0360b6cc7476182103*%
M02*
