%TF.GenerationSoftware,Altium Limited,Altium Designer,20.0.10 (225)*%
G04 Layer_Color=32768*
%FSLAX26Y26*%
%MOIN*%
%TF.FileFunction,Other,Top_Courtyard*%
%TF.Part,Single*%
G01*
G75*
%TA.AperFunction,NonConductor*%
%ADD53C,0.018000*%
%ADD57C,0.001968*%
D53*
X3568819Y1572677D02*
X3671181D01*
X3568819Y1157323D02*
Y1572677D01*
X3671181Y1157323D02*
Y1572677D01*
X3568819Y1157323D02*
X3671181D01*
X3600315Y1365000D02*
X3639685D01*
X3620000Y1345315D02*
Y1384685D01*
X3431351Y1708760D02*
Y1941240D01*
Y1708760D02*
X3757979D01*
Y1941240D01*
X3431351D02*
X3757979D01*
X3590728Y2090315D02*
Y2129685D01*
X3571043Y2110000D02*
X3610413D01*
X3471142Y2986535D02*
X3738858D01*
X3471142Y2703465D02*
X3738858D01*
X3471142D02*
Y2986535D01*
X3738858Y2703465D02*
Y2986535D01*
X3585315Y2845000D02*
X3624685D01*
X3605000Y2825315D02*
Y2864685D01*
X3471142Y2580157D02*
X3738858D01*
X3471142Y2297087D02*
X3738858D01*
X3471142D02*
Y2580157D01*
X3738858Y2297087D02*
Y2580157D01*
X3585315Y2438622D02*
X3624685D01*
X3605000Y2418937D02*
Y2458307D01*
X4181535Y1305118D02*
X4248465D01*
X4181535Y1194882D02*
Y1305118D01*
Y1194882D02*
X4248465D01*
Y1305118D01*
X4056456D02*
X4123385D01*
X4056456Y1194882D02*
Y1305118D01*
Y1194882D02*
X4123385D01*
Y1305118D01*
X3931376D02*
X3998305D01*
X3931376Y1194882D02*
Y1305118D01*
Y1194882D02*
X3998305D01*
Y1305118D01*
X3803344Y1315199D02*
X3876656D01*
X3803344Y1184801D02*
Y1315199D01*
Y1184801D02*
X3876656D01*
Y1315199D01*
X4180551Y1607835D02*
X4241575D01*
X4180551Y1462165D02*
Y1607835D01*
Y1462165D02*
X4241575D01*
Y1607835D01*
X4055472D02*
X4116495D01*
X4055472Y1462165D02*
Y1607835D01*
Y1462165D02*
X4116495D01*
Y1607835D01*
X3930392D02*
X3991416D01*
X3930392Y1462165D02*
Y1607835D01*
Y1462165D02*
X3991416D01*
Y1607835D01*
D57*
X3693090Y2110000D02*
G03*
X3693090Y2110000I-102362J0D01*
G01*
%TF.MD5,b6872aeb894a9194b5159f2940d12b59*%
M02*
