%TF.GenerationSoftware,Altium Limited,Altium Designer,20.0.10 (225)*%
G04 Layer_Color=255*
%FSLAX26Y26*%
%MOIN*%
%TF.FileFunction,Pads,Bot*%
%TF.Part,Single*%
G01*
G75*
%TA.AperFunction,ViaPad*%
%ADD16C,0.150000*%
%TA.AperFunction,ComponentPad*%
%ADD17R,0.059055X0.059055*%
%ADD18C,0.059055*%
%TA.AperFunction,ViaPad*%
%ADD19C,0.070000*%
%TA.AperFunction,ComponentPad*%
%ADD20R,0.072835X0.072835*%
%ADD21C,0.072835*%
%ADD22R,0.053150X0.053150*%
%ADD23C,0.053150*%
%ADD24C,0.051181*%
%ADD25R,0.051181X0.051181*%
%ADD26R,0.049213X0.049213*%
%ADD27C,0.049213*%
%ADD28R,0.065000X0.065000*%
%ADD29C,0.065000*%
%ADD30R,0.059055X0.065000*%
D16*
X4950000Y1110000D02*
D03*
X3390000D02*
D03*
X4950000Y3050000D02*
D03*
X3390000D02*
D03*
D17*
X4690000Y1240000D02*
D03*
D18*
X4790000D02*
D03*
D19*
X3480000Y1615000D02*
D03*
X4530000Y1180000D02*
D03*
X4410000Y2485000D02*
D03*
D20*
X3415000Y1290000D02*
D03*
D21*
Y1490000D02*
D03*
D22*
X3620000Y1187835D02*
D03*
D23*
Y1542165D02*
D03*
D24*
X3590728Y2149370D02*
D03*
D25*
Y2070630D02*
D03*
D26*
X3505000Y2846378D02*
D03*
Y2440000D02*
D03*
D27*
X3605000Y2946378D02*
D03*
X3705000Y2846378D02*
D03*
X3605000Y2540000D02*
D03*
X3705000Y2440000D02*
D03*
D28*
X4970000Y1340000D02*
D03*
D29*
Y1240000D02*
D03*
X4960000Y1775000D02*
D03*
D30*
Y1675000D02*
D03*
%TF.MD5,b37b156430c3bfc03b23ed84da0518bf*%
M02*
