M48
;Layer_Color=9474304
;FILE_FORMAT=2:5
INCH,LZ
T9F00S00C0.01000
%
G90
G05
T09
G00X0334525Y0099481
M15
G01X049799Y00995
G01X049805Y0099483
G01X0499513Y0099637
G01X050116Y0100147
G01X0502675Y0100968
G01X0504001Y0102068
G01X0505087Y0103407
G01X0505891Y0104931
G01X0506382Y0106583
G01X0506541Y0108299
G01X0506519Y0108525
G01X05065Y0308489
G01X0506517Y030855
G01X0506363Y0310013
G01X0505853Y031166
G01X0505032Y0313175
G01X0503932Y0314501
G01X0502593Y0315587
G01X0501069Y0316391
G01X0499417Y0316882
G01X0497701Y0317041
G01X0497475Y0317019
G01X033401Y0317
G01X033395Y0317017
G01X0332487Y0316863
G01X033084Y0316353
G01X0329325Y0315532
G01X0327999Y0314432
G01X0326913Y0313093
G01X0326109Y0311569
G01X0325618Y0309917
G01X0325459Y0308201
G01X0325483Y030795
G01X03255Y0307923
G01X03255Y0108011
G01X0325483Y010795
G01X0325637Y0106487
G01X0326147Y010484
G01X0326968Y0103325
G01X0328068Y0101999
G01X0329407Y0100913
G01X0330931Y0100109
G01X0332583Y0099618
G01X0334299Y0099459
G01X0334525Y0099481
M16
M17
M30
