M48
;Layer_Color=9474304
;FILE_FORMAT=2:5
INCH,LZ
;TYPE=PLATED
T1F00S00C0.02800
T2F00S00C0.02953
T3F00S00C0.03150
T4F00S00C0.03346
T5F00S00C0.03543
T6F00S00C0.04000
T7F00S00C0.05000
T8F00S00C0.11811
;TYPE=NON_PLATED
%
T01
X03775Y013
Y01535
X03895Y01665
X03765Y0197
X0342Y01965
X03395Y0175
T02
X03505Y0244
X03605Y0254
X03705Y0244
Y0284638
X03505
X03605Y0294638
T03
X0359073Y0207063
Y0214937
T04
X0362Y0118783
Y0154217
T05
X0469Y0124
X0479
T06
X0497Y0124
Y0134
X0496Y01675
Y01775
T07
X03415Y0129
Y0149
X0453Y0118
X0441Y02485
X0348Y01615
T08
X0339Y0111
X0495
Y0305
X0339
M30
